<?xml version="1.0" encoding="utf-8"?>
<!-- Generator: Adobe Illustrator 18.1.0, SVG Export Plug-In . SVG Version: 6.00 Build 0)  -->
<!DOCTYPE svg PUBLIC "-//W3C//DTD SVG 1.1//EN" "http://www.w3.org/Graphics/SVG/1.1/DTD/svg11.dtd">
<svg version="1.1" id="Layer_1" xmlns="http://www.w3.org/2000/svg" xmlns:xlink="http://www.w3.org/1999/xlink" x="0px" y="0px"
	 viewBox="0 0 92.3 91.7" enable-background="new 0 0 92.3 91.7" xml:space="preserve">
<path fill-rule="evenodd" clip-rule="evenodd" fill="#FFFFFF" d="M44.4,0.1C44.4,0,44.6,0,44.7,0C44.7,0.1,44.5,0.1,44.4,0.1z
	 M47.2,0.1C47.2,0.1,47.3,0.2,47.2,0.1L47.2,0.1z M47.7,0.1C47.6,0.1,47.8,0.2,47.7,0.1L47.7,0.1z M61.6,3.4c0.2,0,0.5,0.1,0.6-0.1
	c-0.3,0-0.1-0.5-0.4-0.4C61.8,3.1,61.6,3.1,61.6,3.4z M63.3,3.4C63,3.4,63,3,62.5,3.1C62.2,3.7,63.2,3.7,63.3,3.4z M60.3,3.6
	C60.2,3.5,60.4,3.7,60.3,3.6L60.3,3.6z M63.4,3.4C63.5,4,64.2,3.9,64.7,4C64.4,3.7,63.9,3.6,63.4,3.4z M60.7,3.7
	C60.7,3.6,60.8,3.8,60.7,3.7L60.7,3.7z M61.9,3.9C61.9,3.8,62,4,61.9,3.9L61.9,3.9z M62.5,4C62.5,3.9,62.6,4.1,62.5,4L62.5,4z
	 M61.2,4.2C61.1,4.1,61.3,4.3,61.2,4.2L61.2,4.2z M63.9,4c-0.1,0-0.3,0-0.3,0.1C63.7,4.1,63.8,4.2,63.9,4z M64.7,4
	C64.8,4.5,65.4,3.9,64.7,4L64.7,4z M65.2,4.3C65.1,4.2,65.3,4.4,65.2,4.3L65.2,4.3z M65.5,4.5C65.4,4.4,65.6,4.5,65.5,4.5L65.5,4.5z
	 M65.2,4.6c-0.2,0-1.4,0-1.6,0.4c0.4-0.2,0.9-0.2,1.5-0.1C65.1,4.8,65.2,4.7,65.2,4.6z M66.4,4.6c-0.1,0-0.3,0-0.3,0.1
	C66.2,4.7,66.4,4.7,66.4,4.6z M62.8,5c0.1,0.3,0.9-0.1,0.4-0.3C63.3,5,62.8,4.8,62.8,5z M63.6,8.8C63.8,9.2,63.9,8.2,63.6,8.8
	L63.6,8.8z M19,9.1C19.2,9,19,8.9,19,9.1L19,9.1z M68.6,9.2C69,9.8,68.8,8.7,68.6,9.2L68.6,9.2z M69,9.1c0,0.2,0.1,0.1,0.1,0
	C69.1,9.1,69.1,9.1,69,9.1z M63.7,9.5c0-0.2-0.3-0.2-0.3,0C63.5,9.5,63.6,9.5,63.7,9.5z M64.9,9.5C65,9.6,64.8,9.4,64.9,9.5
	L64.9,9.5z M19.2,9.8C19.5,10.6,19.6,9.3,19.2,9.8L19.2,9.8z M67.7,9.9C67.4,10.4,68.2,9.6,67.7,9.9L67.7,9.9z M68.8,10.1
	C68.8,10.2,68.7,10,68.8,10.1L68.8,10.1z M65.5,10.2C65.7,10.2,65.5,10.1,65.5,10.2L65.5,10.2z M69,10.2C69.2,10.8,69.2,9.7,69,10.2
	L69,10.2z M19,10.5C19.2,10.4,19,10.4,19,10.5L19,10.5z M19,10.5c-0.1,0-0.1,0.1-0.2,0.1C19,10.7,19,10.6,19,10.5z M18.7,10.7
	c-0.1,0.1-0.2,0.2-0.1,0.4c0.2-0.1,0.3-0.2,0.3-0.4C18.8,10.7,18.8,10.7,18.7,10.7z M69.8,10.7c-0.1,0-0.3,0-0.3,0.1
	C69.6,10.8,69.8,10.8,69.8,10.7z M18.4,11.4c0.1,0,0.1-0.2,0.1-0.3C18.4,11.1,18.5,11.3,18.4,11.4z M69.9,11.4
	C70,11.5,69.9,11.4,69.9,11.4L69.9,11.4z M18.4,11.4c-0.1,0-0.1,0.1-0.1,0.1C18.4,11.6,18.4,11.5,18.4,11.4z M69.6,11.7
	c0,0.1,0.2,0.1,0.3,0.1C69.9,11.7,69.8,11.8,69.6,11.7z M17.8,12.2c-0.1,0.1-0.2,0.2-0.1,0.4C18.1,12.8,18.1,12.1,17.8,12.2z
	 M17.5,12.6c-0.1,0.3-0.5,0.4-0.4,0.9c0.3-0.2,0.5-0.5,0.6-0.9C17.6,12.6,17.6,12.6,17.5,12.6z M40.8,12.8c0,0.5,0.6-0.2,0.1-0.1
	C41,12.7,40.9,12.8,40.8,12.8z M40.5,12.9c0,0,0,0.1,0,0.1C40.7,13,40.6,12.9,40.5,12.9z M12.9,14.3C13.2,14.2,12.9,14.1,12.9,14.3
	L12.9,14.3z M12.9,14.3C12.7,14.3,13,14.4,12.9,14.3L12.9,14.3z M41.7,14.5c-0.2,0-0.1,0.1,0,0.1C41.7,14.6,41.7,14.6,41.7,14.5z
	 M12.5,15C12.9,15,12.4,14.4,12.5,15L12.5,15z M14.7,15C14.9,14.3,14,15.2,14.7,15L14.7,15z M12.5,15c-0.1,0-0.1,0.1-0.1,0.1
	C12.5,15.2,12.5,15.1,12.5,15z M12,16c0.1-0.3,0.3-0.5,0.3-0.9C12.1,15.3,11.5,15.9,12,16z M14.3,15.4
	C14.7,15.4,14.1,14.8,14.3,15.4L14.3,15.4z M14.1,15.7c0,0,0.1,0,0.1,0c0-0.1,0-0.2,0-0.3C14.1,15.4,14.2,15.6,14.1,15.7z
	 M13.7,15.7C13.6,15.7,13.8,15.8,13.7,15.7L13.7,15.7z M14.1,15.9c0-0.1,0-0.1,0-0.1C14,15.8,14,15.9,14.1,15.9z M11.6,16.5
	C12,16.4,11.5,15.9,11.6,16.5L11.6,16.5z M11.2,17.7c0.1-0.5,0.3-0.8,0.4-1.2C11,16.5,10.8,17.6,11.2,17.7z M12,16.9
	c-0.3,0-0.5,0.1-0.4,0.4C12,17.5,11.9,17.1,12,16.9z M31,17.2c0.3,0.1,0.3-0.1,0.3-0.3C31.2,17,31.1,17.1,31,17.2z M36.8,17.1
	C37,17.7,37,16.5,36.8,17.1L36.8,17.1z M13.1,17.2C13,17,12.9,17.2,13.1,17.2L13.1,17.2z M10.7,17.4C10.6,17.3,10.8,17.5,10.7,17.4
	L10.7,17.4z M11.6,17.4c-0.1,0-0.1,0.1-0.2,0.1C11.6,17.5,11.6,17.5,11.6,17.4z M14.1,17.4c-0.4,0-0.5,0.2-0.6,0.4
	C14,17.9,14,17.6,14.1,17.4z M10.3,17.7C10.4,18.2,10.4,17.1,10.3,17.7L10.3,17.7z M11.5,17.5c-0.1,0-0.1,0.1-0.1,0.1
	C11.4,17.7,11.4,17.6,11.5,17.5z M11.3,17.7c0,0-0.1,0-0.1,0c0,0,0,0.1,0,0.1C11.3,17.8,11.3,17.8,11.3,17.7z M29.4,18.3
	c0,0,0-0.1,0-0.1c-0.3,0.1-0.2-0.3-0.4-0.3C28.9,18.2,29,18.3,29.4,18.3z M31.8,19.3c0.6,0.1,0.4-0.8,0-0.3
	C31.8,19.1,31.8,19.2,31.8,19.3z M33,19C32.9,18.8,32.8,19,33,19L33,19z M60.7,18.9C60.8,19.1,60.9,18.8,60.7,18.9L60.7,18.9z
	 M9.1,19.4C9.2,19.5,9,19.4,9.1,19.4L9.1,19.4z M25.7,20.3c-0.2,0-0.2,0.3,0,0.3C25.7,20.5,25.7,20.4,25.7,20.3z M32.4,23
	C32.6,22.9,32.4,22.8,32.4,23L32.4,23z M61.2,23.6c0,0-0.1,0-0.1,0C61.1,23.8,61.2,23.7,61.2,23.6z M48.1,23.9c0,0,0-0.1,0-0.1
	C48,23.8,48,23.9,48.1,23.9z M85.4,25.1C85.7,25.7,85.6,24.6,85.4,25.1L85.4,25.1z M26.9,25.2c0.2,0,0.1-0.1,0-0.1
	C26.9,25.1,26.9,25.2,26.9,25.2z M86,25.2C85.9,25.2,86.1,25.3,86,25.2L86,25.2z M26.6,25.5C26.5,25.5,26.7,25.6,26.6,25.5
	L26.6,25.5z M26.4,25.8C26.4,25.8,26.5,25.9,26.4,25.8L26.4,25.8z M85.4,25.8C85.3,25.8,85.5,25.9,85.4,25.8L85.4,25.8z M26.1,25.8
	c-0.4-0.2-0.4,0.5-0.1,0.4C26.1,26.2,26.2,26,26.1,25.8z M86.1,26.4C86.1,26.4,86.2,26.5,86.1,26.4L86.1,26.4z M87.9,27.2
	c-0.1-0.3,0.4-0.5,0-0.6C87.9,26.7,87.5,27.1,87.9,27.2z M42.9,27c0.1,0,0.1,0.1,0.3,0.1C43.3,26.8,42.8,26.5,42.9,27z M86,27
	C86.1,27.1,85.9,27,86,27L86,27z M42.9,27c0,0-0.1,0-0.1,0C42.8,27.2,42.9,27.1,42.9,27z M86.1,27.3C86.3,27.9,86.3,26.7,86.1,27.3
	L86.1,27.3z M86.4,27.3C86.5,27.4,86.4,27.3,86.4,27.3L86.4,27.3z M87.5,27.3C87.5,27.4,87.4,27.3,87.5,27.3L87.5,27.3z M87.9,27.5
	C87.8,27.4,88,27.6,87.9,27.5L87.9,27.5z M42.3,27.8c0.1-0.3-0.1-0.3-0.3-0.3C42,27.7,42.1,27.7,42.3,27.8z M43.1,27.6
	C42.5,27.1,42.7,28.1,43.1,27.6L43.1,27.6z M69.9,27.5c0,0.2,0.1,0.1,0.1,0C70,27.5,70,27.5,69.9,27.5z M87.3,27.9
	c0.1,0,0.3,0,0.4,0c0-0.2,0-0.4-0.1-0.4C87.6,27.7,87.4,27.7,87.3,27.9z M43.4,27.6c-0.2,0-0.2,0.3,0,0.3
	C43.4,27.8,43.4,27.7,43.4,27.6z M41.9,27.9c0-0.2-0.3-0.2-0.3,0C41.8,27.9,41.8,28.1,41.9,27.9z M42.9,28.1c-0.1,0-0.3,0-0.3,0.1
	C42.7,28.2,42.9,28.2,42.9,28.1z M40.5,28.4c0.1,0.5-0.5,0.9-0.1,1.2c0-0.1,0.1-0.2,0.3-0.1c-0.1-0.5,0-0.8,0.6-0.7
	c0-0.1-0.1-0.1-0.1-0.3C40.8,28.7,40.9,28,40.5,28.4z M41.1,28.4C41.4,28.3,41.1,28.2,41.1,28.4L41.1,28.4z M73.6,28.5
	C73.6,28.4,73.7,28.6,73.6,28.5L73.6,28.5z M74.1,28.9C74.5,29.5,74.3,28.5,74.1,28.9L74.1,28.9z M70.5,29.1
	C70.6,29.2,70.5,29,70.5,29.1L70.5,29.1z M70.8,29.1C70.9,29.2,70.8,29,70.8,29.1L70.8,29.1z M71.4,29.4c-0.2-0.2-0.6,0.1-0.6,0.1
	C70.7,29.7,71.5,29.5,71.4,29.4z M71.7,29.7c0.1,0,0.2,0,0.3,0c0-0.1,0-0.2,0-0.3c-0.1,0-0.2,0-0.3,0C71.7,29.5,71.7,29.6,71.7,29.7
	z M40.8,30.1c0.1-0.4-0.3-0.3-0.6-0.3C40.4,30,40.6,30.1,40.8,30.1z M71.7,30.1C71.7,30.1,71.8,30.2,71.7,30.1L71.7,30.1z
	 M89.2,30.1C89.2,30.1,89.3,30.2,89.2,30.1L89.2,30.1z M71.3,30.6c0.1,0,0.2,0,0.3,0c0-0.1,0-0.2,0-0.3c-0.1,0-0.2,0-0.3,0
	C71.3,30.4,71.3,30.5,71.3,30.6z M40.7,30.6c0,0.2,0.3,0.2,0.3,0C40.9,30.6,40.8,30.6,40.7,30.6z M75,30.6c-0.2,0-0.1,0.2,0,0.2
	C75,30.7,75,30.6,75,30.6z M40.3,30.9C40.2,30.7,40.1,30.9,40.3,30.9L40.3,30.9z M72.6,31.2c0.1-0.1,0.2-0.3,0.3-0.4
	C72.6,30.7,72.6,30.9,72.6,31.2z M89.4,30.9C89.5,31,89.3,30.8,89.4,30.9L89.4,30.9z M71.9,31.3c0.3,0,0.4-0.1,0.4-0.3
	C72.1,31,71.8,31,71.9,31.3z M89.7,31.2C89.6,31.1,89.8,31.3,89.7,31.2L89.7,31.2z M40.4,31.8c-0.1-0.1-0.2-0.2-0.1-0.4
	c-0.3,0-0.1,0.5-0.3,0.6C40.2,32,40.2,31.8,40.4,31.8z M31.8,31.5c-0.2,0-0.1,0.1,0,0.1C31.8,31.6,31.8,31.5,31.8,31.5z M72.8,31.6
	C73,31.5,72.7,31.4,72.8,31.6L72.8,31.6z M31.2,31.8C31.4,32.3,31.6,31.2,31.2,31.8L31.2,31.8z M71.9,31.8
	C72.5,31.9,71.9,31.3,71.9,31.8L71.9,31.8z M89.2,31.9C89.9,31.9,89.3,31.3,89.2,31.9L89.2,31.9z M30,31.9
	C29.9,31.9,30.1,32,30,31.9L30,31.9z M89.8,31.9C89.9,32,89.8,31.9,89.8,31.9L89.8,31.9z M29.4,32.2C29.5,32.3,29.4,32.1,29.4,32.2
	L29.4,32.2z M30.3,32.2C30.5,32.8,30.5,31.6,30.3,32.2L30.3,32.2z M30.7,32.2C30.9,32.8,30.9,31.6,30.7,32.2L30.7,32.2z M31.2,32.4
	C31.6,32.3,31.1,31.7,31.2,32.4L31.2,32.4z M31.2,32.4C31,32.5,31.2,32.5,31.2,32.4L31.2,32.4z M30.7,32.7
	C30.7,32.6,30.8,32.8,30.7,32.7L30.7,32.7z M40.3,32.8c0-0.1,0-0.2,0-0.3C40.1,32.5,40.1,32.8,40.3,32.8z M29.6,32.8
	C29.7,32.9,29.5,32.7,29.6,32.8L29.6,32.8z M30.7,32.8c-0.1,0-0.3,0-0.3,0.1C30.6,32.9,30.7,32.9,30.7,32.8z M29.6,33.7
	c0-0.2,0.4-0.1,0.3-0.4C29.6,33.1,29.2,33.6,29.6,33.7z M31,33.3C30.4,33.2,31,33.8,31,33.3L31,33.3z M30.3,33.4
	c-0.2,0.2-0.2,0.4,0.1,0.4C30.5,33.6,30.5,33.4,30.3,33.4z M29,33.7C28.8,34.6,29.1,33.1,29,33.7L29,33.7z M31,33.7
	C31.2,34.3,31.2,33.1,31,33.7L31,33.7z M30.6,34c0-0.1-0.1-0.1-0.1-0.1c0,0,0,0.1,0,0.1C30.5,34,30.6,34,30.6,34z M30.5,34.1
	c0-0.1,0-0.1,0-0.1C30.3,34,30.4,34.1,30.5,34.1z M30.6,34c0,0,0,0.1,0,0.1C30.8,34.1,30.7,34,30.6,34z M30.6,34.1
	c-0.1,0-0.1,0-0.1,0C30.5,34.3,30.6,34.2,30.6,34.1z M30.3,34.3c-0.2,0-0.2,0.3,0,0.3C30.3,34.5,30.3,34.4,30.3,34.3z M29,34.4
	c-0.1,0-0.3,0-0.3,0.1C28.8,34.6,29,34.6,29,34.4z M29.3,35.2c0.2-0.2,0.1-0.4-0.1-0.6C29.1,34.8,29.1,35.1,29.3,35.2z M30,34.6
	c-0.5-0.2-0.2,0.5-0.3,0.7c-0.2,0-0.4,0-0.4,0.1c0.4,0,0.3,0.2,0.6,0c0-0.2,0-0.4,0.3-0.3c0-0.1,0-0.2,0-0.3
	C29.8,35.2,29.8,34.8,30,34.6z M28.8,35C28.9,35.1,28.8,35,28.8,35L28.8,35z M24.4,35.5C24.5,35.7,24.5,35.5,24.4,35.5L24.4,35.5z
	 M29.3,35.5C29,35.6,29.3,35.7,29.3,35.5L29.3,35.5z M47.5,35.5c-0.2,0-0.1,0.1,0,0.1C47.5,35.6,47.5,35.5,47.5,35.5z M24.4,36.1
	C24.5,36.3,24.5,36.1,24.4,36.1L24.4,36.1z M40.3,36.4c-0.3,0.3-0.6,0.6-0.7,1c0.1,0,0.1,0.1,0.3,0.1c0.1-0.3,0.5-0.3,0.6-0.6
	c0-0.1,0-0.1,0-0.1C40.2,36.8,40.3,36.5,40.3,36.4z M88.2,37c0-0.1,0-0.1,0-0.1c-0.1,0-0.1,0-0.1,0C88,36.9,88.1,37,88.2,37z
	 M39.4,37.4c0,0.2,0.1,0.1,0.1,0C39.5,37.4,39.4,37.4,39.4,37.4z M89.2,38.7C89.3,38.8,89.2,38.7,89.2,38.7L89.2,38.7z M89.8,38.7
	C89.9,38.8,89.8,38.7,89.8,38.7L89.8,38.7z M88.9,39C89.1,39.6,89.1,38.5,88.9,39L88.9,39z M90,39C89.9,38.8,89.8,39.1,90,39L90,39z
	 M18.7,39.8C18.5,39,18,40.3,18.7,39.8L18.7,39.8z M18.9,39.6C19,39.7,18.8,39.6,18.9,39.6L18.9,39.6z M91.8,39.5
	c0.1,0.5-0.2,0.6-0.1,1C92.1,40.7,92,39.5,91.8,39.5z M43.5,39.8c-0.2,0-0.2-0.2-0.4-0.1C42.8,40,43.6,40.1,43.5,39.8z M50.6,39.8
	c0-0.1-0.1-0.1-0.1-0.1c0,0,0,0.1,0,0.1C50.5,39.8,50.6,39.8,50.6,39.8z M50.5,39.8c0,0-0.1,0-0.2,0C50.4,40,50.5,39.9,50.5,39.8z
	 M49.9,40.4c0.2,0,0.1-0.3,0-0.3C49.9,40.2,49.9,40.3,49.9,40.4z M65.5,40.2C65.5,39.8,64.9,40.4,65.5,40.2L65.5,40.2z M65.8,41
	c0.1-0.2,0.2,0.1,0.4,0c-0.2-0.3-0.4-0.6-0.7-0.7C65.5,40.6,65.6,40.8,65.8,41z M42.5,40.8C42.6,41.4,42.6,40.2,42.5,40.8L42.5,40.8
	z M65.2,40.8C65.1,40.8,65.3,40.9,65.2,40.8L65.2,40.8z M64.7,41C65,40.9,64.7,40.8,64.7,41L64.7,41z M66.7,41.4
	c0-0.3-0.1-0.5-0.4-0.4C66.3,41.2,66.5,41.3,66.7,41.4z M48.7,41.1C48.7,41.8,49.3,41.2,48.7,41.1L48.7,41.1z M65.3,41.3
	c0-0.2-0.3-0.2-0.3,0C65.2,41.3,65.3,41.5,65.3,41.3z M66.4,41.4c-0.1,0-0.1-0.1-0.1-0.1c-0.1,0-0.2,0-0.3,0
	c-0.1,0.3,0.2,0.3,0.4,0.3C66.4,41.5,66.4,41.5,66.4,41.4z M90.1,41.3C90.2,41.5,90.3,41.3,90.1,41.3L90.1,41.3z M42.6,41.6
	C42.7,41.7,42.6,41.5,42.6,41.6L42.6,41.6z M65.5,41.7C65.4,41.5,65.3,41.7,65.5,41.7L65.5,41.7z M66.4,41.6
	C66.2,42.2,66.8,41.6,66.4,41.6L66.4,41.6z M42.3,41.9C42.5,42.4,42.5,41.3,42.3,41.9L42.3,41.9z M40.7,42
	C40.6,41.9,40.8,42.1,40.7,42L40.7,42z M42,42C42.1,42.1,42,41.9,42,42L42,42z M64.4,41.9c0,0.2,0.1,0.1,0.1,0
	C64.5,41.9,64.5,41.9,64.4,41.9z M90.3,42C90.4,42.1,90.2,41.9,90.3,42L90.3,42z M0.3,42.6c-0.1-0.4,0.3-0.3,0.3-0.6
	C0.2,41.9,0,42.5,0.3,42.6z M26.6,42.3c0-0.2-0.1-0.1-0.1,0C26.5,42.3,26.5,42.3,26.6,42.3z M48.1,42.5C48,42.2,47.9,42.5,48.1,42.5
	L48.1,42.5z M66.7,42.3c-0.2,0-0.4,0-0.4,0.1C66.4,42.4,66.6,42.5,66.7,42.3z M90,42.5C90.2,42.4,90,42.3,90,42.5L90,42.5z
	 M90.4,42.5C90.6,43,90.6,41.9,90.4,42.5L90.4,42.5z M48.1,42.5C48.2,42.7,48.3,42.4,48.1,42.5L48.1,42.5z M64.1,42.5
	c0,0,0,0.1,0,0.1C64.3,42.6,64.2,42.5,64.1,42.5z M90,42.5C89.8,42.5,90,42.6,90,42.5L90,42.5z M66.2,42.8
	C65.9,43.2,66.7,42.4,66.2,42.8L66.2,42.8z M66.8,42.6c0,0.2,0.2,0.1,0.2,0C66.9,42.6,66.9,42.6,66.8,42.6z M0.8,42.9
	C0.7,42.8,0.9,43,0.8,42.9L0.8,42.9z M39.4,43.5c0.3,0,0-0.7,0.3-0.7C39.2,42.6,39.4,43.2,39.4,43.5z M1.8,42.9c0,0-0.1,0-0.1,0
	c0,0,0,0.1,0,0.1C1.8,43.1,1.8,43,1.8,42.9z M0.2,43.5c0.4,0.1,0.3-0.3,0.4-0.4C0.2,42.9,0.3,43.4,0.2,43.5z M1.4,43.5
	c0.3,0.1,0.3-0.2,0.3-0.4C1.5,43.2,1.4,43.3,1.4,43.5z M27.9,43.5c0.1,0,0.2,0,0.1,0.1c0.1,0.1,0.3,0.1,0.3,0.3
	c0.5-0.2,0.1-0.3,0.3-0.7c-0.6,0.2-0.3,0.3-0.6-0.1C28.1,43.3,27.9,43.3,27.9,43.5z M39.5,43.9c0.2,0.3,0.6-0.4,0.4-0.9
	C39.6,43.2,39.7,43.7,39.5,43.9z M90,43.3C90.2,43.3,90,43.2,90,43.3L90,43.3z M1.1,43.5C1,43.4,1.2,43.6,1.1,43.5L1.1,43.5z
	 M47.4,43.5C47.5,43.6,47.3,43.4,47.4,43.5L47.4,43.5z M48.7,43.5C48.6,43.4,48.8,43.6,48.7,43.5L48.7,43.5z M89.5,43.9
	c0.2,0,0.4,0,0.6,0c0-0.3-0.2-0.3-0.1-0.6C89.8,43.5,89.7,43.7,89.5,43.9z M27.2,43.6C27.3,43.7,27.1,43.6,27.2,43.6L27.2,43.6z
	 M27.6,43.6c0,0,0-0.1,0-0.1C27.5,43.5,27.6,43.6,27.6,43.6z M62.8,43.9C63,43.8,62.8,43.8,62.8,43.9L62.8,43.9z M0.8,44.1
	C0.7,44,0.9,44.2,0.8,44.1L0.8,44.1z M62.8,43.9C62.6,44,62.8,44.1,62.8,43.9L62.8,43.9z M89.5,43.9c-0.1,0-0.1,0.1-0.1,0.1
	C89.5,44.1,89.5,44,89.5,43.9z M91.6,50.3c0.5-2,1-3.9,0.6-6.4C92.2,46.5,91.3,48.5,91.6,50.3z M62.4,44.2
	C62.5,44.3,62.3,44.2,62.4,44.2L62.4,44.2z M89.1,44.2c0-0.1-0.1-0.1-0.2-0.1C88.9,44.2,89,44.2,89.1,44.2z M89.4,44.2
	c0,0,0-0.1,0-0.1c-0.1,0-0.1,0.1-0.2,0.1C89.3,44.2,89.3,44.2,89.4,44.2z M89.8,44.2C89.9,44.3,89.8,44.2,89.8,44.2L89.8,44.2z
	 M0.8,44.7c0-0.1,0-0.2,0.1-0.1c0-0.2,0-0.4-0.3-0.3C0.6,44.4,0.6,44.7,0.8,44.7z M1.2,44.4C1.3,44.5,1.1,44.3,1.2,44.4L1.2,44.4z
	 M7.1,44.4C6.9,44.5,7.2,44.6,7.1,44.4L7.1,44.4z M62.4,44.5C62.5,45.1,62.5,43.9,62.4,44.5L62.4,44.5z M63.1,44.5
	c-0.5-0.5-0.5,0.8-0.4,1.3c0.4-0.1,0.2-0.2,0.1-0.6c0,0,0.1,0,0.2,0C62.7,45,62.9,44.7,63.1,44.5z M89.5,44.8
	C89.6,44.9,89.5,44.8,89.5,44.8L89.5,44.8z M90.3,44.8c0,0.2,0.1,0.1,0.1,0C90.4,44.8,90.3,44.8,90.3,44.8z M0.2,45.3
	C0.6,45.2,0,44.7,0.2,45.3L0.2,45.3z M62.1,45.3C62,45.2,62.2,45.4,62.1,45.3L62.1,45.3z M0.2,45.3C0,45.4,0.2,45.5,0.2,45.3
	L0.2,45.3z M89.7,47.4c0-0.6,0.4-1.6,0-2.1C89.8,46,89.2,46.8,89.7,47.4z M52.9,45.6c0.2,0,0.1-0.2,0-0.2
	C52.9,45.5,52.9,45.5,52.9,45.6z M64.9,45.9c0.3,0.1,0.9-0.1,0.4-0.3c0,0.1-0.1,0.2-0.3,0.1c0-0.2-0.2-0.4-0.3-0.1
	C64.9,45.6,64.9,45.7,64.9,45.9z M65.8,45.6C65.9,45.7,65.7,45.5,65.8,45.6L65.8,45.6z M90.1,45.6C90.2,45.7,90.1,45.5,90.1,45.6
	L90.1,45.6z M62.2,45.9C62.4,45.8,62.2,45.7,62.2,45.9L62.2,45.9z M62.2,45.9C62,46,62.2,46,62.2,45.9L62.2,45.9z M89.1,46
	C89.3,46.6,89.3,45.4,89.1,46L89.1,46z M61.8,46.2C61.7,46.1,61.9,46.3,61.8,46.2L61.8,46.2z M63.1,46.3
	C63.3,45.7,62.7,46.3,63.1,46.3L63.1,46.3z M62.2,46.3C62.2,46.3,62.3,46.4,62.2,46.3L62.2,46.3z M62.7,46.3
	C62.8,46.9,62.8,45.7,62.7,46.3L62.7,46.3z M65.5,46.8c0-0.3,0.1-0.7-0.3-0.6C65.2,46.4,65.3,46.7,65.5,46.8z M63,46.9
	c0,0,0.1,0,0.1,0c-0.1-0.3,0.4-0.5,0-0.6C63,46.4,62.9,46.6,63,46.9z M6.7,46.8c0.1,0,0.2,0,0.2,0.1c0.4,0,0.3-0.5-0.2-0.4
	C6.7,46.6,6.7,46.7,6.7,46.8z M64.3,46.5C64.4,46.7,64.5,46.4,64.3,46.5L64.3,46.5z M61.9,46.8C61.9,46.7,62,46.9,61.9,46.8
	L61.9,46.8z M6.7,46.9c0,0,0-0.1,0-0.1c0,0-0.1,0-0.1,0C6.5,46.9,6.6,46.9,6.7,46.9z M6.6,49c0.7-0.3,0.3-1.4,0.3-2.1
	c-0.1,0-0.1,0-0.2,0C6.6,47.9,6.7,48.1,6.6,49z M62.5,47.4c0.4,0,0.3-0.2,0.6,0c0-0.2-0.1-0.3-0.1-0.4
	C62.6,46.8,62.7,47.2,62.5,47.4z M63.3,47.1C63.4,47.2,63.2,47,63.3,47.1L63.3,47.1z M65.9,46.9c-0.1,0-0.1,0.1-0.1,0.1
	C65.9,47.1,65.9,47,65.9,46.9z M62.1,47.1c-0.1,0-0.3,0-0.3,0.1C61.9,47.2,62.1,47.2,62.1,47.1z M63.6,47.4
	C63.8,47.3,63.5,47.2,63.6,47.4L63.6,47.4z M63.3,47.4c0,0.1,0.2,0.1,0.3,0.2c0,0,0-0.1,0-0.2C63.5,47.4,63.4,47.4,63.3,47.4z
	 M89.2,47.5C89.6,48.1,89.5,47,89.2,47.5L89.2,47.5z M61.2,48.1c0.4,0.2,0.4-0.6,0.1-0.6C61.3,47.8,61.3,48,61.2,48.1z M7.3,47.8
	C7.5,48.4,7.5,47.2,7.3,47.8L7.3,47.8z M61.8,47.8C61.7,47.7,61.9,47.9,61.8,47.8L61.8,47.8z M62.5,48.5c0.6,0.1,0.6-0.9,0-0.7
	C62.5,48,62.5,48.3,62.5,48.5z M62.1,48.1C62.2,48.7,62.2,47.5,62.1,48.1L62.1,48.1z M89.2,48.1C89.5,48,89.2,47.9,89.2,48.1
	L89.2,48.1z M89.2,48.1C89,48.2,89.2,48.3,89.2,48.1L89.2,48.1z M60.7,48.5c-0.1,0.1-0.2,0.2-0.1,0.4c0.5,0.2,0.1-0.5,0.6-0.3
	C61.3,48.2,60.9,48.5,60.7,48.5z M89.4,48.7C89.6,49.3,89.6,48.1,89.4,48.7L89.4,48.7z M7.1,49C7.2,49.1,7.1,48.9,7.1,49L7.1,49z
	 M7,49.1c-0.2,0.1-0.4,0.2-0.4,0.4c0,0.2,0.4,0.1,0.6,0.1C7.2,49.5,7,49.4,7,49.1z M88.9,49.3C88.7,50.4,89,48.8,88.9,49.3
	L88.9,49.3z M7.3,49.4C7.4,49.5,7.2,49.4,7.3,49.4L7.3,49.4z M9.7,49.4C9.6,49.4,9.8,49.5,9.7,49.4L9.7,49.4z M8.8,50
	c0.1,0,0.2,0.1,0.3,0.1c0-0.2,0-0.4-0.1-0.4C8.9,49.8,8.8,49.9,8.8,50z M54.9,50c-0.2,0-0.2,0.4,0,0.4C54.9,50.3,54.9,50.2,54.9,50z
	 M89.1,50.3c0.1-0.3-0.3-0.4-0.3-0.2C88.9,50.2,88.9,50.3,89.1,50.3z M6.6,50.3C6.5,50.3,6.7,50.4,6.6,50.3L6.6,50.3z M53.9,50.5
	c0,0.1,0,0.2,0,0.3c0.4,0.4,0.1-0.2,0.6-0.1c0-0.2,0-0.3,0-0.4C54.2,50.2,54.3,50.6,53.9,50.5z M9.4,50.5c-0.1,0-0.1,0.1-0.1,0.2
	C9.3,50.6,9.4,50.6,9.4,50.5z M91.2,50.5c0,0.8-0.3,1.2,0,1.8c0-0.2,0-0.3,0.1-0.3C91.2,51.5,91.5,50.7,91.2,50.5z M7.1,50.9
	c0.1,0,0.1-0.2,0.2-0.3C7.2,50.6,7.2,50.8,7.1,50.9z M54.5,50.6C54.6,50.8,54.7,50.6,54.5,50.6L54.5,50.6z M53.9,50.8
	c-0.1,0-0.1,0.1-0.1,0.2C53.9,50.9,53.9,50.9,53.9,50.8z M53.8,50.9C53.1,50.9,53.7,51.5,53.8,50.9L53.8,50.9z M91.5,51.1
	C91.4,51,91.6,51.2,91.5,51.1L91.5,51.1z M53.3,51.7C53.3,51.6,53.4,51.8,53.3,51.7L53.3,51.7z M91.3,52.1c0.6,0,0.2-0.8,0-0.1
	C91.3,52,91.3,52.1,91.3,52.1z M64.7,53.7c0,0.1,0.1,0.1,0.1,0.1c0.2,0,0.2-0.3,0-0.3C64.9,53.7,64.8,53.7,64.7,53.7z M1.4,56
	C1.5,56.1,1.3,55.9,1.4,56L1.4,56z M1.4,56.4C1.7,57,1.6,55.9,1.4,56.4L1.4,56.4z M16.5,57.6c-0.1,0-0.1,0.2-0.1,0.3
	c0,0,0.1,0,0.1,0C16.5,57.8,16.5,57.7,16.5,57.6z M47.1,58.2c0-0.1-0.1-0.1-0.1-0.1C46.9,58.2,47,58.2,47.1,58.2z M47.1,58.2
	C46.6,58.7,47.6,58.4,47.1,58.2L47.1,58.2z M47.5,58.3c0,0,0-0.1,0-0.2C47.4,58.2,47.4,58.3,47.5,58.3z M90.3,58.3
	C90.2,57.9,89.7,58.5,90.3,58.3L90.3,58.3z M90.3,58.3C90.4,58.6,90.5,58.3,90.3,58.3L90.3,58.3z M46.2,58.8
	C46.4,59.3,46.6,58.2,46.2,58.8L46.2,58.8z M19,58.9c-0.4,0-0.1,0.6-0.6,0.4c-0.1,0.4,0.7-0.1,0.4,0.4c0.1-0.1,0.3-0.2,0.6-0.2
	c0,0.6,0.6,0.5,1,0.6C20.3,59.5,19.2,59.7,19,58.9z M46.8,59.1C47,59.6,47.1,58.5,46.8,59.1L46.8,59.1z M45.7,60.1
	c0.4,0.1,0.6-0.7,0.3-0.9C45.9,59.5,45.8,59.8,45.7,60.1z M46.9,59.5C46.8,59.3,46.8,59.5,46.9,59.5L46.9,59.5z M89.7,60.1
	c-0.1-0.3,0.4-0.5,0-0.6C89.6,59.6,89.3,60.1,89.7,60.1z M44.9,60.4c0.1,0,0.1-0.2,0.1-0.3C44.9,60.1,44.9,60.3,44.9,60.4z
	 M45.4,60.7c0.3,0,0.3-0.3,0.3-0.6C45.5,60.2,45.5,60.4,45.4,60.7z M19,60.6C19.2,60.5,19,60.4,19,60.6L19,60.6z M21.3,60.6
	C21.2,60.5,21.3,60.7,21.3,60.6L21.3,60.6z M44.9,60.4C44.2,60.4,44.8,61,44.9,60.4L44.9,60.4z M20.2,60.7
	C20.3,60.1,20.1,61.6,20.2,60.7L20.2,60.7z M89.4,60.7C89.6,60.6,89.4,60.5,89.4,60.7L89.4,60.7z M21.3,60.9
	C21.4,61.4,21.4,60.3,21.3,60.9L21.3,60.9z M21.5,60.9C21.7,61.4,21.7,60.3,21.5,60.9L21.5,60.9z M45.3,61c0.1,0,0.1-0.2,0.2-0.3
	C45.3,60.7,45.3,60.9,45.3,61z M89.4,60.7C89.2,60.8,89.4,60.9,89.4,60.7L89.4,60.7z M20.7,61C20.6,60.9,20.8,61.1,20.7,61L20.7,61z
	 M44.6,61.2C44.7,61.3,44.5,61.1,44.6,61.2L44.6,61.2z M20.5,61.3C20.6,61.4,20.4,61.2,20.5,61.3L20.5,61.3z M21.3,61.3
	C21.6,61.9,21.5,60.8,21.3,61.3L21.3,61.3z M20.4,61.6C20.3,61.5,20.5,61.7,20.4,61.6L20.4,61.6z M23,61.8c0.3,0.1,0.3-0.1,0.3-0.3
	C23.1,61.4,23,61.6,23,61.8z M21.8,61.8C21.9,61.8,21.8,61.7,21.8,61.8L21.8,61.8z M20.2,61.9C20.1,61.8,20.3,62,20.2,61.9
	L20.2,61.9z M21.3,62C21.2,62,21.3,62.1,21.3,62L21.3,62z M21.7,62C21.9,62,21.7,61.9,21.7,62L21.7,62z M22.9,62
	C23.1,62,22.9,61.9,22.9,62L22.9,62z M23.5,61.9c-0.2-0.1-0.2,0.7,0,0.6c0.4,0-0.4-0.4,0.3-0.3c0,0,0-0.1,0-0.1
	C23.7,62,23.6,61.9,23.5,61.9z M23.9,62c0-0.2-0.1-0.1-0.1,0C23.8,62,23.9,62,23.9,62z M43.8,61.9c0,0.2,0.3,0.1,0.3,0
	C44,61.9,43.9,61.9,43.8,61.9z M20.7,62.2C20.8,62.8,20.8,61.6,20.7,62.2L20.7,62.2z M21.7,62C21.3,62.1,21.8,62.7,21.7,62L21.7,62z
	 M69,62.2c-0.2,0-0.1,0.3,0,0.3C69,62.4,69,62.3,69,62.2z M49,62.5C49.2,63,49.4,61.9,49,62.5L49,62.5z M21.3,63.2
	c0-0.2,0.6-0.8,0-0.7C21.3,62.8,20.8,63.1,21.3,63.2z M48.6,63.2c0.2-0.1,0.3-0.4,0.1-0.6c-0.1,0-0.2,0-0.3,0
	C48.4,62.9,48.6,63,48.6,63.2z M22.3,62.9C22.2,62.7,22.1,63,22.3,62.9L22.3,62.9z M42.5,62.8C42.6,63,42.7,62.8,42.5,62.8
	L42.5,62.8z M23.2,63.4C23.1,63.3,23.3,63.5,23.2,63.4L23.2,63.4z M49.8,63.4c0,0,0-0.1,0-0.1c-0.1,0-0.1,0-0.2,0
	C49.6,63.4,49.7,63.4,49.8,63.4z M22,63.5C21.8,63.6,22,63.7,22,63.5L22,63.5z M21.7,63.8C21.6,63.6,21.5,63.8,21.7,63.8L21.7,63.8z
	 M21.7,63.8C21.6,64.4,22.1,63.9,21.7,63.8L21.7,63.8z M24.5,64C24.7,63.9,24.5,63.8,24.5,64L24.5,64z M55.5,64.1
	C55.6,64.2,55.5,64.1,55.5,64.1L55.5,64.1z M23,64.3C23.1,64.4,23,64.2,23,64.3L23,64.3z M24.7,64.6c-0.4,0.1,0.1,0.5,0.3,0.6
	C24.9,64.9,24.9,64.7,24.7,64.6z M43.2,64.7c-0.1,0-0.3,0-0.3,0.2C43,64.8,43.2,64.9,43.2,64.7z M48.7,64.9
	C48.6,64.8,48.8,65,48.7,64.9L48.7,64.9z M54.1,65c0-0.1-0.1-0.1-0.1-0.3c-0.3,0-0.3,0.4-0.3,0.7c-0.5,0.2-0.1-0.5-0.4-0.4
	c-0.1,0.6,0.2,0.7,0.6,0.7C54,65.5,53.5,65.1,54.1,65z M22.7,65.2C22.8,65.3,22.7,65.1,22.7,65.2L22.7,65.2z M43.5,65.2
	C43.6,65.3,43.5,65.1,43.5,65.2L43.5,65.2z M54.4,65.2C54.3,64.9,54.2,65.2,54.4,65.2L54.4,65.2z M41.6,65.3
	C41.7,65.4,41.5,65.3,41.6,65.3L41.6,65.3z M24.7,65.3C24.3,66,25.2,66.2,24.7,65.3L24.7,65.3z M48.1,65.6c0.2,0,0.2-0.3,0-0.3
	C48.1,65.4,48.1,65.5,48.1,65.6z M43.1,65.6C43,65.5,43.2,65.7,43.1,65.6L43.1,65.6z M40.7,65.8C40.8,65.9,40.6,65.7,40.7,65.8
	L40.7,65.8z M41.6,65.8C41.7,65.9,41.5,65.7,41.6,65.8L41.6,65.8z M48.6,65.6c-0.1,0.3,0.4,0.7,0.3,0.1
	C48.7,65.7,48.7,65.6,48.6,65.6z M40.3,65.9C40.2,65.7,40.1,65.9,40.3,65.9L40.3,65.9z M41.9,65.9C41.8,65.8,42,66,41.9,65.9
	L41.9,65.9z M48.1,66.4c0.4,0,0.3-0.5,0-0.6C48.1,66,48.1,66.2,48.1,66.4z M40.4,66.6c0.1-0.4,0.2-0.5-0.1-0.7
	C40,66.1,40.1,66.5,40.4,66.6z M41.7,66.5c0-0.2,0.1-0.3,0.1-0.4c-0.5,0.1-0.7,0.2-0.3,0.4C41.6,66.5,41.7,66.5,41.7,66.5z
	 M48.1,66.4c-0.1,0-0.1,0.1-0.1,0.1C48.1,66.5,48.1,66.4,48.1,66.4z M39.5,66.6C39.7,66.6,39.5,66.5,39.5,66.6L39.5,66.6z M41,67.4
	c0.4-0.1,0.5-0.4,0.6-0.9C41.3,66.7,40.9,66.8,41,67.4z M39.2,66.6c0,0.1,0,0.2,0,0.3c0.3,0.1,0.3-0.1,0.3-0.3
	C39.4,66.6,39.3,66.6,39.2,66.6z M42.3,67.5c0-0.4-0.3-0.4-0.4-0.6C41.8,67.3,41.9,67.6,42.3,67.5z M42.8,66.9
	C42.6,67,42.8,67.1,42.8,66.9L42.8,66.9z M39.8,67.4c-0.2,0-0.1,0.1,0,0.1C39.8,67.5,39.8,67.4,39.8,67.4z M40.5,67.5
	c-0.3-0.1-0.3,0.1-0.3,0.3C40.4,67.8,40.5,67.7,40.5,67.5z M46.8,67.7c0-0.1-0.1-0.1-0.2-0.2C46.6,67.7,46.7,67.7,46.8,67.7z
	 M42.3,67.8c0-0.2-0.3-0.1-0.3,0C42.1,67.8,42.2,67.8,42.3,67.8z M85.8,67.8C85.9,67.9,85.8,67.8,85.8,67.8L85.8,67.8z M38.8,68.6
	c-0.1-0.2-0.3-0.2-0.3-0.4c0.2,0,0.4,0,0.6,0c0-0.3-0.5-0.1-0.7-0.1c-0.4,0.6-0.3,0.7-0.6,1.2C38.4,69.3,38.1,68.5,38.8,68.6z
	 M45.1,68.1C45.3,68.7,45.3,67.5,45.1,68.1L45.1,68.1z M41.7,68.4C41.7,68.4,41.8,68.5,41.7,68.4L41.7,68.4z M44.6,68.7
	C44.8,68.6,44.5,68.5,44.6,68.7L44.6,68.7z M45,68.9C45.2,68.8,45,68.7,45,68.9L45,68.9z M45.1,69.8C45.2,70,45.3,69.8,45.1,69.8
	L45.1,69.8z M47.4,69.8c0,0,0,0.1,0,0.1C47.5,69.9,47.5,69.8,47.4,69.8z M47.7,69.9C47.8,70.5,47.8,69.3,47.7,69.9L47.7,69.9z
	 M44.9,70.1C45.1,70,44.8,69.9,44.9,70.1L44.9,70.1z M46.6,70.1C46.8,70.6,46.8,69.5,46.6,70.1L46.6,70.1z M44.3,70.7
	c-0.1,0-0.1,0.1-0.1,0.1C44.2,70.8,44.3,70.8,44.3,70.7z M44.9,71.4c-0.1,0-0.1,0.1-0.1,0.2C44.8,71.6,44.8,71.5,44.9,71.4z
	 M45,71.8C44.9,71.6,44.8,71.9,45,71.8L45,71.8z M35.5,75.3c0.1,0,0.2,0,0.3,0c0-0.2,0-0.3-0.1-0.3C35.6,75.1,35.5,75.1,35.5,75.3z
	 M35.5,75.3C35.3,75.3,35.5,75.4,35.5,75.3L35.5,75.3z M34.6,75.9C34.4,75.9,34.6,76,34.6,75.9L34.6,75.9z M53.9,75.9
	c-0.1,0-0.1,0.1-0.1,0.1C53.9,76,53.9,75.9,53.9,75.9z M54.2,75.9c0,0,0,0.1,0,0.1C54.4,76,54.3,75.9,54.2,75.9z M53.6,76.1
	C53.1,75.7,53.4,76.7,53.6,76.1L53.6,76.1z M53.8,76c-0.1,0-0.1,0.1-0.1,0.1C53.7,76.2,53.8,76.1,53.8,76z M54.1,76.4
	c0.2,0,0.1-0.3,0.2-0.4C54,76,54.1,76.3,54.1,76.4z M54.4,76.4C54.4,76.5,54.3,76.4,54.4,76.4L54.4,76.4z M44.3,76.6
	C44.2,76.4,44.1,76.6,44.3,76.6L44.3,76.6z M44.6,77c-0.1-0.3,0.1-0.4,0.1-0.6c-0.2,0-0.3,0.1-0.4,0.1C44.3,76.8,44.4,77,44.6,77z
	 M53.9,76.7c0,0,0-0.1,0-0.1c-0.2,0-0.3,0-0.3,0.1C53.7,76.7,53.8,76.7,53.9,76.7z M53.9,76.7C54,77,54.1,76.7,53.9,76.7L53.9,76.7z
	 M21.4,77c0-0.1-0.1-0.1-0.1-0.1C21.2,77,21.3,77,21.4,77z M43.7,77.2C43.8,76.6,43.2,77.2,43.7,77.2L43.7,77.2z M21.4,77
	C21.5,77.3,21.6,77,21.4,77L21.4,77z M45.1,77.5c0.4,0.1,0.3-0.3,0.4-0.4c-0.1,0-0.3,0-0.4,0C45.1,77.2,45.1,77.3,45.1,77.5z
	 M43.5,77.6c0-0.1,0.1-0.1,0.1-0.2c0,0.4,0.1,0.2,0.3,0.2c0-0.1,0.2-0.1,0.1-0.3c-0.2,0-0.3-0.1-0.4-0.1
	C43.7,77.3,43,77.5,43.5,77.6z M44.3,77.5C44.2,77.4,44.4,77.6,44.3,77.5L44.3,77.5z M44,77.6C44.1,77.8,44.1,77.6,44,77.6L44,77.6z
	 M42.9,77.9C42.9,77.9,43,78,42.9,77.9L42.9,77.9z M45.3,77.8c-0.2,0-0.1,0.3,0,0.3C45.3,78,45.3,77.9,45.3,77.8z M21.3,78.1
	c0,0.1,0,0.1,0,0.1c0.2,0,0.3,0,0.3,0.1c-0.2,0.1,0,0.2,0.1,0.1C21.7,77.9,21.7,77.9,21.3,78.1z M42.9,78.8c0,0.3,0.5,0.1,0.7,0.2
	c0-0.1,0-0.2,0-0.3c-0.1,0-0.2,0-0.3,0C43.3,78.8,43.1,78.8,42.9,78.8z M78.5,79C78.8,78.9,78.5,78.8,78.5,79L78.5,79z M78.5,79
	C78.3,79.1,78.6,79.1,78.5,79L78.5,79z M54.6,79.4c0.1,0,0.2,0,0.3,0c0-0.2,0-0.3-0.1-0.3C54.8,79.2,54.6,79.3,54.6,79.4z
	 M38.6,79.9c0.2-0.2,0.1-0.4-0.1-0.6C38.5,79.5,38.4,79.8,38.6,79.9z M41.9,79.4C42,79.5,41.8,79.4,41.9,79.4L41.9,79.4z M77.8,79.4
	C78,79.3,77.8,79.2,77.8,79.4L77.8,79.4z M52.4,79.7c-0.1,0.2,0.6,0,0.6-0.1c-0.1,0-0.2,0-0.1-0.1C52.6,79.4,52.5,79.5,52.4,79.7z
	 M37.9,79.7C37.8,79.5,37.7,79.7,37.9,79.7L37.9,79.7z M37.9,79.7C38,79.9,38.1,79.7,37.9,79.7L37.9,79.7z M36.8,80
	c0.2,0,0.1-0.1,0-0.1C36.8,79.9,36.8,80,36.8,80z M37.6,80C37.7,80.1,37.5,79.9,37.6,80L37.6,80z M40.7,80
	C41.1,80.6,40.9,79.5,40.7,80L40.7,80z M51.8,80C51.9,80.1,51.8,79.9,51.8,80L51.8,80z M72.6,80c0-0.2-0.2-0.1-0.2,0
	C72.5,80,72.6,80,72.6,80z M40.4,80.2C40.3,80.1,40.5,80.3,40.4,80.2L40.4,80.2z M52,80.3C51.9,80.2,52.1,80.4,52,80.3L52,80.3z
	 M36.4,80.5C36,81,36.9,80.1,36.4,80.5L36.4,80.5z M40.3,80.5C40.2,80.4,40.3,80.6,40.3,80.5L40.3,80.5z M41.6,80.5
	c0-0.2-0.3-0.2-0.3,0C41.5,80.4,41.5,80.7,41.6,80.5z M39.4,80.8c0.5,0.1,0.3,0.1,0.7,0C40.2,80.2,39.5,80.6,39.4,80.8z M42,80.5
	c-0.1,0-0.3,0-0.3,0.1C41.8,80.6,42,80.6,42,80.5z M68.5,80.6C68.6,81.2,68.6,80,68.5,80.6L68.5,80.6z M75.9,80.6
	C76.1,80.5,75.9,80.4,75.9,80.6L75.9,80.6z M35.1,80.8C35.2,81.3,35.2,80.2,35.1,80.8L35.1,80.8z M75.9,80.6
	C75.7,80.7,75.9,80.8,75.9,80.6L75.9,80.6z M34.3,80.8c0,0,0,0.1,0,0.1C34.5,80.9,34.4,80.8,34.3,80.8z M40.1,80.8
	C40.2,81,40.3,80.7,40.1,80.8L40.1,80.8z M55.8,81c0.1,0.9,0.4,0.1,0.6-0.1C56.2,80.4,56.2,81.2,55.8,81z M68,80.8
	c-0.1,0-0.3,0-0.3,0.1C67.8,80.9,68,80.9,68,80.8z M68.2,80.9C68.3,81.5,68.3,80.3,68.2,80.9L68.2,80.9z M34.2,81
	c0.1,0,0.1-0.1,0.1-0.1C34.2,80.9,34.2,81,34.2,81z M41.3,80.9c-0.2,0.1-0.6,0.1-0.6,0.4c0.1,0.4,0.2-0.3,0.6-0.2
	C41.3,81.1,41.3,81,41.3,80.9z M55.2,81c0,0.2,0,0.4,0,0.6c0.2,0,0.1-0.3,0.3-0.3c0.1-0.1,0.1-0.3,0.3-0.3
	C55.7,80.6,55.5,81.2,55.2,81z M33.4,81.2C33.6,81.8,33.6,80.6,33.4,81.2L33.4,81.2z M35.2,81.2C35.1,81.1,35.3,81.3,35.2,81.2
	L35.2,81.2z M34,81.5C34.5,81.5,33.9,82.1,34,81.5c-0.3,0-0.5,0-0.4,0.3c0.2,0,0.1,0.2,0,0c-0.4-0.1-1.4,0.5-1-0.1
	c-0.1,0-0.2,0-0.3,0c-0.2,0-0.3,0-0.3,0.1c0.1,0.1,0.3,0.1,0.3,0.3c-0.3-0.1-0.9,0.2-0.9-0.1c0.3,0,0.5,0,0.4-0.3
	c-0.2,0-0.4,0-0.6,0c0.6,1.6,2.4-0.1,3.7,0.4c0.2-0.5-0.5-0.1-0.4-0.4C34.3,81.6,34,80.8,34,81.5z M34.9,81.3
	C35,81.4,34.8,81.3,34.9,81.3L34.9,81.3z M31.3,81.5C31.3,81.4,31.4,81.6,31.3,81.5L31.3,81.5z M32.2,81.5
	C32.2,81.4,32.3,81.6,32.2,81.5L32.2,81.5z M34.5,81.6C35.1,81.7,34.5,81.1,34.5,81.6L34.5,81.6z M55.5,81.3
	C55.4,82,56,81.4,55.5,81.3L55.5,81.3z M32.8,81.6C32.8,81.6,32.9,81.7,32.8,81.6L32.8,81.6z M45.1,81.5
	C44.9,81.6,45.2,81.7,45.1,81.5L45.1,81.5z M54.5,81.5c-0.1,0-0.3,0-0.3,0.1C54.3,81.6,54.5,81.6,54.5,81.5z M54.6,81.5
	c-0.2,0.4,0.6,0.4,0.6,0.1C55,81.7,54.9,81.5,54.6,81.5z M75.4,81.8c-0.4-0.1-0.7-0.3-1.2-0.3C74.4,81.8,75.3,82.3,75.4,81.8z
	 M37,81.6c0,0.3-0.5,0.1-0.4,0.4C36.8,82.1,37.4,81.8,37,81.6z M38.9,81.8C39,81.9,38.9,81.7,38.9,81.8L38.9,81.8z M44,81.8
	C44.2,81.7,43.9,81.6,44,81.8L44,81.8z M30.9,81.9c0-0.2-0.4-0.2-0.4,0C30.6,81.9,30.7,81.9,30.9,81.9z M44,81.8
	C43.7,81.9,44,82,44,81.8L44,81.8z M45.4,82.1C45.6,81.5,45,82.1,45.4,82.1L45.4,82.1z M50.5,82.1c0-0.2,0-0.3-0.2-0.3
	C50.3,82,50.4,82.1,50.5,82.1z M53.3,81.8c-0.2,0-0.4,0-0.4,0.1C53,81.9,53.3,82,53.3,81.8z M67.9,81.9C67.8,81.7,67.7,82,67.9,81.9
	L67.9,81.9z M38.8,82.4c0.1-0.3-0.4-0.7-0.3-0.1C38.6,82.3,38.6,82.4,38.8,82.4z M43.4,81.9C42.6,82.3,43.9,82.3,43.4,81.9
	L43.4,81.9z M44.4,82.2c0.1,0,0.2,0.1,0.3,0.1c0-0.2,0-0.5-0.3-0.4C44.4,82,44.4,82.1,44.4,82.2z M35.6,82.2
	C35.7,82.3,35.6,82.2,35.6,82.2L35.6,82.2z M36.5,82.1c-0.1,0-0.1,0.1-0.1,0.1C36.5,82.3,36.5,82.2,36.5,82.1z M53.3,82.4
	c0.3,0,0.4-0.1,0.4-0.3C53.5,82.1,53.2,82.1,53.3,82.4z M54.8,82.4c0-0.1-0.2-0.1-0.1-0.3c-0.2,0-0.5,0.4-0.1,0.4
	C54.5,82.4,54.7,82.4,54.8,82.4z M34.9,82.4C35.1,83,35.1,81.8,34.9,82.4L34.9,82.4z M36.4,82.2C36.2,82.3,36.4,82.4,36.4,82.2
	L36.4,82.2z M38.5,82.2c-0.1,0-0.1,0.1-0.1,0.1C38.4,82.4,38.5,82.3,38.5,82.2z M49.5,82.4C49.6,83,49.6,81.8,49.5,82.4L49.5,82.4z
	 M50,82.4C49.7,82.9,50.5,82,50,82.4L50,82.4z M52.1,82.4C52.1,82.3,52.2,82.5,52.1,82.4L52.1,82.4z M74.7,82.4
	C74.8,82.5,74.6,82.3,74.7,82.4L74.7,82.4z M29.3,82.4c-0.1,0-0.3,0-0.3,0.1C29.1,82.5,29.3,82.5,29.3,82.4z M35.8,82.5
	C35.9,82.6,35.7,82.5,35.8,82.5L35.8,82.5z M54.1,82.5C54.2,82.6,54,82.5,54.1,82.5L54.1,82.5z M31.9,82.7
	C32.1,83.3,32.1,82.1,31.9,82.7L31.9,82.7z M34.3,82.5c-0.2,0-0.2,0.3,0,0.3C34.3,82.7,34.3,82.6,34.3,82.5z M35.5,82.5
	c-0.1,0-0.1,0.1-0.2,0.1C35.5,82.7,35.5,82.6,35.5,82.5z M43.8,82.8c0.1,0,0.2,0,0.3,0c0-0.1,0-0.2,0-0.3c-0.1,0-0.2,0-0.3,0
	C43.8,82.6,43.8,82.7,43.8,82.8z M56.3,82.7C56.2,82.5,56.1,82.7,56.3,82.7L56.3,82.7z M56.7,82.5c-0.2,0-0.1,0.1,0,0.1
	C56.7,82.6,56.7,82.6,56.7,82.5z M31.2,82.8C31.3,82.9,31.1,82.8,31.2,82.8L31.2,82.8z M48.4,82.7c-0.5,0.4,0.3,0.9,0.4,0.3
	C48.7,82.9,48.6,82.7,48.4,82.7z M48.9,83C49.3,82.9,48.7,82.4,48.9,83L48.9,83z M52.3,82.7c-0.4,0.2-0.8,0.3-0.3,0.6
	c0,0,0.1,0,0.1,0C52.1,83,52.3,83,52.3,82.7z M32.7,83.3c0.2,0,0.5,0.1,0.6-0.2c-0.3,0-0.3-0.2-0.4-0.3C32.8,83,32.6,83,32.7,83.3z
	 M34.8,83C34.9,83.1,34.7,82.9,34.8,83L34.8,83z M36.4,82.8c-0.1,0-0.1,0.2-0.1,0.3C36.4,83.1,36.4,82.9,36.4,82.8z M36.7,83
	C36.9,83.6,36.9,82.4,36.7,83L36.7,83z M43.5,83C43.6,83.1,43.5,82.9,43.5,83L43.5,83z M52.6,83C52.7,83.1,52.5,82.9,52.6,83
	L52.6,83z M55.8,83c0-0.1-0.2-0.1-0.3-0.1C55.5,83,55.7,82.9,55.8,83z M37.3,83c-0.1,0-0.3,0-0.3,0.1C37.1,83.1,37.3,83.1,37.3,83z
	 M46,83C45.8,83.1,46.1,83.2,46,83L46,83z M49.3,83.1C49.2,83.1,49.4,83.2,49.3,83.1L49.3,83.1z M29.3,83.3
	C29.2,83.2,29.4,83.4,29.3,83.3L29.3,83.3z M33.9,83.1c0,0.2-0.2,0.1-0.3,0C33.3,83.7,34.5,83.3,33.9,83.1z M36.2,83.4
	c0-0.1,0-0.2,0-0.3C35.7,83,36,83.9,36.2,83.4z M43.4,83.9c-0.4-0.4-0.1-0.4,0.1-0.7c-0.6,0-0.7,0.6-1.2,0.7c-0.1,0-0.1-0.2-0.1-0.3
	C42,83.7,42,83.8,41.9,84c-0.3,0-0.7-0.1-0.6,0.3C42,84.2,42.7,84,43.4,83.9z M43.7,83.3C43.6,83.2,43.8,83.4,43.7,83.3L43.7,83.3z
	 M51.1,83.1C51.2,83.3,51.3,83.1,51.1,83.1L51.1,83.1z M20.4,83.6C20.5,83.7,20.3,83.5,20.4,83.6L20.4,83.6z M41,83.4
	c-0.2,0.4,0.7,0.4,0.4,0C41.2,83.6,41.2,83.5,41,83.4z M50.6,83.4C50.7,83.6,50.8,83.4,50.6,83.4L50.6,83.4z M54.6,83.6
	C54.7,83.7,54.6,83.5,54.6,83.6L54.6,83.6z M29.4,83.7C29.4,83.7,29.5,83.8,29.4,83.7L29.4,83.7z M47.4,83.6
	c-0.1-0.1-0.4,0.1-0.4,0.1C46.8,84,47.5,83.7,47.4,83.6z M33.3,83.9C33.2,83.8,33.4,84,33.3,83.9L33.3,83.9z M45.7,83.9
	C45.7,83.8,45.8,84,45.7,83.9L45.7,83.9z M50.2,83.7C50.3,83.9,50.4,83.7,50.2,83.7L50.2,83.7z M40,84C40.1,84.6,40.1,83.4,40,84
	L40,84z M45.6,84C45.6,83.6,45,84.2,45.6,84L45.6,84z M20.7,84.2C20.8,84.3,20.6,84.1,20.7,84.2L20.7,84.2z M29.4,84.2
	C29.6,84.8,29.6,83.6,29.4,84.2L29.4,84.2z M34.2,84c-0.1,0-0.3,0-0.3,0.1C34,84.1,34.2,84.2,34.2,84z M40.3,84.5
	c0.1,0.2,0.2,0.5,0.6,0.4c0-0.1,0-0.3,0.1-0.3c0,0.1,0,0.2,0,0.3c0.3-0.1,0.6-0.3,0.3-0.6C40.8,84.1,40.6,84,40.3,84.5z M45.4,84.8
	c0.2,0,0.3,0.1,0.4,0.1c0.1-0.1,0.3-0.8,0-0.9c-0.1,0.2-0.1,0-0.3,0C45.8,84.5,45.7,84.4,45.4,84.8z M60.3,84.2c0-0.2-0.1-0.1-0.1,0
	C60.2,84.2,60.2,84.2,60.3,84.2z M51.5,84.2c0,0,0,0.1,0,0.1C51.7,84.3,51.6,84.2,51.5,84.2z M39.5,84.3c-0.2,0-0.1,0.3-0.1,0.4
	c-0.2,0-0.1-0.3-0.3-0.3c-0.5,0.3,0.2,0.6,0.1,0.9c0.5,0.1,0.5-0.2,0.9-0.2c0,0.1,0,0.3,0,0.4c0.2,0.2,0.6,0.2,0.4-0.3
	c-0.2,0-0.2,0.2-0.3,0c0-0.2,0.3-0.2,0.3,0c0.1,0,0.1-0.1,0.1-0.2c-0.3-0.4-0.8-0.2-1.3-0.1c0-0.3,0.4-0.2,0.3-0.6
	C39.5,84.5,39.5,84.4,39.5,84.3z M39.8,84.5c0-0.2-0.1-0.1-0.1,0C39.7,84.5,39.8,84.5,39.8,84.5z M51.5,84.3
	C51.3,84.4,51.5,84.5,51.5,84.3L51.5,84.3z M39.8,84.5C39.9,84.7,40,84.4,39.8,84.5L39.8,84.5z M50.6,84.6
	C50.7,84.7,50.6,84.5,50.6,84.6L50.6,84.6z M46.2,84.8C46.3,84.9,46.1,84.7,46.2,84.8L46.2,84.8z M38.3,85.1
	C39.3,85.3,38.3,84.3,38.3,85.1L38.3,85.1z M29.7,85.9c0-0.2,0.1-1.3-0.1-0.9C29.6,85.3,29.5,86.4,29.7,85.9z M33,85.1
	C33.1,85.2,32.9,85,33,85.1L33,85.1z M41,84.9c0,0-0.1,0-0.1,0C40.9,85.1,41,85,41,84.9z M45.3,85.1C45.4,85.2,45.2,85,45.3,85.1
	L45.3,85.1z M45.9,85.2C45.5,85.7,46.4,84.8,45.9,85.2L45.9,85.2z M49.8,85.4c0.1,0,0.3,0,0.4,0C50.2,85.1,49.6,84.8,49.8,85.4z
	 M30,85.6c0-0.3,0.2-0.3,0.3-0.4C29.9,85,29.6,85.6,30,85.6z M40.8,85.4C41,85.9,41,84.8,40.8,85.4L40.8,85.4z M39.1,85.6
	c0-0.1-0.1-0.1-0.1-0.1C38.9,85.6,39,85.6,39.1,85.6z M43.1,85.8c0-0.2-0.1-0.1-0.1,0C43,85.8,43,85.8,43.1,85.8z M34.2,85.9
	C33.9,86,34.2,86.1,34.2,85.9L34.2,85.9z M34.9,86.1C35.1,86.7,35.1,85.5,34.9,86.1L34.9,86.1z M47.2,86.1
	C47.3,86.2,47.2,86,47.2,86.1L47.2,86.1z M30.2,86.2C30.1,86.2,30.3,86.3,30.2,86.2L30.2,86.2z M35.4,86.2
	C35.5,86.8,35.5,85.7,35.4,86.2L35.4,86.2z M32.1,86.5c0.1-0.1,0.3-0.1,0.3-0.3C32.1,86.2,32.1,86.4,32.1,86.5z M45.6,86.4
	C45.7,86.5,45.5,86.3,45.6,86.4L45.6,86.4z M32.1,86.5c-0.2,0-0.4,0-0.4,0.1C31.9,86.7,32.1,86.7,32.1,86.5z M31.3,86.7
	c0.1,0.1,0.2,0.2,0.2,0.4c0.2,0,0.1-0.3,0.1-0.4C31.5,86.7,31.4,86.7,31.3,86.7z M32.2,86.8C32.3,86.9,32.2,86.8,32.2,86.8
	L32.2,86.8z M33.7,86.7c-0.2,0-0.4,0-0.4,0.2C33.4,86.8,33.7,86.9,33.7,86.7z M40.1,87c0,0,0-0.1,0-0.1c0,0-0.1,0-0.2,0
	C39.9,87,40,87,40.1,87z M31.9,88c0.6,0.1,0.6-0.3,1.2-0.1c-0.3-0.6,0.1-0.5,0.4-0.7c-0.2,0-0.5,0-0.7,0C33,87.9,32.1,87.6,31.9,88z
	 M43.8,87.4c0-0.1-0.1-0.1-0.1-0.1C43.6,87.4,43.7,87.4,43.8,87.4z M30.9,87.9c0.2,0,0.4,0,0.6,0C31.4,87.5,31,87.6,30.9,87.9z
	 M33.7,87.7C33.6,87.5,33.5,87.7,33.7,87.7L33.7,87.7z M41.7,87.9C41.8,88,41.7,87.8,41.7,87.9L41.7,87.9z M31.5,87.9
	C31.5,88.3,32.1,87.7,31.5,87.9L31.5,87.9z M91.2,52.5c-0.1,0.4-0.4,0.2-0.6,0.7c0.5,0.6-0.1,2-0.1,3c-0.2,0.1-0.3,0.2-0.4,0
	c-0.1,2.2-0.9,4.5-1.8,6.4c0.7,0.1,0.4-0.9,0.9-1.3c0.8,0-0.5,0.7,0.4,0.6C89,63.8,88,65,87.6,66.4c-0.9,0.1-1.9,0.2-2.1,1.5
	c-0.2,0-0.2-0.2-0.4-0.1c0.5,1.4-2.2,2.5-0.3,3.6c-1.6,2.7-3.6,5-5.6,7.3c-0.5-0.1-0.5,0.3-1,0.1c-0.1,0.3-0.5,0.3-0.6,0.6
	c0,0.1,0.1,0.2,0.3,0.1c-1.5,0.6-3.1,0.9-4,2.2c0,0.1,0.1,0.2,0.3,0.1c-0.1,0.5-0.4,0.6-0.7,0.9c-0.1,1.5-1.9,2-2.7,2.4
	c-4.9,3.4-10.3,5.4-17.4,6.7c-1.2-1.1-3.1,0.2-4.6-0.2c-0.1-0.5,0.6-0.1,0.7-0.4c-1.9-0.1-3.4-1-5.8-0.7c0.1-0.2,0.2-0.3,0-0.4
	c-0.3,0.3-1,0.1-1,0.6c-0.3,0.3-0.5,0.2-0.9,0c0.1-0.3,0.7,0,0.3-0.4c0.2,0,0.1-0.1,0-0.1c0-0.4-0.6,0.1,0,0c0,0,0,0.1,0,0.1
	c-0.8,0-1,0.9-1.6,0.3c0.2-0.3,0.9-0.1,1-0.4c0,0,0.1,0,0.1,0c0-0.2-0.1-0.1-0.1,0c-1.6,0.1-3.6,0.4-5.9,0.9c0-0.1-0.1-0.2-0.2-0.3
	c0.2-0.1,0-0.2,0,0c-0.2,0-0.1,0.3-0.3,0.3c-0.6,0-1-0.3-1.6-0.3c0.5-0.6-0.1-0.4-0.4-0.7c0.3-0.2,0.4-0.6,0.9-0.6
	c0.2,0.4,0.7-0.1,0.7-0.3c-4.9,0.1-8.4-0.4-11.4-3c0.1,0,0.1-0.2,0.1-0.3c-0.1,0-0.1,0.2-0.1,0.3c-1.1-0.4-2.2-0.7-2.1-1.9
	c0.1,0,0.2,0,0.3,0c0,0.1,0.2,0.1,0.3,0.1c0-0.1-0.2-0.1-0.3-0.1c0-0.2-0.3-0.1-0.3,0c-0.1,0-0.2-0.1-0.3-0.1c0-0.9,0.1-2.3,0-3
	c0.5,0.5,0.2-0.5,0.6-0.6c0-0.4-0.3-0.5-0.4-0.7c0.3-0.3,0.5-0.6,0.7-1c0.7-0.5-0.2-1,0-1.9c-0.3,0-0.4,0.1-0.4,0.3
	c-0.1,0-0.2,0-0.3,0c0.3,0.4-0.2,0.7,0.3,1.2c-0.1,0-0.2,0-0.3,0c-0.1-0.2-0.2,0,0,0c0,0.2,0.2,0.3,0.1,0.6
	c-0.3-0.3-0.4,0.2-0.7-0.1c0.1,0.9,0.5,0.8,0.6,1.9c-0.5-0.1-0.6-0.7-0.7-1.2c-0.2,0-0.2,0.3-0.3,0.4c0.2,0.5,0.9,1.2,0.6,1.8
	c-0.4-0.3-0.5-0.8-1-1c-0.1-0.2-0.2,0,0,0c0.2,1,0.6,1.5,0.6,2.5c-0.3-0.1-0.4-0.4-0.7-0.4c-0.1,0.4,0.3,0.3,0.1,0.7
	c-0.5-0.2-0.4-1.1-1-1.2c-0.2-0.1,0,0.6,0.1,0.6c-0.3,0.4-1.1-0.1-1-0.6c-4.3-3-7.5-7-10.4-11.4c0.2-0.1,0-0.2,0,0
	c-2.4-3.5-4-7.7-5.5-12.2c0-0.2,0.2-0.2,0.4-0.1C2,58,1.6,57.7,2.3,57.6c0.1,0.2,0.3,0.3,0.4,0.4c0.4-0.2-0.3-0.8-0.4-0.4
	c-0.1-0.5-0.8-0.1-0.4-0.9c0.3,0.5,0.2,0,0.6-0.1c-2.1-1.3-2-5.4-2.2-8.3c0-0.5-0.2-0.9-0.1-1.3c0.3-1.6,2.3-2.3,2.1-3.9
	c0.1,0,0.1-0.2,0.2-0.3c0,0,0.1,0,0.1,0c0,0.2,0,0.3,0.2,0.3c0-0.2,0-0.3-0.2-0.3c0-0.2-0.1-0.1-0.1,0c-0.1,0-0.1,0.2-0.2,0.3
	c-0.1,0-0.2-0.1-0.3-0.1c0.1-0.2,0.2-0.4,0.3-0.6c-0.4,0-0.5,0.2-0.4,0.6c-0.1,0-0.3,0-0.4,0c-0.1-0.6,0.4-0.5,0.4-0.9
	c-0.1-0.4-0.3,0.5-0.6,0c-0.1-0.5,0.2-0.6,0.1-1c-0.4,0-0.2,0.7-0.4,0.9c-0.2,0-0.1-0.4-0.4-0.3c-0.1-0.7,0.6-0.7,0.6-1.3
	c0-0.3-0.4,0.1-0.3,0.3c-0.4-0.2,0.1-0.7,0.3-0.7c0,0.1,0.1,0.1,0.1,0.1c0-0.1-0.1-0.1-0.1-0.1c0-0.4,0.1-0.9-0.3-0.9
	c1.4-6.7,3-13.1,7.1-17.1c-0.8-0.7,0.4-1.8,1-2.4c0.4,0.7-1.2,1.3-0.7,2.1c0,0,0,0.1,0,0.1c0.2,0,0.1-0.2,0-0.1
	c0.4-1,1.3-1.4,2.1-2.1c0-0.9,0.3-1.4,1-1.6c0,0.1,0,0.3-0.1,0.3c-0.1-0.2-0.2,0,0,0c-0.5,0.3-0.5,1.1-0.9,1.6c-0.1-0.2-0.2,0,0,0
	c0.1,0.5-0.6,0.2-0.4,0.7c1.1-0.1,1.6-2,3-2.4c-0.4-0.2-0.2-0.4,0-0.7c0.1,0,0.3,0,0.3,0.1c-0.2,0.1,0,0.2,0,0
	c0.1,0,0.2-0.1,0.1-0.3c0.3-0.5,0.7-0.9,1-1.3c0.1,0,0.1-0.1,0.1-0.1c0.3-0.1,0.4-0.4,0.4-0.7c1.6-1.8,2.3-5,4.3-5.9
	c0.1,0.4-0.6,0.7-0.2,0.9c0,0.2-0.4,0.2-0.3-0.1c-0.3,0.4-0.2,1.2-0.7,1.3c-0.1-0.2-0.2,0,0,0c-0.2,1.3-1.5,1.4-1.3,3
	c-0.2,0-0.2-0.2-0.4-0.1c0,0.6,0.2,0.4,0,0.9c-0.7,0,0,0.6,0,0c0.8,0,0.5-1,1-1.3c0.1,0.4-0.1,0.5-0.3,1c1-0.6,0.9-1.5,1.6-2.4
	c-0.3-0.2-0.6-0.3-0.1-0.6c0,0.2,0.2,0.2,0.3,0.3c0.6-1.1,1.6-2.7,1.8-4c5.3-3.5,12.4-6.5,20-7.4c2.8-0.3,4.6,0.4,6.8,0
	C47.5,1,48,0.5,48.4,0.7c0.1-0.5-0.5-0.2-0.3-0.7c3.2,0.4,6.3,0.6,9.5,1.5c0,0.2-0.3,0.1-0.3,0.3c0.4,0.6,0.6-0.3,1-0.2
	c-0.8,0.9,0.5,0.3,0.6,0.3C59.8,2,60.9,3,61.5,2.7c0,0.2,0,0.4,0,0.6c-0.9-0.1-1.4-0.1-2.1-0.1c0.7,0.6,1.3,1.2,2.4,1.3
	c0,0.8,1.2,0.3,1,1.2c0.9-0.2,1.8,0.1,2.2-0.7c0.6,0,0,0.2,0,0.4c0,0.1,1,0.1,0.7-0.4c0.1,0.8,0.9,0.2,1.5,0.3C68.4,5.3,70.5,7,72,8
	c3.7,2.5,7.2,5.1,9.2,8.9c0,0.2,0,0.5,0,0.7c0,0.1,0.4,0.7,0.4,0.3c1,3.3,2.8,5.2,3.6,8.5c0.1,0.4,0.3-0.5,0.6,0
	c-0.4,0.6,0.3,1.1,0.3,1.8c0.1-0.3,0.5-0.2,0.4-0.7c0.5,0.6,0.1,1,0,1.6c0.6,0.2,0.4-0.4,0.6-0.6c0.3,0.7,0,2,0.6,2.4
	c0.1-1-0.4-2.4,0.7-3.3c1.1,1.2,0.1,4.1,0.7,4.3c0.2,0.3,0.7,0.3,1,0.4c-0.1,0.5,0.3,0.4,0.1,0.9c-0.2,0-0.4,0-0.6,0
	c1.6,1.1,1.6,4.7,1.9,6.1c-0.6,0.2-0.5,1.7-0.6,1.9c0.3-0.1,0.1-0.7,0.4-0.7c0,0.2,0.2,0.4,0.3,0.1c0.2,0.7,0.2,1.6,0.3,2.4
	c-2.1,1.6-1.3,6-2.2,8.6c0-0.1-0.1-0.1-0.2-0.1c0.1-2.3,0.9-4.5,0.6-6.7c0.8-1.8,0.2-3.3,0.6-5.3c-0.5,0.4-0.8,0.9-0.9,1.8
	c-0.7,0.4-0.6,1-0.4,1.6c-0.1,0.1-0.2,0.2-0.4,0.1c0-0.1-0.2-0.1-0.3-0.1c0,0.4,0.1,0.2,0.3,0.1c0,0.3,0.4,0.2,0.3,0.6
	c-0.1,0.2-0.7,0-0.6,0.4c-0.2,0-0.1,0.3-0.1,0.4c0.3,0.1,0.3-0.1,0.3-0.3c0,0,0.1,0,0.1,0c0,0.1,0.1,0.1,0.1,0.1
	c-0.9,1.4-0.4,3.7-0.6,5.9c-0.1,0.6-0.6,1.1-0.3,1.6c0.5,0.1,0-0.9,0.6-0.7c-0.5,1.9-0.5,3.4-1.2,4.6c-0.1,0.5,0.2,0.6,0.3,0.9
	c0.8-1.4,1.1-3.3,1.6-5c0,0.1,0.1,0.1,0.2,0.1c-0.3,2.6-1.2,5-1.9,7.6c1.1-1.9,1.8-3.7,2.1-6.1C90.6,53.2,90.8,52.1,91.2,52.5z
	 M91.2,38.7C91.3,39.3,91.3,38.2,91.2,38.7L91.2,38.7z M91.2,41.7C91.1,41.6,91.3,41.8,91.2,41.7L91.2,41.7z M91.2,43.6
	C91.3,43.7,91.1,43.6,91.2,43.6L91.2,43.6z M88.8,40.2C88.9,40.3,88.7,40.2,88.8,40.2L88.8,40.2z M88.9,43.3
	c-0.4,0.2,0.2,0.5,0.3,0.2C89.1,43.5,89.1,43.4,88.9,43.3z M88.9,42.6C89,42.7,88.9,42.5,88.9,42.6L88.9,42.6z M89.2,42.6
	C89.3,42.7,89.2,42.5,89.2,42.6L89.2,42.6z M90.9,39.3C91,39.4,90.8,39.3,90.9,39.3L90.9,39.3z M90.7,38.6
	C90.8,38.7,90.7,38.5,90.7,38.6L90.7,38.6z M89.2,32.5C89.3,32.6,89.2,32.4,89.2,32.5L89.2,32.5z M89.1,33.1
	C89,33,89.2,33.2,89.1,33.1L89.1,33.1z M88.9,33.4c0.2,0.2,0.6,0.5,0.7,0C89.4,33.5,89.1,33,88.9,33.4z M89.2,37.9
	c-0.4,0.5-0.8,1.7-0.1,2.1c0.2-0.3,0.2-0.9,0.6-1c0.1,0.3-0.2,0.9,0.1,0.9C90,39.6,90,39.4,90,39c0.3-0.1,0.5-0.3,0.4-0.7
	c-0.3-0.1-0.8-0.3-1,0.1c0-0.4,0.1-0.6,0.4-0.6c0,0.4,0.6-0.1,0,0c0-0.1-0.2-0.1-0.3-0.2c0-0.4,0.2-0.3,0-0.6
	c-0.6,0.2-0.2,0.6-0.6,0c0.1,0.4-0.2,0.4-0.1,0.7C89,37.9,89.2,37.6,89.2,37.9z M88.5,41.1C88.6,41.2,88.4,41.1,88.5,41.1L88.5,41.1
	z M1.4,40.8C1.5,40.9,1.3,40.8,1.4,40.8L1.4,40.8z M1.8,41.4C1.7,41.4,1.9,41.5,1.8,41.4L1.8,41.4z M1.8,40.7
	C1.9,40.8,1.7,40.6,1.8,40.7L1.8,40.7z M2,41.9C2.2,42.3,2.3,41.3,2,41.9L2,41.9z M2,55.4C2.1,56,2.1,54.8,2,55.4L2,55.4z M2.1,44.2
	C2.2,44.3,2,44.2,2.1,44.2L2.1,44.2z M2.3,43.3C2.2,43.3,2.3,43.4,2.3,43.3L2.3,43.3z M2.4,56.1C2.5,56.2,2.3,56,2.4,56.1L2.4,56.1z
	 M2.5,52.4C2.5,52.3,2.6,52.5,2.5,52.4L2.5,52.4z M2.5,42.6C2.5,42.5,2.6,42.7,2.5,42.6L2.5,42.6z M7.7,22.1
	C7.7,22.1,7.8,22.2,7.7,22.1L7.7,22.1z M7.6,33.5C7.5,33.5,7.7,33.6,7.6,33.5L7.6,33.5z M7.4,22.6C7.5,22.7,7.4,22.5,7.4,22.6
	L7.4,22.6z M7.4,35.6C7.4,35.6,7.5,35.7,7.4,35.6L7.4,35.6z M7.1,37.1c0.1,0,0.3,0,0.3-0.1C7.3,37,7.2,37,7.1,37.1z M7.1,36.8
	C7.2,36.9,7.1,36.7,7.1,36.8L7.1,36.8z M7,40.2C7.1,40.3,6.9,40.2,7,40.2L7,40.2z M6.4,44.1c0.1,0.1,0.2,0.2,0.4,0.1
	c0,0.1,0,0.3,0,0.4c0.4,0.2,0.9-0.4,0.3-0.3c0-0.1-0.2-0.1-0.3-0.1c0,0,0-0.1,0-0.1C6.7,44,6.4,43.9,6.4,44.1z M6.7,45
	C6.8,45.1,6.6,44.9,6.7,45L6.7,45z M6.7,45.6C6.8,45.7,6.6,45.5,6.7,45.6L6.7,45.6z M6.4,45.4C6.5,45.5,6.3,45.4,6.4,45.4L6.4,45.4z
	 M6.3,44.5C6.3,44.7,6.4,44.5,6.3,44.5C6.2,44.3,6.1,44.5,6.3,44.5z M6.1,23.9C6.2,24,6,23.8,6.1,23.9L6.1,23.9z M6.1,43.9
	C6.2,44,6,43.9,6.1,43.9L6.1,43.9z M5.7,44.8C5.6,44.6,5.5,44.8,5.7,44.8c0,0.1,0,0.1,0,0.2c0.1,0.1,0.2,0.2,0.4,0.1
	c0,0.1,0,0.2,0,0.3c-0.2,0.1,0,0.2,0,0c0.2,0,0.2-0.3,0-0.3C6,44.9,5.9,44.8,5.7,44.8z M5.2,43.5c0.4,0,0.9-0.7,0.6-1
	C5.7,42.9,5.4,43.1,5.2,43.5z M4.9,43C5,43.1,4.9,43,4.9,43L4.9,43z M4.2,43.9C4.2,43.9,4.2,43.9,4.2,43.9
	C4.2,43.9,4.1,43.9,4.2,43.9z M3.7,43.3C3.8,43.4,3.7,43.3,3.7,43.3L3.7,43.3z M2.8,57.4C2.9,57.5,2.8,57.4,2.8,57.4L2.8,57.4z
	 M3.4,43C3.5,43.1,3.4,43,3.4,43L3.4,43z M3.6,55.1C3.5,55,3.7,55.2,3.6,55.1L3.6,55.1z M3.6,51.2C3.5,51.1,3.7,51.3,3.6,51.2
	L3.6,51.2z M3.6,43.8C3.5,43.6,3.4,43.8,3.6,43.8C3.8,44.3,4.1,43.3,3.6,43.8z M4.2,53.1C4.1,53.1,4.3,53.2,4.2,53.1L4.2,53.1z
	 M4.6,42.5C4.6,42.4,4.7,42.6,4.6,42.5L4.6,42.5z M5.2,44.5c0-0.1-0.1-0.1-0.1-0.1c0-0.1,0-0.1,0-0.1c-0.2,0-0.3-0.1-0.4-0.1
	c0,0.2,0.1,0.3,0.1,0.4c-0.2,0-0.1,0.1,0,0.1c0,0.1,0.1,0.1,0.1,0.1c0,0.4,0.6-0.1,0,0c0-0.1-0.1-0.1-0.1-0.1c0-0.1,0-0.1,0-0.1
	c0.1,0,0.1-0.1,0.3-0.1C5,44.5,5.1,44.5,5.2,44.5C5.3,44.7,5.4,44.5,5.2,44.5z M5.4,44.1C5.5,44.2,5.3,44,5.4,44.1L5.4,44.1z
	 M5.7,45.3C5.6,45.1,5.5,45.3,5.7,45.3C5.8,45.5,5.8,45.3,5.7,45.3z M5.8,55.2C5.9,55.3,5.8,55.2,5.8,55.2L5.8,55.2z M6.3,55.5
	C6.5,56,6.6,54.9,6.3,55.5L6.3,55.5z M6.3,51.2C6.2,51.1,6.4,51.3,6.3,51.2L6.3,51.2z M6.4,53.1C6.5,53.2,6.3,53.1,6.4,53.1
	L6.4,53.1z M6.9,63.2C6.8,63.2,6.9,63.3,6.9,63.2L6.9,63.2z M7.3,64c-0.1,0.2-0.2,0.4-0.3,0.6C7.3,64.7,7.6,64,7.3,64z M7.3,62
	C7.5,62,7.3,61.9,7.3,62C6.9,62.1,7.4,62.7,7.3,62z M7.1,57.1C7.2,57.2,7.1,57.1,7.1,57.1L7.1,57.1z M7.1,62.8
	C7.5,63.6,7.5,62.3,7.1,62.8L7.1,62.8z M7.3,63.7C7.5,64.3,7.5,63.1,7.3,63.7L7.3,63.7z M7.3,47.2c0.1-0.3,0.4-0.2,0.6-0.4
	c-0.5-0.2-0.4-0.9-1-0.9c0,0.3-0.2,0.3-0.2,0.6c-0.1,0-0.1,0.2-0.1,0.3c-1,0.9,0.1,3.1-0.6,4.2c0.5,0.2,0.1-0.5,0.4-0.4
	c0,0.1,0.2,0.1,0.3,0.2c-0.1,0.1-0.3,0.7,0,0.7C7.1,51,7,51.2,7.4,51.7c0-0.2,0.5-1.1-0.1-1C7.4,50,7,50.7,7,50.3
	c0.1-0.1,0.2-0.3,0.1-0.6c0.2,0,0.1,0.4,0.3,0.4C7.8,49.4,8,47.3,7.3,47.2z M7.9,34c-0.1,0-0.3,0-0.3,0.1C7.7,34.1,7.9,34.1,7.9,34z
	 M8,48.2C8,48.2,8.1,48.3,8,48.2L8,48.2z M12.3,19.6C12.5,20.2,12.5,19,12.3,19.6L12.3,19.6z M11.5,23.6
	C11.4,23.5,11.6,23.7,11.5,23.6L11.5,23.6z M10.3,47.9C10.4,48,10.2,47.9,10.3,47.9L10.3,47.9z M10.1,50.6
	C10.2,50.7,10.1,50.6,10.1,50.6L10.1,50.6z M9.5,28.1c0.3,0,0.4-0.1,0.4-0.3C9.7,27.8,9.6,27.9,9.5,28.1z M10,48.7
	C9.9,48.6,10.1,48.8,10,48.7L10,48.7z M9.4,48.1C9.5,48.2,9.3,48,9.4,48.1L9.4,48.1z M8.9,23.3C8.9,23.2,9,23.4,8.9,23.3L8.9,23.3z
	 M8.9,29.4C8.9,29.3,9,29.5,8.9,29.4L8.9,29.4z M8.5,22C8.6,22.1,8.4,21.9,8.5,22L8.5,22z M8.5,41.6C8.6,41.7,8.4,41.5,8.5,41.6
	L8.5,41.6z M8.3,25.4C8.4,25.5,8.3,25.3,8.3,25.4L8.3,25.4z M8.2,43.2C8.4,43.8,8.4,42.6,8.2,43.2L8.2,43.2z M8.3,41
	C8.3,40.9,8.4,41.1,8.3,41L8.3,41z M8.2,36.5C8.4,37,8.6,35.9,8.2,36.5L8.2,36.5z M9.4,50.5c0-0.1,0-0.3,0-0.4
	c0.4,0.1,0.4-0.2,0.7-0.1c0.1-0.9-0.3-1.3-0.9-1.5c-0.1,0.4,0,0.9-0.3,1.3c-0.4-0.3,0.2-0.6-0.2-1c0.2-0.1,0-0.2,0,0
	c-0.1,0-0.1,0-0.1,0c-0.3,0.5-0.2,1.5,0.1,1.3c0.1,0.3-0.1,0.3-0.3,0.3c0.1,0.2-0.2,0.8,0.1,0.7c-0.2-0.6,0.3-0.7,0.6-0.4
	C9.2,51.1,9.9,50.5,9.4,50.5z M9.7,50.8C9.6,50.7,9.8,50.9,9.7,50.8L9.7,50.8z M10.1,71.5C10,71.8,9.9,72,9.5,72
	c0.1,0.4-0.3,1.3,0.3,1.2C9.5,72.3,10.4,71.9,10.1,71.5z M10.3,61.5C10.1,61.5,10.3,61.6,10.3,61.5C10.5,61.4,10.3,61.3,10.3,61.5z
	 M10.6,49.4c-0.2,0-0.1-0.3-0.3-0.3C10.1,49.4,10.5,49.8,10.6,49.4z M10.6,33.8C10.5,33.8,10.7,33.9,10.6,33.8L10.6,33.8z
	 M10.7,45.4C10.6,45.4,10.8,45.5,10.7,45.4L10.7,45.4z M10.9,22.7C10.8,22.6,11,22.8,10.9,22.7L10.9,22.7z M11,45.1
	C11.1,45.2,10.9,45.1,11,45.1L11,45.1z M11,26.7C10.9,26.7,11.1,26.8,11,26.7L11,26.7z M11.2,22.4C11.3,22.5,11.1,22.4,11.2,22.4
	L11.2,22.4z M11.6,48.5c-0.1,0-0.3,0-0.3,0.1C11.4,48.7,11.6,48.7,11.6,48.5z M11.6,54.6C11.5,54.6,11.7,54.7,11.6,54.6L11.6,54.6z
	 M11.7,76.3C11.9,76.9,11.9,75.7,11.7,76.3L11.7,76.3z M11.7,53.9C11.9,54.5,11.9,53.3,11.7,53.9L11.7,53.9z M12,46.3
	C12.1,46.4,12,46.3,12,46.3L12,46.3z M12.3,55.8C12.1,55.9,12.4,56,12.3,55.8C12.6,55.7,12.3,55.6,12.3,55.8z M12.5,49.9
	c-0.1,0-0.3,0-0.3,0.1C12.3,50,12.5,50,12.5,49.9z M12.5,18.6C12.4,18.5,12.6,18.7,12.5,18.6L12.5,18.6z M21.1,81.8
	C21.3,82.4,21.3,81.2,21.1,81.8L21.1,81.8z M21.4,81C21.5,81.1,21.3,81,21.4,81L21.4,81z M80.9,38C80.9,37.9,81,38.1,80.9,38
	L80.9,38z M80.9,47.2C81,47.3,80.9,47.1,80.9,47.2L80.9,47.2z M78.5,25.5C78.7,26.1,78.7,24.9,78.5,25.5L78.5,25.5z M78.7,33.3
	c0-0.4-0.3-0.5-0.4-0.7C77.9,32.9,78.5,33.1,78.7,33.3z M77.8,33.8C77.7,33.8,77.9,33.9,77.8,33.8L77.8,33.8z M77.1,30
	c-0.1-0.4-0.3-0.7-0.6-0.9C76.2,29.4,76.7,29.8,77.1,30z M77.1,30.7C77.2,30.8,77,30.7,77.1,30.7L77.1,30.7z M76.8,31.5
	C76.9,31.6,76.7,31.4,76.8,31.5L76.8,31.5z M76.2,30.4c-0.2,0.2,0.1,0.7,0.4,0.7C76.5,30.9,76.6,30.4,76.2,30.4z M75.9,30
	C76.2,30.6,76.1,29.5,75.9,30L75.9,30z M75.9,23.9C76,24,75.8,23.8,75.9,23.9L75.9,23.9z M75.9,29.7C76,29.8,75.8,29.6,75.9,29.7
	L75.9,29.7z M74.5,23.5C74.6,23.7,74.7,23.4,74.5,23.5C74.4,23.2,74.4,23.5,74.5,23.5z M74.4,24c0.1,0,0.3,0,0.3-0.1
	C74.6,23.9,74.4,23.9,74.4,24z M74.2,27.8C74.3,28,74.4,27.7,74.2,27.8C74.4,27.1,73.8,27.7,74.2,27.8z M74.1,23.2
	C74.2,23.4,74.3,23.1,74.1,23.2C74.1,22.7,73.5,23.3,74.1,23.2z M72.6,22.4C72.3,22.9,73.1,22.1,72.6,22.4L72.6,22.4z M72.5,17.2
	C72.7,17.1,72.4,17,72.5,17.2C72.2,17.3,72.5,17.4,72.5,17.2z M72.3,12.5C72.3,12.4,72.4,12.6,72.3,12.5L72.3,12.5z M72.3,16.3
	C72.3,16.3,72.4,16.4,72.3,16.3L72.3,16.3z M72.3,13.5C72.4,12.9,72.2,14.4,72.3,13.5L72.3,13.5z M63.4,6.1
	C63.5,6.2,63.3,6,63.4,6.1L63.4,6.1z M63.4,7.9C63.5,8,63.3,7.8,63.4,7.9L63.4,7.9z M63.4,9.5c0,0.1-0.4,0.6,0,0.6
	c0.6-0.2,1-0.2,1.5-0.2c-0.1,0-0.1,0.2-0.1,0.3c0.2,0,0.5,0,0.7,0c0.2,0.4,0.5,0.3,0.9,0.1c0.9,0.6,1.5,0.8,3.1,1.2
	c-0.2,0.4,0.4,0.7,0.4,0.3c0.2,0,0.3,0,0.3,0.2c-0.5,0.2,0.5,0.5,0,0c0.6,0.8,1.1,0.7,1.6,1.5c0.4,0,0.4-0.4,0.4-0.7
	c-0.2,0-0.4,0-0.4-0.1c-0.3-1.6-1.7-2.2-2.2-3.6c-0.1,0-0.3,0-0.4,0c-1.2-1.2-3.2-0.4-5-0.4c0-0.2-0.1-0.3-0.1-0.4
	c-0.6,0-0.6,0.2-1.3,0.3C62.5,9.2,62.9,9.4,63.4,9.5z M72,17.1C72,17,72.1,17.2,72,17.1L72,17.1z M71,20.6
	C71.1,20.7,70.9,20.6,71,20.6L71,20.6z M70.5,22c0.1,0,0.3,0,0.3-0.2C70.7,21.9,70.5,21.8,70.5,22z M69.6,15.6
	C69.7,15.7,69.6,15.5,69.6,15.6L69.6,15.6z M69.5,19.9C69.4,19.8,69.6,20,69.5,19.9L69.5,19.9z M69.2,12.2
	C69.3,12.3,69.1,12.1,69.2,12.2L69.2,12.2z M68.5,18.4C68.2,18.5,68.5,18.6,68.5,18.4C68.7,18.3,68.4,18.2,68.5,18.4z M67.9,11.4
	C67.8,11.4,68,11.5,67.9,11.4L67.9,11.4z M66.7,11.1C66.8,11.2,66.6,11.1,66.7,11.1L66.7,11.1z M64.6,14.8
	C64.7,14.9,64.5,14.8,64.6,14.8L64.6,14.8z M64.1,14.7C64.2,14.8,64.1,14.6,64.1,14.7L64.1,14.7z M63.9,13.8
	C64,14.4,64,13.2,63.9,13.8L63.9,13.8z M63.9,11C63.8,10.9,63.9,11.1,63.9,11L63.9,11z M63.6,10.4C63.5,10.3,63.7,10.5,63.6,10.4
	L63.6,10.4z M63,12.9C62.9,12.9,63.1,13,63,12.9L63,12.9z M62.8,9.8C62.7,9.6,62.6,9.8,62.8,9.8C62.9,10,63,9.8,62.8,9.8z
	 M62.2,13.8c0.3-0.1,1,0.2,1-0.2C62.9,13.7,62.3,13.5,62.2,13.8z M63.3,16.8C63.2,16.7,63.4,16.9,63.3,16.8L63.3,16.8z M63,16.6
	C62.9,16.6,63.1,16.7,63,16.6L63,16.6z M62.4,16.6c0.1,0,0.3,0,0.3-0.2C62.5,16.5,62.4,16.5,62.4,16.6z M62.1,16.6
	C62.2,16.7,62,16.6,62.1,16.6L62.1,16.6z M61.8,13.8C61.7,13.7,61.9,13.9,61.8,13.8L61.8,13.8z M61.8,16.6
	C61.9,16.7,61.7,16.6,61.8,16.6L61.8,16.6z M61.3,13.7c0.1,0,0.3,0,0.3-0.1C61.5,13.5,61.3,13.5,61.3,13.7z M61.5,16.5
	C61.4,16.4,61.6,16.6,61.5,16.5L61.5,16.5z M61,11.4C61,11.4,61.1,11.5,61,11.4L61,11.4z M61.2,12.5c-0.1-0.1-0.4,0.1-0.4,0.1
	C60.6,12.9,61.3,12.6,61.2,12.5z M60.6,13.8C61.6,13.5,60.1,13.3,60.6,13.8L60.6,13.8z M60.7,14.5C60.8,14.6,60.7,14.5,60.7,14.5
	L60.7,14.5z M60.3,12.6c0.1,0,0.3,0,0.3-0.1C60.5,12.5,60.3,12.5,60.3,12.6z M60,13.7C59.9,13.6,60.1,13.8,60,13.7L60,13.7z
	 M59.5,3.9C59.6,4,59.5,3.8,59.5,3.9L59.5,3.9z M59.5,15.3C59.5,15.2,59.6,15.4,59.5,15.3L59.5,15.3z M58.5,10.4
	C58.4,10.3,58.6,10.5,58.5,10.4L58.5,10.4z M57,11.4C57.1,11.5,57,11.4,57,11.4L57,11.4z M52.3,12.3C52.2,12.3,52.4,12.4,52.3,12.3
	L52.3,12.3z M52.1,8.3C52.3,8.9,52.3,7.7,52.1,8.3L52.1,8.3z M51.8,11.3C52,11.9,52,10.7,51.8,11.3L51.8,11.3z M51.8,11.9
	C51.8,11.8,51.9,12,51.8,11.9L51.8,11.9z M51.5,6.4C51.6,6.5,51.5,6.3,51.5,6.4L51.5,6.4z M51.5,11.6C51.6,11.7,51.5,11.5,51.5,11.6
	L51.5,11.6z M51.4,12.6C51.3,12.6,51.5,12.7,51.4,12.6L51.4,12.6z M50.6,12.2C50.7,12.3,50.6,12.1,50.6,12.2L50.6,12.2z M49.3,0.7
	C49.2,0.7,49.4,0.8,49.3,0.7L49.3,0.7z M49.2,7.1C49.1,7.1,49.3,7.2,49.2,7.1L49.2,7.1z M48.7,6.1C48.6,6,48.8,6.2,48.7,6.1
	L48.7,6.1z M48.3,8.5C48.2,8.4,48.4,8.6,48.3,8.5L48.3,8.5z M47.8,10.8C47.8,10.8,47.9,10.9,47.8,10.8L47.8,10.8z M47.4,6.1
	C47.5,6.2,47.3,6,47.4,6.1L47.4,6.1z M47.1,7.1C47,7.1,47.2,7.2,47.1,7.1L47.1,7.1z M46.9,4.6C46.9,4.5,47,4.7,46.9,4.6L46.9,4.6z
	 M45.9,5.9C45.8,5.9,46,6,45.9,5.9L45.9,5.9z M45.6,12.2C45.7,12.3,45.5,12.1,45.6,12.2L45.6,12.2z M44.9,11.3
	C44.8,11.2,44.9,11.4,44.9,11.3L44.9,11.3z M44.7,5.8C44.8,5.9,44.6,5.7,44.7,5.8L44.7,5.8z M44.1,11.6c0.1-0.1,0.3-0.2,0.4-0.3
	c0.1,0.2,0.2,0,0,0C44.6,10.5,43.6,11.5,44.1,11.6z M43.8,11.9c0.1,0,0.3,0,0.3-0.1C44,11.8,43.8,11.7,43.8,11.9z M44,10.4
	C44.2,10.3,43.9,10.2,44,10.4C43.3,10.2,43.9,10.8,44,10.4z M43.7,11.6C43.8,11.7,43.6,11.5,43.7,11.6L43.7,11.6z M43.4,12.3
	C43.2,12.4,43.4,12.5,43.4,12.3C44.2,12.1,42.9,11.8,43.4,12.3z M42.3,11.3C42.4,11.5,42.5,11.3,42.3,11.3
	C42.2,11.1,42.1,11.3,42.3,11.3z M42.5,12c0,0.1-0.1,0.1-0.1,0.3c0.3,0,0.5-0.1,0.6-0.3C42.8,12,42.6,12,42.5,12
	C42.4,11.6,41.9,12.2,42.5,12z M41.3,3.4C41.4,3.5,41.2,3.4,41.3,3.4L41.3,3.4z M41,12.2C41.1,12.3,40.9,12.1,41,12.2L41,12.2z
	 M40.5,11.6C40.6,11.7,40.5,11.5,40.5,11.6L40.5,11.6z M40.5,12C40.6,12.1,40.5,12,40.5,12L40.5,12z M39.7,12.9c0.1,0,0.3,0,0.3-0.1
	C39.8,12.8,39.7,12.8,39.7,12.9z M40,13.2C40.1,13.3,39.9,13.1,40,13.2L40,13.2z M39.7,12.3C39.6,12.3,39.8,12.4,39.7,12.3
	L39.7,12.3z M39.4,13.1C39.3,13,39.5,13.2,39.4,13.1L39.4,13.1z M39.1,13.2C39.2,13.3,39,13.1,39.1,13.2L39.1,13.2z M37.6,13.2
	c0.5,0.1,0.8-0.1,0.9-0.4C38.1,12.8,37.9,13,37.6,13.2z M37.1,13.7C37.1,13.6,37.2,13.8,37.1,13.7L37.1,13.7z M36.7,13.4
	C36.6,13.3,36.8,13.5,36.7,13.4L36.7,13.4z M36.5,3.3C36.6,3.4,36.5,3.2,36.5,3.3L36.5,3.3z M35.8,13.8C36,14.3,36.2,13.2,35.8,13.8
	L35.8,13.8z M35.8,5.5C35.7,5.4,35.9,5.6,35.8,5.5L35.8,5.5z M35.2,13.5C35.1,13.4,35.3,13.6,35.2,13.5L35.2,13.5z M34.9,9.6
	C35,9.7,34.8,9.6,34.9,9.6L34.9,9.6z M34.5,14.4c0.1,0,0.3,0,0.3-0.1C34.6,14.3,34.5,14.3,34.5,14.4z M34.3,11
	C34.2,10.9,34.4,11.1,34.3,11L34.3,11z M34.2,14.7C34.3,15.3,34.3,14.1,34.2,14.7L34.2,14.7z M34,5.3C34,5.3,34.1,5.4,34,5.3L34,5.3
	z M33.9,7.7C34,7.8,33.8,7.7,33.9,7.7L33.9,7.7z M33.6,12.6C33.8,12.5,33.6,12.4,33.6,12.6C33.4,12.7,33.6,12.8,33.6,12.6z
	 M33.4,8.3C33.4,8.3,33.5,8.4,33.4,8.3L33.4,8.3z M32.5,7.7c0.1,0,0.3,0,0.3-0.2C32.7,7.6,32.5,7.6,32.5,7.7z M32.5,8.6
	C32.6,8.7,32.5,8.5,32.5,8.6L32.5,8.6z M31.8,7C31.9,7.1,31.7,6.9,31.8,7L31.8,7z M31.3,10.1C31.4,10.2,31.3,10,31.3,10.1L31.3,10.1
	z M30.7,8.8C30.8,8.9,30.7,8.7,30.7,8.8L30.7,8.8z M30,8.3C29.9,8.3,30.1,8.4,30,8.3L30,8.3z M28.1,13.5
	C28.2,13.6,28,13.4,28.1,13.5L28.1,13.5z M27.6,18.3C27.6,18.2,27.7,18.4,27.6,18.3L27.6,18.3z M26.3,9.6
	C26.4,9.7,26.2,9.6,26.3,9.6L26.3,9.6z M26.3,14.3C26.4,14.3,26.2,14.2,26.3,14.3L26.3,14.3z M25.4,11.1
	C25.5,11.2,25.3,11.1,25.4,11.1L25.4,11.1z M25.1,19.7C25,19.7,25.2,19.8,25.1,19.7L25.1,19.7z M24.4,6.2
	C24.3,6.2,24.5,6.3,24.4,6.2L24.4,6.2z M24.7,15.6c-0.2,0-0.1-0.3-0.2-0.4c0.5,0.5,0.3-0.5,0,0C23.9,14.9,24.5,16.2,24.7,15.6z
	 M24.7,17.2C24.6,17.2,24.8,17.3,24.7,17.2L24.7,17.2z M24.1,12.6C24.2,13.2,24.2,12,24.1,12.6L24.1,12.6z M23.9,15.6
	C24.1,16.1,24.3,15,23.9,15.6L23.9,15.6z M23.3,16.3C23.3,16.3,23.4,16.4,23.3,16.3L23.3,16.3z M22.7,16.6c0.1,0,0.1-0.1,0.1-0.2
	c0,0,0.1,0,0.1,0c0,0.2,0.3,0.1,0.4,0.2c0.1,0.2,0.2,0,0,0c0-0.2-0.3-0.1-0.4-0.2c0-0.2-0.1-0.1-0.1,0
	C22.8,16.4,22.7,16.5,22.7,16.6C22.5,16.7,22.7,16.8,22.7,16.6z M22.4,20.2C22.7,20.1,22.4,20,22.4,20.2
	C22.2,20.3,22.5,20.4,22.4,20.2z M20.5,8.6C20.6,8.7,20.4,8.5,20.5,8.6L20.5,8.6z M20.5,16.5c0.1,0,0.1,0,0.2,0c0,0.2,0.1,0.1,0.1,0
	c0.2-0.1,0-0.2,0,0c0,0-0.1,0-0.1,0C20.7,16.1,20.5,16.2,20.5,16.5C20.3,16.6,20.5,16.7,20.5,16.5z M20.2,9.8
	C20.1,9.7,20.3,9.9,20.2,9.8L20.2,9.8z M19.6,10.7C19.7,10.8,19.6,10.6,19.6,10.7L19.6,10.7z M19.5,24.3
	C19.6,24.4,19.4,24.3,19.5,24.3L19.5,24.3z M19,16.8C19.6,16.9,19.1,16.3,19,16.8C18.8,16.9,19,17,19,16.8z M18.9,17.8
	C19,17.9,18.8,17.7,18.9,17.8L18.9,17.8z M19.2,20.2C18.2,20,18.8,20.6,19.2,20.2L19.2,20.2z M18.4,17.7
	C18.6,18.2,18.6,17.1,18.4,17.7L18.4,17.7z M17.4,19.4C17.5,19.5,17.3,19.4,17.4,19.4L17.4,19.4z M16.6,15.1c0-0.2,0.3-0.3,0-0.4
	C16.6,14.9,16.4,15,16.6,15.1z M16.6,15.4C16.6,15.2,16.5,15.5,16.6,15.4C16.7,15.7,16.8,15.4,16.6,15.4z M15.9,17.4
	C15.8,17.3,16,17.5,15.9,17.4L15.9,17.4z M15.9,18.4c-0.3,0-0.1-0.6-0.4-0.6C15.3,18.2,15.6,18.9,15.9,18.4z M15.5,32.7
	C15.6,33.2,15.6,32.1,15.5,32.7L15.5,32.7z M14.9,31.3C15,31.4,14.8,31.3,14.9,31.3L14.9,31.3z M14.7,19.4
	C14.8,19.5,14.7,19.4,14.7,19.4L14.7,19.4z M14.1,19.7C13.9,19.8,14.1,19.9,14.1,19.7c0.3,0,0.4-0.1,0.4-0.3
	C14.3,19.4,14.1,19.5,14.1,19.7z M14.6,19c-0.1,0-0.3,0-0.3,0.1C14.4,19.1,14.6,19.1,14.6,19z M14.4,33.7c0.1,0,0.3,0,0.3-0.2
	C14.6,33.6,14.4,33.5,14.4,33.7z M14.4,16.5C14.4,16.4,14.5,16.6,14.4,16.5L14.4,16.5z M13.4,18.3c0,0.2,0,0.3,0.1,0.3
	c0.2-0.5,0.4-0.3,0.7-0.4c-0.4-0.5,0.7-0.9,0.1-1.5c-0.1,0.7-0.3-0.1-0.4-0.2c-0.3,0.2,0,1.1-0.4,0.6c0.2,0.4-0.4,0.6,0,0.7
	C13.5,18,13.6,18.2,13.4,18.3C13.3,18,13.2,18.3,13.4,18.3z M14,18.6C14.1,18.7,13.9,18.5,14,18.6L14,18.6z M13.8,34.7
	C13.9,34.8,13.8,34.7,13.8,34.7L13.8,34.7z M13.5,21.4C13.6,21.5,13.5,21.3,13.5,21.4L13.5,21.4z M13.4,19.3
	C13.3,19.2,13.5,19.4,13.4,19.3L13.4,19.3z M12.9,22.3c0.1,0,0.3,0,0.3-0.2C13.1,22.2,12.9,22.1,12.9,22.3z M12.9,36.1
	C12.9,36,13,36.2,12.9,36.1L12.9,36.1z M12.9,59.5C13.3,60.1,13.2,59,12.9,59.5L12.9,59.5z M13.2,58.9
	C13.2,58.9,13.2,58.9,13.2,58.9C13.2,58.9,13.2,58.9,13.2,58.9z M13.5,75.6C13.7,76.1,13.7,75,13.5,75.6L13.5,75.6z M13.7,73.5
	C13.6,73.4,13.8,73.6,13.7,73.5L13.7,73.5z M13.8,72.4C13.8,72.4,13.9,72.5,13.8,72.4L13.8,72.4z M13.8,58.5
	C13.8,58.4,13.9,58.6,13.8,58.5L13.8,58.5z M13.8,71.4C14,72,14,70.8,13.8,71.4L13.8,71.4z M14.1,70.4
	C14.1,70.3,14.2,70.5,14.1,70.4L14.1,70.4z M14.1,70.1C14.2,70.2,14.1,70,14.1,70.1L14.1,70.1z M14.1,68.9
	C14.3,69.5,14.3,68.3,14.1,68.9L14.1,68.9z M14.1,68.3C13.8,68.8,14.6,67.9,14.1,68.3L14.1,68.3z M14.1,58.9
	C14.1,58.9,14.2,59,14.1,58.9L14.1,58.9z M14.3,65.9C14.2,65.8,14.4,66,14.3,65.9L14.3,65.9z M14.3,56.3
	C14.2,56.2,14.4,56.4,14.3,56.3L14.3,56.3z M14.4,70.4C14.4,70.3,14.5,70.5,14.4,70.4L14.4,70.4z M14.6,70.7
	C14.7,70.8,14.5,70.6,14.6,70.7L14.6,70.7z M14.9,61.6C14.7,62.5,15,61,14.9,61.6L14.9,61.6z M15,72.3C15,72.2,15.1,72.4,15,72.3
	L15,72.3z M15.2,61.3C15.3,61.4,15.1,61.2,15.2,61.3L15.2,61.3z M15.6,72.4c0,0,0-0.1,0-0.1c0.2-0.1,0-0.2,0,0
	C15.2,72.3,15.4,72.5,15.6,72.4C15.7,73,16.3,72.4,15.6,72.4z M15.8,61.8c-0.2,0-0.1-0.3-0.3-0.3C15.3,61.8,15.7,62.2,15.8,61.8z
	 M16.2,73.8C16.1,73.7,16.3,73.9,16.2,73.8L16.2,73.8z M16.4,72.6C16.4,72.7,16.3,72.5,16.4,72.6L16.4,72.6z M16.8,74.2
	C17,74.1,16.8,74,16.8,74.2C16.4,74.2,16.9,74.8,16.8,74.2z M16.8,68.9C16.7,68.8,16.9,69,16.8,68.9L16.8,68.9z M17.8,75.3
	C17.8,75.2,17.9,75.4,17.8,75.3L17.8,75.3z M19,79c-0.1,0-0.3,0-0.3,0.1C18.8,79.1,19,79.1,19,79z M18.9,75.6
	C19,75.7,18.8,75.5,18.9,75.6L18.9,75.6z M18.9,75C18.8,74.9,19,75.1,18.9,75L18.9,75z M19,72.7C19.1,72.8,19,72.7,19,72.7L19,72.7z
	 M19.2,68.7C18.8,69.2,19.7,68.4,19.2,68.7L19.2,68.7z M19.6,69c-0.1,0-0.3,0-0.3,0.1C19.4,69.1,19.6,69.2,19.6,69z M19.6,79
	c0,0.1,0,0.3,0,0.4C20,79.6,20,78.7,19.6,79z M19.8,78.8C19.7,78.8,19.9,78.9,19.8,78.8L19.8,78.8z M19.8,77.5
	C19.7,77.4,19.9,77.6,19.8,77.5L19.8,77.5z M20.5,76.6c-0.5-0.1-0.2,0.5-0.4,0.6C20.6,77.3,20.5,77,20.5,76.6
	C20.7,76.5,20.5,76.4,20.5,76.6z M20.4,69c-0.1,0-0.3,0-0.3,0.1C20.2,69.1,20.4,69.2,20.4,69z M20.7,77.5
	C20.7,76.9,20.5,78.4,20.7,77.5L20.7,77.5z M20.8,75C20.4,75.5,21.4,75.4,20.8,75L20.8,75z M21.1,76.6C21.2,76.7,21,76.5,21.1,76.6
	L21.1,76.6z M21.8,77C21.9,77.1,21.8,77,21.8,77L21.8,77z M22.4,78.2c0-0.2-0.3-0.2-0.3,0C22.3,78.2,22.4,78.4,22.4,78.2z M23.2,80
	C23.1,79.9,23.3,80.1,23.2,80L23.2,80z M23.3,70.8C23.3,70.7,23.4,70.9,23.3,70.8L23.3,70.8z M23.5,85.9
	C23.4,85.9,23.6,86,23.5,85.9L23.5,85.9z M24.2,79.4C24.2,79.4,24.3,79.5,24.2,79.4L24.2,79.4z M24.4,79
	C24.5,79.1,24.3,78.9,24.4,79L24.4,79z M27.3,74.4c-0.4,0.1,0.1-0.7-0.4-0.4c-0.1,0.4-0.2,1,0.3,1C27.1,74.5,27.1,74.7,27.3,74.4z
	 M28.1,77.3C27.9,78.2,28.7,77.4,28.1,77.3L28.1,77.3z M28.7,81c0-0.1-0.3-0.2-0.3,0C28.5,81,28.6,81.3,28.7,81z M28.7,81.5
	C29,82.1,28.9,81,28.7,81.5L28.7,81.5z M28.8,78.2C28.9,78.3,28.8,78.2,28.8,78.2L28.8,78.2z M28.7,80.5
	C28.6,80.4,28.8,80.6,28.7,80.5L28.7,80.5z M30.5,88.2C29.5,88,30.1,88.6,30.5,88.2L30.5,88.2z M35.5,87.7
	C35.7,88.3,35.7,87.1,35.5,87.7L35.5,87.7z M36.5,88.6c-0.6-0.1-0.7,0.2-0.7,0.6c-0.4,0,0.1,0.6,0,0C36.4,89.3,36.4,88.9,36.5,88.6z
	 M36.1,87.6c0.1-0.1,0.3-0.8,0-0.9C36.1,86.9,35.7,87.4,36.1,87.6z M36.5,87.4c0.7-0.1,0.1-0.7,0.7-1c-0.6,0.2,0-0.7-0.6-0.4
	C36.6,86.7,36.8,86.9,36.5,87.4z M37,84C36.9,84,37.1,84.1,37,84L37,84z M36.8,88.6C36.8,88.6,36.9,88.7,36.8,88.6L36.8,88.6z
	 M37.4,87.3c-0.3-0.1-0.3,0.2-0.3,0.4c-0.6-0.4-0.7,0.5,0,0c0,0,0.1,0,0.1,0c0-0.1,0.1-0.1,0.2-0.1C37.4,87.5,37.4,87.4,37.4,87.3z
	 M39.1,87c-0.6,0.2-0.6,0-1.2,0.1c-0.1-0.2-0.2,0,0,0c-0.1,0.3-0.3,0.4-0.3,0.7C37.9,87.4,39.1,88,39.1,87z M37.6,85.4
	C37.7,85.4,37.5,85.3,37.6,85.4L37.6,85.4z M37.9,85.2C38,85.3,37.8,85.1,37.9,85.2L37.9,85.2z M40.8,83.7c-0.3-0.1-0.4,0.1-0.6,0.1
	c0-0.2,0-0.4-0.1-0.4c-0.3,0.8-2.1,0.8-1.8,1.6c0,0.2-0.1,0.6,0.1,0.6c0-0.4,0.2-0.5,0.6-0.4c0,0.1-0.1,0.1-0.1,0.3
	c-0.4-0.2-0.3,0.3-0.3,0.6c0.3,0,0.5-0.1,0.4-0.4c0.6,0.3,0.6-0.2,1,0c0.1,0.3-0.1,0.3-0.3,0.3c-0.1,0.5,0.5,0.2,0.1,0.6
	c0.9-0.4,1.6-1.5,1.8-2.1c0.9-0.3,1.1,0.4,1.5-0.1c-0.2,0-0.3,0-0.3-0.1c0.6,0.1,0.6-0.6,1-0.1c0.2-0.5-0.5-0.1-0.3-0.6
	c0.7,0.3,1.1-1,1.8-1.2c0.1,0.2,0.2,0,0,0c0,0,0-0.1,0-0.1c0.1-0.1,0.2-0.3,0.3-0.4c0.3-0.2,0.7-0.3,0.9-0.6
	c-0.3-0.2-0.8,0.1-0.9,0.6c-0.1-0.1-0.3-0.2-0.6-0.1c0.1-0.2,0.3-0.2,0.3-0.4c-0.3,0-0.4,0.3-0.4,0c0.1-0.5,0.9-0.3,0.9-1
	c-1.1,1-2.3,1.2-3.4,2.4c0-0.2,0-0.3-0.1-0.3c0,0.4-0.6,0.1-0.4,0.6c0.6,0.3,0.7-0.3,1.3-0.3c-0.2,0.3-0.3,0.8-0.9,0.7
	c0,0.2,0,0.4-0.1,0.4c0-0.3-0.5-0.1-0.7-0.1c0-0.2,0-0.4,0.1-0.4c0,0.1,0.2,0.1,0.3,0.1c0.1,0.2,0.2,0,0,0c0-0.1,0.1-0.1,0.1-0.3
	c-0.5,0.2-0.1-0.5-0.6-0.3C41.7,83.4,40.1,83.3,40.8,83.7z M43.4,81C43.5,81.6,43.5,80.5,43.4,81L43.4,81z M47.5,82.7
	c-0.1,0.7-0.9,0.9-1.3,1.3c0-0.5,0.4-1.2,0.9-0.9c0.2-0.6-0.6-0.1-0.6-0.4c0-0.3,0.1-0.4,0.3-0.4c0.1,0.2,0.2,0,0,0c0,0,0-0.1,0-0.1
	c-0.8,0-0.5,0.5-0.7,0.9c0-0.1-0.2-0.1-0.3-0.1c-0.1,0.4,0.2,0.4,0.1,0.7c-0.4,0-0.5-0.3-0.7,0c-0.2-1-0.7,0.5,0,0
	c0,0.3-0.2,0.3-0.2,0.6c-0.3-0.1-0.1-0.6-0.6-0.4c0,0.4,0,0.6,0,0.9c0-0.2,0.4-0.1,0.6-0.1c0-0.1,0-0.2,0-0.3c0.3,0,0.3,0.3,0.3,0.6
	c-0.2,0-0.4,0-0.6,0c0,0.2,0,0.4,0,0.6c0.5,0,0.7,0.3,0.9-0.1c0,0.2-0.1,0.6,0.2,0.6c0.2-0.1,0.3-0.2,0.7-0.3c0-0.6-0.1-0.9,0.4-0.6
	c0-0.2,0.1-0.6-0.1-0.6c0,0.2,0,0.3-0.2,0.3c0-0.7,1-0.5,1.2-1c0-0.1,0-0.2,0-0.3c0.2,0.3,0.4-0.2,0.4,0.1c-0.8,0.2-0.1,1.4-1,1.2
	c0,0.1,0,0.3,0,0.4c0.7,0.2,0.8-0.7,1.2-0.3c0.1-0.5-0.1-0.6-0.3-0.7c0.7,0,0.6-0.7,1.5-0.6c0.1-0.9,1-0.6,1.2-1c0,0,0.1,0,0.1,0
	c0.1,0.2,0.2,0,0,0c0-0.2-0.1-0.1-0.1,0c-0.1-0.1-0.3-0.1-0.3-0.3c0.5,0.1,0.5-0.2,0.9-0.1c0.1,0.2,0.2,0,0,0c0-0.1,0-0.2,0-0.3
	c-0.2-0.4-0.9-0.3-1,0.1c-0.6-0.2-0.3,0.4-0.6,0.4c-0.3-0.5-0.7,0.3-1,0.3c0-0.2,0-0.4,0-0.6c0.1,0,0.1,0,0.1,0c0,0.2,0,0.3,0.1,0.3
	c0.2-0.2,0.2-0.6-0.1-0.3c0-0.2-0.1-0.1-0.1,0c-0.8,0.1-0.8,0.9-0.9,1.3C47.4,83.4,47.9,82.6,47.5,82.7z M47.8,80.3
	C47.8,80.2,47.9,80.4,47.8,80.3L47.8,80.3z M49.8,80.8c0.1,0.1,0.2,0.2,0.4,0.1c0.1,0.3-0.1,0.4-0.2,0.6c0.4,0.2,0.4-0.6,0.2-0.6
	c-0.1-0.3,0.3-0.2,0.3-0.4c0,0,0.1,0,0.1,0c0-0.2,0-0.4,0-0.6c-0.4-0.1-0.3,0.3-0.4,0.4c0.2,0,0.3,0,0.3,0.1
	C50.1,80.4,49.9,80.5,49.8,80.8z M49.9,79.7C50,79.8,49.8,79.7,49.9,79.7L49.9,79.7z M50.5,81.2c1.2-0.4,2-0.7,2.7-1.3
	c0.4,0,0.4,0.4,0.6,0.6c-0.2-0.5,0.2-0.4,0.3-0.6c0.5,0.1,0.3-0.4,0.6-0.4c0,0.2,0,0.3,0.1,0.3c0.1-0.3,0.7-0.2,0.6-0.7
	c-0.6,0.2-0.3-0.4-0.7-0.3c0,0.2,0.1,0.3,0.1,0.4c-0.4,0.1-0.7,0.3-0.7,0.7c-0.5-0.1-0.6,0-1-0.3c0,0,0-0.1,0-0.1
	c0.2,0,0.3-0.1,0.4-0.1c0.1,0.2,0.2,0,0,0c0.1-0.3-0.7-0.2-0.4,0.1c-0.1,0-0.1,0-0.1,0c0,0,0-0.1,0-0.1
	C51.3,79.4,50.9,80.2,50.5,81.2z M51.8,79.3C51.9,79.4,51.8,79.2,51.8,79.3L51.8,79.3z M52.7,79C52.1,78.4,52.4,79.4,52.7,79
	L52.7,79z M53.2,78.8C53.3,79.4,53.3,78.2,53.2,78.8L53.2,78.8z M53.8,79C53.9,79.1,53.7,78.9,53.8,79L53.8,79z M54.4,78.5
	C54.4,78.6,54.3,78.5,54.4,78.5L54.4,78.5z M55.2,78.4C55.4,79,55.4,77.8,55.2,78.4L55.2,78.4z M55.4,80.5
	C55.3,80.4,55.5,80.6,55.4,80.5L55.4,80.5z M55.1,80.5C55.3,81,55.3,79.9,55.1,80.5L55.1,80.5z M53,80.2
	C52.7,80.7,53.5,79.8,53,80.2L53,80.2z M52.1,81c-0.5-0.3-0.6,0.5-0.3,0.6C51.7,81.2,52.1,81.3,52.1,81C52.9,81.2,52.3,80.6,52.1,81
	z M52.4,81.5C51.8,81.3,52.4,81.9,52.4,81.5C52.6,81.4,52.4,81.3,52.4,81.5z M49.6,81.2C49.8,81.7,50,80.6,49.6,81.2L49.6,81.2z
	 M49.8,79.9c-0.1,0.1-0.2,0.2-0.2,0.4c-0.1,0-0.1,0-0.1,0c-0.1,0.1-0.2,0.4,0,0.4c0.1-0.1,0.2-0.2,0.1-0.4c0.1,0,0.1,0,0.2,0
	C49.9,80.2,50,79.9,49.8,79.9z M49.3,81.2C49.5,81.8,49.5,80.6,49.3,81.2L49.3,81.2z M50.2,83.3C50.1,83.2,50.3,83.4,50.2,83.3
	L50.2,83.3z M49,83.9C48.9,83.8,49.1,84,49,83.9L49,83.9z M44.9,85.8C44.6,85.9,44.9,86,44.9,85.8C45.5,85.9,44.9,85.4,44.9,85.8z
	 M44.3,86.2C44.1,86.9,44.7,86.3,44.3,86.2C44.2,86,44.1,86.3,44.3,86.2z M44.3,85.9C44.2,85.9,44.4,86,44.3,85.9L44.3,85.9z
	 M44.4,85.6C44.3,85.6,44.5,85.7,44.4,85.6L44.4,85.6z M44.6,84.9c-0.6,0.3-1.6,0.3-1.9,0.9c0.1,0,0.2,0,0.3,0
	C43.6,86.5,44.2,85.6,44.6,84.9z M42.6,85.2C43.2,85.3,42.7,84.8,42.6,85.2c-0.2-0.2-0.6-0.1-1-0.1c0.1,0.5-0.6,1-0.3,1.2
	c0-0.3,0.5-0.1,0.4-0.4c-0.2,0.1,0-0.6,0.1-0.6C41.9,85.2,42.5,85.4,42.6,85.2z M42,86.7C42,86.6,42.1,86.8,42,86.7L42,86.7z
	 M41.7,86.7C41.7,86.6,41.8,86.8,41.7,86.7L41.7,86.7z M43.2,85.1C43.3,85.2,43.2,85,43.2,85.1L43.2,85.1z M43.5,84.9
	C43.6,85,43.5,84.8,43.5,84.9L43.5,84.9z M44.1,84.8c0-0.1-0.3-0.2-0.3,0C44,84.7,44,85,44.1,84.8z M45.3,83
	C45.4,82.4,44.9,82.9,45.3,83c0.1,0.7,0.6-0.1,0.2-0.3C45.5,82.9,45.4,82.9,45.3,83z M45.7,82.4C45.7,82.3,45.8,82.5,45.7,82.4
	L45.7,82.4z M46,81.8C46.1,81.9,46,81.7,46,81.8L46,81.8z M47.1,81.5c0,0.2-0.4,0.1-0.4,0.3C46.8,82.2,47.5,81.7,47.1,81.5z
	 M40.1,87c0.1,0,0.6,0.4,0.6,0c-0.3,0-0.3-0.2-0.6-0.1c0-0.2-0.2-0.1-0.2,0c0,0-0.1,0-0.1,0C39.6,87.3,40.2,87.5,40.1,87z
	 M39.2,86.1c0,0.3,0,0.6,0.3,0.6C39.5,86.4,39.5,86.1,39.2,86.1z M38.2,86.2c0.1,0,0.3,0,0.3-0.1C38.4,86.1,38.2,86.1,38.2,86.2z
	 M38.9,88.8C39,88.9,38.9,88.7,38.9,88.8L38.9,88.8z M39.4,88.8C39.3,88.7,39.5,88.9,39.4,88.8L39.4,88.8z M40.1,87.9
	C40,87.8,40,87.9,40,88c-0.1,0-0.1-0.1-0.3-0.1c-0.1,0.3-0.5,0.2-0.6,0.6c0.3,0,0.6,0,0.9,0c0.1,0.2,0.2,0,0,0c0-0.1,0-0.3,0-0.4
	C40.1,88.1,40.1,88,40.1,87.9C40.3,87.8,40.1,87.7,40.1,87.9z M44.7,87.4C45.1,88,44.9,86.9,44.7,87.4L44.7,87.4z M45.7,85.9
	c-0.3,0.5-1.1,0-1.2,0.6c0,0.5,0.4-0.4,0.4,0.1c-0.2,0.2-0.8,0.2-1,0c-0.1-0.2-0.2,0,0,0c0,0.3-0.4,0.2-0.3,0.6c-0.1,0-0.2,0-0.3,0
	c0,0,0,0,0,0c0,0,0,0,0,0c-1.2,0.1-2.6,0.4-3.1,1c0.9,0,2.5-0.3,3.1-1c0,0,0,0,0,0c-0.2,0.3,0.5,0.4,0.5,0.1c0.1,0.1,0.7,0.3,0.7,0
	c-0.3,0.1-0.5,0-0.4-0.3c0.4,0,1,0.1,1-0.3c-0.1,0-0.1-0.1-0.2-0.1c0.5,0.1,0.4-0.3,0.9-0.1C45.9,86.3,46,86,45.7,85.9z M47.7,90.4
	c-0.1,0-0.3,0-0.3,0.1C47.5,90.5,47.7,90.5,47.7,90.4z M47.7,88.2C47.5,88.3,47.7,88.3,47.7,88.2C47.9,88.1,47.7,88,47.7,88.2z
	 M48.4,85.9c0.1-0.3,0.3-0.5,0.4-0.7c-0.8-0.5-1,0.6-1.6,0.3c-0.1,0.2-0.1,0.6-0.6,0.4c0-0.1,0.2-0.1,0.2-0.3
	c-0.4,0-0.5,0.2-0.6,0.4c0.2,0,0.3-0.1,0.4-0.1c0,0.2-0.1,0.6,0.2,0.6c-0.2-0.4,0.5-0.4,0.3,0C47.8,86.4,47.5,85.5,48.4,85.9z
	 M48.7,86.1C48.8,86.2,48.6,86,48.7,86.1L48.7,86.1z M48.9,88c-0.1,0-0.3,0-0.3,0.1C48.7,88.1,48.9,88.2,48.9,88z M48.9,85.8
	C49,85.9,48.8,85.7,48.9,85.8L48.9,85.8z M49.6,84.3c-0.2,0-0.3-0.2-0.6-0.1C48.8,84.6,49.6,84.6,49.6,84.3z M51.5,90.7
	c-0.2,0.1-0.8-0.2-0.7,0.1c-0.4,0.1-1.4-0.3-1.2,0.4c0.5-0.3,0.9,0,1.2-0.4C51.2,90.9,51.3,91,51.5,90.7z M50.3,85.6
	C50.3,85.6,50.4,85.7,50.3,85.6L50.3,85.6z M51.7,85.1C51.5,85.1,51.7,85.2,51.7,85.1C51.9,85,51.7,84.9,51.7,85.1z M52.1,90.5
	c-0.1,0-0.3,0-0.3,0.1C51.9,90.7,52.1,90.7,52.1,90.5z M52.6,84C52.5,84,52.7,84.1,52.6,84L52.6,84z M53.6,90.8
	c-0.2,0-0.4,0-0.4,0.1C53.3,91,53.6,91,53.6,90.8z M55.4,83.6C55.5,83.7,55.3,83.5,55.4,83.6L55.4,83.6z M56.6,90.7
	C56.7,90.8,56.5,90.6,56.6,90.7L56.6,90.7z M56.9,90.2C56.8,90.2,57,90.3,56.9,90.2L56.9,90.2z M57.2,82.4c-0.9,0-1.6,0-1.6,0.4
	c-0.6-0.1-0.4,0.6-1,0.4c0.1-0.5-0.4-0.3-0.4-0.6c0.2,0,0.4,0,0.4-0.1c0.2,0,0.3,0.1,0.4,0.1c0-0.4,0.5-0.8,0.9-0.4
	c0.2-0.3,0-0.2,0-0.6c0.4,0.3,1-0.2,1.2-0.6c-0.2,0-0.6,0.1-0.6-0.1c0.2,0,0.4,0,0.4-0.1c-0.5,0.2-0.1-0.5-0.4-0.4
	c-0.4,0.1-0.9,0.4-1.5,0.6c-0.1-0.2-0.2,0,0,0c0.1,0.3-0.2,0.3-0.4,0.3c-0.2-0.4,0.4-0.6,0-0.7c-0.1,0.4-0.8,0.2-0.7,0.7
	c0.3,0.1,0.5-0.4,0.6,0c-0.3,0.3-0.5,0.3-0.9,0.2c0.1-0.5-0.7-0.3-0.6,0c0.4,0,0.3-0.2,0.6,0c-0.8,0.4-1.6,0.9-2.4,1.5
	c0,0.1,0,0.2,0,0.3c-0.2,0-0.1-0.3-0.3-0.3c-0.1,0.1-0.2,0.3-0.2,0.6c-0.3-0.1-0.5,0-0.4,0.3c-1.1,0.2,0,0.3,0.4,0.4
	c0-0.1,0.1-0.1,0.2-0.1c-0.1,0.3-0.3,0.6-0.4,0.9c0-1.1-0.7,0.4-1.2-0.3c0.2,0.6-0.4,0.9,0.2,1c-0.1-0.3,0.2-0.3,0.4-0.3
	c0,0.1,0,0.2,0,0.3c-0.2,0.1,0,0.2,0,0c0.3,0.1,0.5,0,0.4-0.3c0.4-0.1,0.4-0.5,0.7,0c0-0.2,0-0.4,0.1-0.4c0,0.3,0.1,0.4,0.3,0.4
	c-0.2-0.5,0.1-0.8,0.7-0.7c-0.1-0.3-0.3-0.5-0.6-0.6c0.8-0.4-0.5-0.4,0,0c0,0,0,0.1,0,0.1c-0.2,0-0.3-0.1-0.4-0.1
	c0,0.2,0,0.3-0.1,0.3c0-0.2,0-0.3-0.1-0.3c-0.4-0.4,0.6-0.4,0.9-0.6c0.1,0.2,0.2,0,0,0c0-0.1,0.2-0.1,0.3-0.1c0,0.2,0.1,0.1,0.1,0
	c0.5-0.1,1.1,0,0.7-0.6c0.2,0,0.3-0.1,0.4-0.1c0,0.2,0,0.4,0.1,0.4c0.1-0.1,0.1-0.3,0.3-0.3c0,0.1,0.2,0.1,0.1,0.3
	c-0.2,0-0.3,0-0.3,0.1c-0.2,0-0.4,0-0.4,0.2c-0.4,0-0.6,0.1-0.7,0.3c-0.2,0-0.4,0-0.4,0.1c0.1,0.1,0.5,0.3,0.4-0.1
	c0.4,0,0.7,0,0.7-0.3c0.1,0,0.1,0.1,0.3,0.1c0-0.1,0.2-0.1,0.2-0.3c0.2,0.1,0.2,0.3,0.4,0.3c0-0.2,0-0.4,0.2-0.4
	c-0.1,0.3,0.1,0.3,0.3,0.3c0,0.5-0.9,0.2-0.9,0.7c-0.2,0.1,0,0.2,0,0c0.9,0.1,1.4-0.4,1.8-0.9c0.4-0.1,0.3,0.3,0.7,0.2
	c0-0.3,0.2-0.3,0.1-0.6c0.2,0.1,0.2,0.3,0.4,0.3c0-0.1,0-0.2,0-0.3C57,82.7,57.1,82.6,57.2,82.4z M55.5,79.1
	C55.6,79.2,55.5,79.1,55.5,79.1L55.5,79.1z M55.7,79.9C55.8,80,55.6,79.8,55.7,79.9L55.7,79.9z M55.7,78.4
	C55.6,78.3,55.8,78.5,55.7,78.4L55.7,78.4z M56.7,77.9c-0.3,0-0.5,0.1-0.6,0.3C56.5,78.3,56.7,78.2,56.7,77.9z M56.7,79
	C56.8,79.1,56.7,78.9,56.7,79L56.7,79z M56.1,82.1c0.2,0,0.2,0.2,0.3,0C56.4,81.9,56.2,81.9,56.1,82.1z M55.2,82.4
	C55.4,83,55.4,81.8,55.2,82.4L55.2,82.4z M54.6,83C54.8,83.6,54.8,82.4,54.6,83L54.6,83z M57.2,81.6c0,0.3-0.4,0.2-0.3,0.6
	c0.1,0,0.2,0,0.3,0c0.1,0,0.2,0,0.1-0.1C56.9,82.1,57.7,81.7,57.2,81.6z M57.8,81c-0.2-0.5-0.1-0.4,0.1-0.7c-0.5-0.1-0.5,0.3-0.7,0
	c0,0.1-0.4,0.6,0,0.6c0.4-0.7-0.1,0.3,0.1,0.4C57.4,81.1,57.6,81.2,57.8,81z M57.5,78.7C57.4,78.6,57.6,78.8,57.5,78.7L57.5,78.7z
	 M57.5,77.5c-0.3-0.1-0.7,0.4-0.3,0.4C57.2,77.7,57.4,77.7,57.5,77.5z M58.1,80.5c0,0.1,0,0.2-0.1,0.1c0,0.1,0,0.2,0,0.3
	C58.3,81.1,58.4,80.4,58.1,80.5z M58.1,77.3C57.7,77.8,58.6,77,58.1,77.3L58.1,77.3z M58.2,80.2C58.4,80.7,58.4,79.6,58.2,80.2
	L58.2,80.2z M58.7,84.8c-0.2,0-0.4,0-0.4,0.1C58.4,84.9,58.6,84.9,58.7,84.8z M58.7,82.8C58.8,82.9,58.6,82.8,58.7,82.8L58.7,82.8z
	 M59.7,84.5C59.1,84.5,59.7,85.1,59.7,84.5C59.9,84.4,59.7,84.3,59.7,84.5z M60.3,84.9C60.2,84.8,60.4,85,60.3,84.9L60.3,84.9z
	 M60.6,83.7c-0.3,0.1-0.8,0-0.7,0.4c0.1,0,0.2,0,0.3,0c0,0.2,0.1,0.1,0.1,0C60.6,84.2,60.6,84,60.6,83.7z M60.4,81.5
	C60.4,81.4,60.5,81.6,60.4,81.5L60.4,81.5z M61.2,78.5C61.4,79.1,61.4,77.9,61.2,78.5L61.2,78.5z M62.1,84.9c-0.1,0-0.3,0-0.3,0.1
	C61.9,85,62.1,85.1,62.1,84.9z M62.4,75.3C62.6,75.2,62.4,75.1,62.4,75.3C61.8,75.1,62.3,75.7,62.4,75.3z M62.4,75.9
	C62.5,75.9,62.3,75.8,62.4,75.9L62.4,75.9z M62.5,80C62.4,79.8,62.3,80,62.5,80C62.5,80.5,63.1,79.9,62.5,80z M62.8,78.8
	C62.7,78.8,62.9,78.9,62.8,78.8L62.8,78.8z M63,80C62.9,79.9,63.1,80.1,63,80L63,80z M64,79.6c-0.3,0-0.2-0.4-0.4-0.4
	c0.1,0.5-0.7,0.1-0.6,0.6C63.3,79.4,63.8,79.8,64,79.6z M63.4,78.7c0-0.1,0-0.2,0-0.3c-0.1,0-0.2,0-0.3,0c0,0.1,0,0.2,0,0.3
	C63.2,78.7,63.3,78.7,63.4,78.7z M63.6,78.4C63.5,78.3,63.7,78.5,63.6,78.4L63.6,78.4z M65,77.6C65,77.6,65.1,77.7,65,77.6L65,77.6z
	 M65,73.5C65,73.4,65.1,73.6,65,73.5L65,73.5z M64.9,78.4c0.1,0,0.3,0,0.3-0.1C65.1,78.3,64.9,78.2,64.9,78.4z M65,78.7
	C65,78.6,65.1,78.8,65,78.7L65,78.7z M64.9,76.4C65,76.5,64.8,76.4,64.9,76.4L64.9,76.4z M64.4,79.1c-0.2,0-0.3,0-0.3,0.1
	c-0.2,0.1,0,0.2,0,0C64.3,79.3,64.4,79.2,64.4,79.1c0.4,0,0.6-0.1,0.7-0.3C64.8,78.8,64.6,78.9,64.4,79.1z M64.7,80.3
	C64.5,80.4,64.8,80.5,64.7,80.3C65,80.2,64.7,80.1,64.7,80.3z M64.6,81.5C64.5,81.4,64.7,81.6,64.6,81.5L64.6,81.5z M64.3,77.8
	c0-0.2-0.4-0.2-0.4,0c-0.2,0.1,0,0.2,0,0C64,77.8,64.1,77.8,64.3,77.8C64.4,78,64.5,77.8,64.3,77.8z M63.4,79.9
	C63.5,80,63.3,79.8,63.4,79.9L63.4,79.9z M63.9,82.7c1.3-0.1,1.8-0.9,2.7-1.5C65.5,81.5,64.4,81.9,63.9,82.7
	c-0.3,0.1-0.6,0.3-0.6,0.7C63.7,83.4,63.8,83,63.9,82.7z M65.3,77.2c0,0.1,0,0.2,0,0.3c0.2,0,0.3,0,0.4,0
	C65.8,77.2,65.6,77.1,65.3,77.2z M65.8,76.7C66,76.6,65.8,76.6,65.8,76.7C65.6,76.8,65.8,76.9,65.8,76.7z M66.2,77.2
	c0.1-0.1,0.4-0.1,0.4-0.3c0.2-0.1,0.4-0.2,0.4-0.4c0.3,0,0.5-0.1,0.6-0.3c-0.3,0-0.6,0-0.6,0.3c-0.1,0-0.3,0-0.4,0
	c0,0.1,0,0.3,0,0.4C66.4,76.8,66.2,76.9,66.2,77.2C66,77.3,66.2,77.4,66.2,77.2z M66.2,74.8C66.2,74.7,66.3,74.9,66.2,74.8
	L66.2,74.8z M66.5,74.8C66.5,74.7,66.6,74.9,66.5,74.8L66.5,74.8z M66.8,74.7C66.9,74.8,66.8,74.6,66.8,74.7L66.8,74.7z M67.6,75.7
	C67.5,75.6,67.7,75.8,67.6,75.7L67.6,75.7z M67.6,75.1c-0.1,0-0.3,0-0.3,0.1C67.4,75.2,67.6,75.3,67.6,75.1z M67.4,73.9
	C67.1,74.4,67.9,73.6,67.4,73.9L67.4,73.9z M67.4,72.9c-0.1,0-0.3,0-0.3,0.2C67.2,73,67.4,73,67.4,72.9z M66.5,78.1
	C66.3,78.2,66.5,78.3,66.5,78.1C66.7,78,66.5,77.9,66.5,78.1z M66.2,77.6C66.3,77.7,66.2,77.6,66.2,77.6L66.2,77.6z M65.9,78.4
	c0.1,0,0.3,0,0.3-0.1C66.1,78.3,65.9,78.2,65.9,78.4z M65.8,82.1C65.7,82,65.9,82.2,65.8,82.1L65.8,82.1z M63.6,83.7
	C63.5,83.7,63.7,83.8,63.6,83.7L63.6,83.7z M66.4,83.3C66.3,83.2,66.5,83.4,66.4,83.3L66.4,83.3z M67.3,82.5c-0.3,0-0.6,0-0.6,0.3
	C67,82.9,67.2,82.8,67.3,82.5z M67.7,83.7c-0.1,0-0.3,0-0.3,0.1C67.5,83.8,67.7,83.9,67.7,83.7z M68.9,81.8
	C68.8,81.7,69,81.9,68.9,81.8L68.9,81.8z M69.3,83.4c-0.1,0-0.3,0-0.3,0.1C69.2,83.5,69.3,83.6,69.3,83.4z M69.9,80
	c-0.1,0.1-0.1,0.4-0.3,0.4c-0.9-0.5-2.2,0-3,0.6c-0.1-0.2-0.2,0,0,0c0,0.2,0,0.3,0.1,0.3c0.3-0.2,0.4-0.1,0.9-0.3
	c-1.2,1.3-2.3,1.2-3.6,2.2c0-0.2,0-0.4-0.1-0.4c0,0.3-0.2,0.3-0.1,0.6c1.5-0.1,2.1-0.8,3.4-1.3c-0.1,0.3,0.1,0.3,0.3,0.3
	c-0.1-0.3,0.3-0.2,0.3-0.4c0.6-0.1,0.9-0.5,1.2-1c0.1,0,0.1,0.1,0.1,0.1c-0.2,0.1,0,0.2,0,0C69.9,81.1,70.5,80.3,69.9,80z
	 M67.9,72.7C67.6,72.8,67.9,72.9,67.9,72.7C68.3,72.7,67.7,72.1,67.9,72.7z M67.9,73.8C67.8,73.7,68,73.9,67.9,73.8L67.9,73.8z
	 M68.5,80.2C68.6,80.3,68.4,80.1,68.5,80.2L68.5,80.2z M70.4,80.5C70.3,80.4,70.5,80.6,70.4,80.5L70.4,80.5z M71.6,84.3
	C71.5,84.2,71.7,84.4,71.6,84.3L71.6,84.3z M72.3,83.7C72.1,83.8,72.3,83.9,72.3,83.7C72.5,83.6,72.3,83.5,72.3,83.7z M74.1,79.1
	C74.2,79.2,74,79.1,74.1,79.1L74.1,79.1z M74.4,78.4c-1.2,0.7-1.3,1.2-2.5,1.5c0,0.2-0.1,0.6,0.1,0.6c0.2-0.1,0-0.5,0.4-0.4
	c0,0.4,0.2,0.3,0.2,0c0.3-0.1,0.4-0.5,0.7-0.1C73.7,79.3,74.1,78.9,74.4,78.4z M72.3,72.9c-0.1,0-0.3,0-0.3,0.2
	C72.1,73,72.3,73,72.3,72.9z M72.9,78.1C73.1,78.7,73.1,77.5,72.9,78.1L72.9,78.1z M73.8,78.2C73.9,78.3,73.7,78.2,73.8,78.2
	L73.8,78.2z M73.8,65C74,65.6,74,64.4,73.8,65L73.8,65z M74.2,72.7C74.3,72.8,74.2,72.7,74.2,72.7L74.2,72.7z M74.7,72.1
	C74.6,72.1,74.8,72.2,74.7,72.1L74.7,72.1z M75.9,74.8C76,74.9,75.8,74.7,75.9,74.8L75.9,74.8z M77.4,70.4
	C77.5,70.5,77.3,70.3,77.4,70.4L77.4,70.4z M77.4,60.4C77.5,60.5,77.3,60.4,77.4,60.4L77.4,60.4z M78,69.6
	C77.9,69.6,78,69.7,78,69.6L78,69.6z M79.4,46c0-4.8-1-9.3-2.9-13.5c0-0.2,0.1-0.5,0-0.2c0,0.1,0,0.1,0,0.2
	c-0.1-0.1-0.1-0.3-0.2-0.4c0.2-0.1,0.3-0.2,0.4-0.3c-0.1,0-0.1-0.2-0.1-0.3c-0.3-0.1-0.3,0.1-0.4,0.2c-0.1-0.2-0.2-0.4-0.3-0.6
	c-0.1-0.6-0.3-1.1-0.7-1.5c0,0.1,0,0.2,0,0.3c-0.2-0.3-0.3-0.6-0.5-0.9c0-0.2,0-0.4-0.2-0.6c0,0,0,0-0.1,0c-0.2-0.3-0.3-0.5-0.5-0.8
	v0h0c-0.1-0.1-0.1-0.2-0.2-0.3c0.1,0,0.1,0,0.2-0.1c-0.2,0-0.4-0.5-0.6-0.4C68,19.3,59.5,14,49.7,13c0,0,0,0,0,0c-0.1,0-0.1,0-0.2,0
	c-1.1-0.1-2.3-0.2-3.4-0.2c-0.6,0-1.1,0-1.6,0.1c0-0.1,0-0.1-0.1,0c-0.8,0-1.6,0.1-2.3,0.2c0.2-0.2,0.7-0.3,0.4-0.5
	c-0.4,0.6-0.6-0.1-1-0.3c0,0.4,0.2,0.3,0,0.6c-0.2,0-0.3-0.6-0.4-0.1c-0.1,0-0.1,0.1-0.1,0.1c-0.2,0-0.3,0-0.3,0.1
	c-0.4,0-0.3,0.2,0,0.1c0,0.1-0.1,0.1-0.1,0.2c-0.1,0-0.2,0-0.3,0c-0.6-0.1-0.7,0-0.6,0.1c-1.2,0.3-2.4,0.6-3.6,1
	c0.3-0.4,0.9,0.1,1-0.6c-0.4,0-1.5,0.5-1.2,0.7c-0.6,0.2-1.2,0.4-1.8,0.7c0,0,0,0,0,0c0.2-0.1,0-0.2,0,0c0,0,0,0,0,0
	c-0.9,0.4-1.8,0.8-2.6,1.2c0,0,0,0,0,0c0,0-0.1,0-0.1,0.1c-0.2,0.1-0.3,0.2-0.5,0.2c0,0,0,0-0.1,0c0,0,0,0,0,0.1
	c-0.6,0.3-1.2,0.7-1.8,1c-0.1-0.2-0.4,0.1-0.2,0.1c-0.1,0-0.1,0.1-0.2,0.1c0,0,0,0,0,0c0,0,0,0,0,0c-0.1,0-0.1,0.1-0.2,0.1
	c0-0.1,0-0.2,0-0.3c-0.1,0-0.2,0-0.3,0c0,0.1,0,0.2,0,0.3c0.1,0,0.2,0,0.2,0c-0.4,0.3-0.8,0.5-1.2,0.8c-0.1,0-0.2-0.1-0.2-0.1
	c0,0.1,0,0.1,0.1,0.2c-0.4,0.3-0.7,0.5-1,0.8c0-0.1-0.1-0.1-0.2-0.1c0,0.1-0.2,0.1-0.3,0.1c0,0.1,0.1,0.2,0,0.3
	c-0.2,0.2-0.5,0.4-0.7,0.6c-0.2,0.1-0.4,0.3-0.6,0.5c-1.8,1.6-3.4,3.3-4.8,5.3L19,26.3L18.4,26h-1.2v2h0.9l0.1,0
	c-3.3,5.2-5.3,11.4-5.3,18c0,16.1,11.5,29.6,26.8,32.6c-0.1,0.2-0.2,0.3-0.5,0.3c0.5-0.5-0.5-0.3,0,0c0,0.3-0.1,0.4-0.3,0.4
	c0-0.2,0-0.4-0.1-0.4c-0.7,0.4-1.4,0.6-1.9,0.7c-0.1-0.2-0.2,0,0,0c0,0,0,0.1,0,0.1c-0.3,0.3-0.5,0-0.7-0.1c-0.3,0.7-1.2,0.7-1.8,1
	c-0.8,0-2.8,0.6-4,0.3c-0.2,0.6,0.6,0.1,0.6,0.4c-0.1,0.3-0.7,0-0.7,0.3c0.1,0,0.1,0.1,0.3,0.1c-0.3,0.6,0.3,2.3-0.1,3.1
	c-0.2,0-0.4,0-0.4-0.1c0.3-0.3,0.2-0.8-0.1-0.9c0.8-0.2,0.1-1,0.3-1.8c-0.3-0.1-1.2-0.4-1.3-0.1c0.4,0.1-0.1,0.5,0,0.7
	c0.6,0.4,0.3,1.6,0.9,1.8c-0.5,1-0.3,2,0,3.3c1.5,0.5,3.3,0.4,4.3,0.3c0-0.2-0.1-0.3-0.1-0.4c0.3,0,0.4-0.1,0.4-0.3
	c-0.5,0.1-0.1-0.7,0.1-0.7c0.4,0.2-0.3,0.6,0.1,0.7c0.1-0.4,0.4-0.3,0.6-0.7c0.3,0.4-0.3,0.5-0.2,1.2c0.8-0.6,1.1-1.6,1.3-2.4
	c-0.2-0.1-0.4-0.2-0.6-0.3c-0.1,0.2-0.1,0.6-0.4,0.6c-0.1-0.5-0.7-0.2-0.9,0c0.5-0.2,0.6,0.8,0.3,0.9c-0.5,0.1-0.1-0.7-0.4-0.7
	c-0.4-0.8-1.1,0.9-1.8,0.3c0.4-0.2,0.5-0.7,1-0.4c0.1-0.4-0.3-0.3-0.2-0.7c0.5,0.1,0.4-0.8,0.9-0.3c0.3-0.7,0.2-1,0.1-1.9
	c0.6,0.1,0.3,1.1,0.6,1.5c0.2-0.2,0.2-0.6,0.4-0.7c0.1,0.2,0.2,0,0,0c-0.1-0.3-0.6-0.7,0-0.9c0.1,0.6,0.5,1,1,1.2
	c0-0.2-0.1-0.3-0.1-0.4c0.3-0.1,0.3,0.1,0.3,0.3c0.7-0.1,0.9-0.6,1.3-0.9c0.2-0.1,0-0.2,0,0c-0.1,0-0.1-0.2-0.1-0.3
	c0.1-0.1,0.3-0.2,0.6-0.1c0.8,0.8,1.1,0,1.2-0.4c0.4,0.2,1.5-0.3,1.8-0.7c0.1,0,0.2,0.2,0.3,0.2c0.1-0.5,0.9-0.3,0.9-0.9
	c0.2,0,0.3,0.1,0.4,0.1c-0.1-0.4,0.3-0.3,0.3-0.6c-0.4,0-0.8,0-0.7,0.4c-0.2,0-0.1-0.3-0.1-0.4c-0.4,0.1-0.5,0.2-0.7-0.1
	c0.9-0.7,1.2-0.2,2.4-0.4c0-0.1,0-0.2,0-0.2c0.1,0,0.2,0,0.3,0c0,0,0,0,0,0c0.2,0.1,0.2,0,0.3,0c0.5,0,1.1,0,1.7,0
	c2.6,0,5-0.3,7.4-0.8c-0.1,0.1-0.1,0.1-0.1,0.2c0.3,0,0.6-0.1,0.5-0.3C68.6,74.8,79.4,61.7,79.4,46z M35.4,84
	C35.4,84.1,35.3,84,35.4,84L35.4,84z M34.9,84.6C35,84.7,34.8,84.5,34.9,84.6L34.9,84.6z M29.6,80.3C29.8,80.2,29.5,80.1,29.6,80.3
	c-0.2,0-0.4,0-0.6,0c0.2,0.5,0,0.6,0.1,0.9c-0.2,0-0.1,0.2,0,0.2c0.1,0.1,0.2,0.3,0.1,0.6c0.2,0,0.4,0,0.6,0
	c0.1-0.6-0.2-0.7-0.7-0.6c0-0.1,0-0.1,0-0.2c0.3,0,0.6,0,0.6-0.3C29,80.8,29.5,80.7,29.6,80.3z M29.7,77.9
	C29.8,78,29.6,77.9,29.7,77.9L29.7,77.9z M32.7,76.4C32.6,76.4,32.8,76.5,32.7,76.4L32.7,76.4z M79,56.6
	C78.9,56.5,79.1,56.7,79,56.6L79,56.6z M78.7,54C78.6,54,78.8,54.1,78.7,54L78.7,54z M78.7,59.7c0.1,0.4-0.7-0.1-0.4,0.4
	C78.8,60.3,79.3,59.8,78.7,59.7z M79.4,73.6c-0.1,0-0.2,0-0.3,0c0.1-0.1,0.2-0.2,0.1-0.4c-0.1,0-0.3,0-0.4,0c0,0.2,0,0.3,0,0.4
	c0.1,0,0.2,0,0.3,0c0,0.5-1.1,0.5-0.4,1C78.9,74.3,79.4,74.2,79.4,73.6z M79.4,69.6C79.4,69.6,79.5,69.7,79.4,69.6L79.4,69.6z
	 M79.4,39.5C79.4,39.4,79.5,39.6,79.4,39.5L79.4,39.5z M79.4,36.1C79.4,36,79.5,36.2,79.4,36.1L79.4,36.1z M79.6,51.1
	C79.7,51.2,79.5,51,79.6,51.1L79.6,51.1z M79.7,51.5C79.9,52.1,79.9,50.9,79.7,51.5L79.7,51.5z M79.9,22C80,22.1,79.8,21.9,79.9,22
	L79.9,22z M79.9,51.2C80,51.3,79.8,51.1,79.9,51.2L79.9,51.2z M80,48.4C80,48.3,80.1,48.5,80,48.4L80,48.4z M80.2,47.2
	c0-0.2-0.3-0.2-0.3,0C80.1,47.2,80.1,47.4,80.2,47.2z M80.2,16.6C80.3,16.7,80.1,16.6,80.2,16.6L80.2,16.6z M80.3,44.4
	c0.1,0,0.3,0,0.3-0.1C80.5,44.3,80.3,44.2,80.3,44.4z M80.6,49.7C80.6,49.7,80.7,49.8,80.6,49.7L80.6,49.7z M80.5,50.2
	C80.4,50.1,80.6,50.3,80.5,50.2L80.5,50.2z M80.5,50.6c0.2,0,0.2,0.2,0.3,0C80.8,50.5,80.5,50.4,80.5,50.6z M80.9,51.2
	C80.5,50.7,80.7,51.7,80.9,51.2C81.1,51.1,80.9,51,80.9,51.2z M81.2,34.9C81.2,34.8,81.3,35,81.2,34.9L81.2,34.9z M81.2,28.2
	C81.2,28.1,81.3,28.3,81.2,28.2L81.2,28.2z M81.5,46.6C81.6,46.7,81.5,46.5,81.5,46.6L81.5,46.6z M83,40.8
	C82.9,40.8,83.1,40.9,83,40.8L83,40.8z M82,30.4C81.9,30.4,82.1,30.5,82,30.4L82,30.4z M82.7,40.4C82.8,40.5,82.6,40.3,82.7,40.4
	L82.7,40.4z M82.7,38.9C82.5,40,82.8,38.4,82.7,38.9L82.7,38.9z M82.7,39.8C82.6,39.7,82.8,39.9,82.7,39.8L82.7,39.8z M82.7,37.1
	C82.8,37.2,82.6,37,82.7,37.1L82.7,37.1z M82.9,36.5C82.8,36.5,82.9,36.6,82.9,36.5L82.9,36.5z M83,71.1C83.1,71.2,82.9,71,83,71.1
	L83,71.1z M83,42.2C83.1,42.3,82.9,42.1,83,42.2L83,42.2z M83,41.6C83.2,42.1,83.2,41,83,41.6L83,41.6z M83.3,42.5
	C83.2,42.4,83.4,42.6,83.3,42.5L83.3,42.5z M83.3,37.4C83.4,37.5,83.2,37.3,83.3,37.4L83.3,37.4z M83.4,38.4
	C83.5,38.5,83.4,38.4,83.4,38.4L83.4,38.4z M83.6,31.6C83.5,31.6,83.7,31.7,83.6,31.6L83.6,31.6z M84,24.3
	C84.1,24.4,84,24.3,84,24.3L84,24.3z M85.1,30C85,29.9,85.2,30.1,85.1,30L85.1,30z M84.8,26.9C84.9,27,84.7,26.8,84.8,26.9
	L84.8,26.9z M84.6,30C84.6,29.9,84.7,30.1,84.6,30L84.6,30z M84.8,31C84.7,31,84.9,31.1,84.8,31L84.8,31z M85.1,55.8
	C85,55.7,85.2,55.9,85.1,55.8L85.1,55.8z M85.2,30.3c-0.2,0-0.4,0-0.4,0.1C85,30.4,85.2,30.5,85.2,30.3z M85.7,32.8
	C85.6,32.7,85.8,32.9,85.7,32.8L85.7,32.8z M86.4,32.7c-0.2,0-0.4,0-0.4,0.1C86.1,32.8,86.4,32.8,86.4,32.7z M86.9,30
	C86.8,29.9,87,30.1,86.9,30L86.9,30z M87,30.6C87.2,31.2,87.2,30,87,30.6L87,30.6z M87.2,40.7C87.2,40.1,87,41.6,87.2,40.7
	L87.2,40.7z M87.2,41.6C87.1,41.5,87.3,41.7,87.2,41.6L87.2,41.6z M87.3,65.5C87.2,65.4,87.4,65.6,87.3,65.5L87.3,65.5z M87.5,56
	C87.5,56,87.5,56,87.5,56L87.5,56z M87.9,40.8C87.8,40.8,88,40.9,87.9,40.8L87.9,40.8z M87.9,40.4C88.1,41,88.1,39.8,87.9,40.4
	L87.9,40.4z M88,38.6c0.3-0.2,0-1,0.3-1.2c-0.2,0-0.1-0.3-0.1-0.4c0.2,0,0.1-0.1,0-0.1c0-0.2-0.2-0.1-0.1,0c0,0-0.1,0-0.1,0
	C87.8,37,88,40.5,88,38.6z M87.6,40.1C87.7,40.2,87.5,40,87.6,40.1L87.6,40.1z M87.6,31.6C87.7,31.7,87.5,31.6,87.6,31.6L87.6,31.6z
	 M87.6,31.3C87.7,31.4,87.5,31.3,87.6,31.3L87.6,31.3z M88,63.8c-0.1,0-0.3,0-0.3,0.1C87.9,63.9,88,64,88,63.8z M88.2,64.4
	C88.4,65,88.4,63.8,88.2,64.4L88.2,64.4z M44.7,25.3c1.1,0,1.9,0.9,1.9,1.9v5.7c0,0,0,0,0,0l0,8c0-0.1-0.1-0.1-0.1-0.1
	c-0.1,0.2-0.3,0.2-0.3,0.4c0.3-0.1,0.3,0.1,0.4,0.2v2c0,0,0,0,0,0l0,1.3h1.6c0,0,0,0.1,0,0.1c0,0,0,0,0-0.1h7.8c0,0.3,0,0.5-0.1,0.7
	c0.5,0.1,0.7-0.5,0.5-0.7h2.5c0.2,0,0.5,0,0.7,0.1c-0.1,0.3-0.3,0.5,0,0.6c0.1-0.1,0.2-0.3,0.3-0.5c0.1,0.1,0.3,0.1,0.4,0.2
	c0,0,0,0.1-0.1,0.2c0.1,0.4,0.2,0,0.1-0.1c0.1,0.1,0.2,0.1,0.2,0.2c0.1,0.4,0,0.7-0.2,1.1c0.4,0,0.3-0.2,0.6,0
	c-0.2-0.2-0.1-0.5,0-0.8c0.3,0.3,0.4,0.7,0.5,1.1c0,0,0,0.1-0.1,0.1c0,0,0.1,0,0.1,0c0,0.1,0,0.1,0,0.2c-0.2,0-0.3,0.1-0.4,0.2
	c-0.2,0.1,0,0.2,0,0c0.2,0,0.1,0.3,0.1,0.4c-0.7,0.1-0.2,0.3-0.4,0.7c-0.7-0.3-0.3,0.3-0.2,0.7c-0.4,0.4-1,0.6-1.6,0.6h-3.7
	c0-0.3-0.1-0.5-0.3-0.6c-0.2,0.1-0.2,0.4-0.3,0.6h-2.8c0.1-0.3,0-0.7-0.3-0.7c0,0.2-0.2,0.5-0.2,0.7h-5.8c-1,0-1.9-0.6-2.3-1.5
	c0,0,0-0.1-0.1-0.1c0.1-0.1,0.1-0.2-0.1-0.3c0,0,0,0,0,0.1c-0.1-0.2-0.1-0.4-0.1-0.7v-2.2c0.1-0.1,0.1-0.2,0-0.3v-3
	c0.1,0,0.2-0.1,0.3-0.1c0-0.9,0.3-1.3,0.7-1.6c-0.2-0.5-0.2-1.1-0.4-1.5c0.2-0.1,0-0.2,0,0c-0.1,0-0.1,0-0.2,0
	c0,0.3-0.1,0.4-0.3,0.4c-0.1-0.2-0.2,0,0,0c0,0.2-0.1,0.4-0.1,0.6V28.5c0.1,0,0.2,0,0.3,0c-0.2-0.5,0.2-0.4,0.3-0.6
	c0.1,0,0.1,0,0.1,0c0.1,0.2,0.2,0,0,0c0.4-0.3-0.2-0.4-0.3-0.7c0.1,0,0.1,0,0.2,0c0.2-0.5,0.2-1,0.1-1.4
	C43.8,25.5,44.2,25.3,44.7,25.3z M61.2,46.3C61.1,46.3,61.3,46.4,61.2,46.3L61.2,46.3z M59.4,47.5C59.5,47.6,59.3,47.4,59.4,47.5
	L59.4,47.5z M59.7,49C59.7,48.5,59.1,49.1,59.7,49C59.8,49.2,59.9,49,59.7,49z M59.5,47.2C59.6,47.3,59.5,47.1,59.5,47.2L59.5,47.2z
	 M59.5,48.1C59.9,48.7,59.8,47.6,59.5,48.1L59.5,48.1z M59.8,46.6C59.9,46.7,59.8,46.5,59.8,46.6L59.8,46.6z M60.1,45.7
	C60.1,45.7,60.2,45.8,60.1,45.7L60.1,45.7z M60,47.4c0.3-0.1,0.6-0.3,0.6-0.7C60.1,46.6,60.1,47,60,47.4z M59.1,46.3
	C58.9,46.4,59.1,46.5,59.1,46.3c0.1,0,0.1,0,0.1,0c0.1-0.3,0.1-0.6,0.4-0.6c0,0.2,0,0.3,0.2,0.3c0.1,0.2,0.2,0,0,0
	c0-0.2,0-0.3-0.2-0.3c0,0,0-0.1,0-0.1c-0.2,0-0.4,0-0.6,0C59,46,59,45.9,59.1,46.3z M56.4,48.7C56.6,49.3,56.6,48.1,56.4,48.7
	L56.4,48.7z M58.7,47.4C58.8,47.4,58.6,47.3,58.7,47.4L58.7,47.4z M58.7,46.5c-0.1,0-0.2,0-0.3,0c0,0.1,0,0.2,0,0.3
	C58.6,46.8,58.6,46.6,58.7,46.5C58.9,46.4,58.6,46.3,58.7,46.5z M58.4,45.7C58.3,45.7,58.5,45.8,58.4,45.7L58.4,45.7z M58.2,47.6
	C58.1,47.6,58.3,47.7,58.2,47.6L58.2,47.6z M57.8,49.4C57.9,49.5,57.7,49.4,57.8,49.4L57.8,49.4z M57.6,48.8
	C57.6,48.8,57.7,48.9,57.6,48.8L57.6,48.8z M57.5,47.2C57.6,47.3,57.4,47.1,57.5,47.2L57.5,47.2z M57,49.3c0.1,0,0.1-0.1,0.2-0.1
	c0.1,0,0.2,0,0.3,0c0-0.3,0-0.6-0.3-0.6c0,0.2,0,0.4,0,0.6C57,49.1,57,49.2,57,49.3C56.8,49.4,57,49.5,57,49.3z M56.6,49.1
	C56.7,49.2,56.5,49.1,56.6,49.1L56.6,49.1z M56.3,48.4c0.1,0,0.3,0,0.3-0.1C56.5,48.3,56.3,48.2,56.3,48.4z M56,47.6
	C56.1,47.7,55.9,47.6,56,47.6L56,47.6z M55.4,46.2c0.3,0,0.1,0.6,0.4,0.6C55.9,46.4,55.6,45.7,55.4,46.2z M55.4,45.6
	C55.3,46.4,55.5,45,55.4,45.6L55.4,45.6z M51.8,48.7c0,0.1,0,0.3,0,0.4C52.3,49.4,52.3,48.5,51.8,48.7z M51.8,48.1
	C51.9,48.2,51.8,48,51.8,48.1L51.8,48.1z M52.4,48.8C52.2,48.9,52.4,49,52.4,48.8C52.6,48.7,52.4,48.7,52.4,48.8z M53,48.2
	C53.5,47.8,52.5,48,53,48.2c0,0.1,0,0.2,0,0.3c-0.6,0,0,0.7,0,0C53.2,48.5,53.2,48.2,53,48.2z M54.9,44.8C55,44.8,55,44.8,54.9,44.8
	C54.9,44.8,54.9,44.8,54.9,44.8z M54.9,47.1C55,47.2,54.9,47,54.9,47.1L54.9,47.1z M54.8,46.5C55,47,55,45.9,54.8,46.5L54.8,46.5z
	 M53.3,48.1c0.5,0.1,1.1-1,0.4-1.2C54.2,47.6,53.2,47.3,53.3,48.1z M51.7,47.2c0.7-0.3,0.5-1.3,1.5-1.3c-0.1-0.3,0.2-0.9-0.3-0.7
	c0,0.1,0,0.2,0,0.3C52.2,45.6,51.5,46.7,51.7,47.2z M50.6,47.1C50.7,47.2,50.6,47,50.6,47.1L50.6,47.1z M50.5,47.9
	c0.6,0.2,0.1-0.6,0.4-0.6c-0.2,0.7,0.7-0.2,0,0c0,0,0-0.1,0-0.1C50.5,47.1,50.5,47.5,50.5,47.9z M49.9,48.7c0.1,0,0.2,0,0.3,0
	c0.1,0,0.2,0,0.1-0.1c-0.5,0,0.4-0.4-0.1-0.4C50.2,48.4,49.8,48.3,49.9,48.7z M49.6,49C49.7,49.1,49.5,48.9,49.6,49L49.6,49z
	 M48.6,45C48.5,44.9,48.7,45.1,48.6,45L48.6,45z M46.5,35C46.4,35,46.6,35.1,46.5,35L46.5,35z M44.7,42.8c0.5,0.1,0.5-0.2,0.6-0.4
	C44.8,42.2,44.8,42.5,44.7,42.8z M44.4,42.9c0,0.3,0.1,0.5,0.3,0.6C44.7,43.2,44.7,42.9,44.4,42.9z M44.6,41.4
	C44.5,41.4,44.7,41.5,44.6,41.4L44.6,41.4z M44.4,26.3C44.5,25.7,44.3,27.2,44.4,26.3L44.4,26.3z M44.4,41.7c0-0.3,0-0.6,0.1-0.7
	C43.8,40.8,44.2,41.6,44.4,41.7z M44.1,26.4C44.3,27,44.3,25.8,44.1,26.4L44.1,26.4z M43.7,41.7C43.6,41.6,43.8,41.8,43.7,41.7
	L43.7,41.7z M43.4,44.5C43.5,44.6,43.3,44.5,43.4,44.5L43.4,44.5z M43.1,44.5C43.2,44.6,43,44.5,43.1,44.5L43.1,44.5z M43.1,45
	C43.2,45.1,43,44.9,43.1,45L43.1,45z M43.5,47.9C43.7,48.5,43.7,47.4,43.5,47.9L43.5,47.9z M43.5,47.4
	C43.4,46.6,42.4,47.8,43.5,47.4C43.8,47.9,44,46.9,43.5,47.4z M43.7,46.9C43.6,46.8,43.8,47,43.7,46.9L43.7,46.9z M44.1,44.2
	c0.4-0.5-0.4-0.6-0.6-0.3c-0.2,0.1,0,0.2,0,0C44,43.8,43.9,44.2,44.1,44.2z M44.3,48.4C44.4,49,44.4,47.8,44.3,48.4L44.3,48.4z
	 M44.7,46.3c0.1-0.5-0.4-0.6-0.4-0.1c-0.1,0-0.1,0.1-0.1,0.1c-0.2,0.1,0,0.2,0,0c0.1,0,0.1-0.1,0.1-0.1c0.2,0,0.3,0,0.3,0.1
	c-0.6,0,0,0.7,0,0C44.6,46.3,44.7,46.3,44.7,46.3z M45,45.4c-0.3,0-0.4,0.1-0.4,0.3C44.8,45.7,44.9,45.6,45,45.4z M45.3,45
	c-0.1,0-0.3,0-0.3,0.1C45.1,45.1,45.3,45.1,45.3,45z M45.3,47.8C45.4,47.9,45.2,47.7,45.3,47.8L45.3,47.8z M45.3,47.4
	C45.4,47.4,45.2,47.3,45.3,47.4L45.3,47.4z M46,47.1c-0.4,0-0.4,0.3-0.4,0.6C46,47.7,46.1,47.4,46,47.1z M45.9,44.5
	c-0.2,0-0.5,0-0.4,0.3C45.7,44.8,45.8,44.7,45.9,44.5z M47.5,45c0,0.3,0.5,0.4,0.4,0.1C48,45,47.5,44.6,47.5,45z M47.5,48.4
	C47.5,48.3,47.6,48.5,47.5,48.4L47.5,48.4z M46.9,45.7C47.1,46.3,47.1,45.1,46.9,45.7L46.9,45.7z M46.6,46.2c0.2,0,0.1,0.3,0.3,0.3
	c0.1,0.2,0.2,0,0,0C47.1,46.2,46.7,45.8,46.6,46.2z M46.6,49.4C46.7,49.5,46.6,49.4,46.6,49.4L46.6,49.4z M46.3,46.2
	C46.2,47,47,46.2,46.3,46.2L46.3,46.2z M46.3,45c-0.1,0-0.3,0-0.4,0c0,0.1,0,0.3,0,0.4C46.3,45.5,46.2,45.1,46.3,45z M46.2,44.8
	C46.1,44.8,46.3,44.9,46.2,44.8L46.2,44.8z M46.2,44.2c0-0.1,0-0.2,0-0.3c-0.1,0-0.2,0-0.3,0C45.8,44.2,46,44.2,46.2,44.2
	C46.3,44.4,46.4,44.2,46.2,44.2z M46,26.4C46.1,26.5,46,26.4,46,26.4L46,26.4z M46,35.3C46.1,35.4,46,35.3,46,35.3L46,35.3z
	 M45.9,41.6C46.1,42.1,46.1,41,45.9,41.6L45.9,41.6z M45.9,29.2C45.8,29.2,46,29.3,45.9,29.2L45.9,29.2z M45.7,42.2
	C45.9,42.7,45.9,41.6,45.7,42.2L45.7,42.2z M45.6,44.4C45.7,44.5,45.5,44.3,45.6,44.4L45.6,44.4z M45.4,29.7
	C45.4,29.6,45.5,29.8,45.4,29.7L45.4,29.7z M45.3,30.1C45.4,30.2,45.2,30.1,45.3,30.1L45.3,30.1z M45,25.7
	C45.1,25.8,44.9,25.6,45,25.7L45,25.7z M44.9,40.1c0.3,0.1,0.3,0.2,0.1,0.4C45.8,40.6,45.1,39.6,44.9,40.1z M43.2,26.6
	c0.2,0,0.1-0.4,0.2-0.6c0,0,0,0,0-0.1c-0.1,0.1-0.2,0.3-0.3,0.4C43.1,26.4,43.1,26.5,43.2,26.6z M42.3,79.1c0,0,0.1,0,0.1,0
	C42.4,79.1,42.3,79.1,42.3,79.1C42.3,79.1,42.3,79.1,42.3,79.1z M41,13.2c0.3,0,0.6-0.1,0.9-0.1c-0.1-0.2,0-0.4-0.5-0.3
	C41.5,13.1,41.1,13,41,13.2z M40.3,78.8C40.3,78.8,40.3,78.8,40.3,78.8c-0.1,0-0.1,0-0.2,0c-0.1,0-0.1,0-0.2,0c0,0.1,0,0.3,0,0.4
	c-0.4,0-0.3,0.2-0.6,0c0,0.2,0,0.4,0.1,0.4C39,80.1,38.5,80,38,80c0.4,0.9-2,1.4-3,1.8c2.2,0,3.6-1.1,5.3-1.9c0.1-0.4,0.4-0.7,0.7-1
	C40.8,78.9,40.5,78.8,40.3,78.8z"/>
</svg>
