<?xml version="1.0" encoding="utf-8"?>
<!-- Generator: Adobe Illustrator 18.1.0, SVG Export Plug-In . SVG Version: 6.00 Build 0)  -->
<!DOCTYPE svg PUBLIC "-//W3C//DTD SVG 1.1//EN" "http://www.w3.org/Graphics/SVG/1.1/DTD/svg11.dtd">
<svg version="1.1" id="Layer_1" xmlns="http://www.w3.org/2000/svg" xmlns:xlink="http://www.w3.org/1999/xlink" x="0px" y="0px"
	 viewBox="0 0 63.8 98.7" enable-background="new 0 0 63.8 98.7" xml:space="preserve">
<g>
	<path fill-rule="evenodd" clip-rule="evenodd" fill="#FFFFFF" d="M33.4,1.9C33.3,1.8,33.6,2.1,33.4,1.9L33.4,1.9z"/>
	<path fill-rule="evenodd" clip-rule="evenodd" fill="#FFFFFF" d="M34.9,2.2c0,0.4-0.2,0.6-0.7,0.5C34.3,2.4,34.5,2.2,34.9,2.2z"/>
	<path fill-rule="evenodd" clip-rule="evenodd" fill="#FFFFFF" d="M34.2,3.1C34.1,3,34.3,3.3,34.2,3.1L34.2,3.1z"/>
	<path fill-rule="evenodd" clip-rule="evenodd" fill="#FFFFFF" d="M32.5,5.1C32.4,5,32.6,5.2,32.5,5.1L32.5,5.1z"/>
	<path fill-rule="evenodd" clip-rule="evenodd" fill="#FFFFFF" d="M22.6,1.6C22.5,2.5,21.5,1.5,22.6,1.6L22.6,1.6z"/>
	<path fill-rule="evenodd" clip-rule="evenodd" fill="#FFFFFF" d="M20.4,3.5c-0.3-0.3-0.3-0.8-0.2-1.4c0.4,0.2,0.3,1,0.5,1.4
		C20.6,3.5,20.5,3.5,20.4,3.5z"/>
	<path fill-rule="evenodd" clip-rule="evenodd" fill="#FFFFFF" d="M23.5,3c0-0.3,0.1-0.5,0.2-0.7c0.4,0.1,0.2,0.5,0,0.7
		C23.7,3,23.6,3,23.5,3z"/>
	<path fill-rule="evenodd" clip-rule="evenodd" fill="#FFFFFF" d="M19.8,1.8C19.9,2.1,19.5,1.9,19.8,1.8L19.8,1.8z"/>
	<path fill-rule="evenodd" clip-rule="evenodd" fill="#FFFFFF" d="M19.1,2c0.4,0.2,0,0.4,0,0.7C18.7,2.6,19.1,2.3,19.1,2z"/>
	<path fill-rule="evenodd" clip-rule="evenodd" fill="#FFFFFF" d="M16.7,2.3C16.9,3.3,16,2.3,16.7,2.3L16.7,2.3z"/>
	<path fill-rule="evenodd" clip-rule="evenodd" fill="#FFFFFF" d="M18.4,3C18.1,3,18.2,2.6,18.4,3L18.4,3z"/>
	<path fill-rule="evenodd" clip-rule="evenodd" fill="#FFFFFF" d="M20.1,3C20.4,2,20.4,3.9,20.1,3L20.1,3z"/>
	<path fill-rule="evenodd" clip-rule="evenodd" fill="#FFFFFF" d="M18.4,3C18.7,3,18.5,3.3,18.4,3L18.4,3z"/>
	<path fill-rule="evenodd" clip-rule="evenodd" fill="#FFFFFF" d="M20.6,3c0.3,0.2,0.4,0.5,0.5,1C20.3,4.2,20.6,3.4,20.6,3z"/>
	<path fill-rule="evenodd" clip-rule="evenodd" fill="#FFFFFF" d="M17.4,4.7c0.1-0.5,0.1-1,0.7-1C17.9,4,17.9,4.6,17.4,4.7z"/>
	<path fill-rule="evenodd" clip-rule="evenodd" fill="#FFFFFF" d="M20.1,4.7c-0.3-0.1-0.5-0.3-0.5-0.7c0.3,0,0.3-0.3,0.7-0.2
		C19.9,4.2,20.5,4.2,20.1,4.7z"/>
	<path fill-rule="evenodd" clip-rule="evenodd" fill="#FFFFFF" d="M20.1,4.7c0.3,0,0.7,0,0.7,0.2c-1-0.1,0.2,0.6-0.7,0.7
		c-0.5-0.4-0.3,0-1,0c0.4-0.5-0.6-0.8,0.2-1.4c-0.1,0.5,0.1,0.9,0.5,1C19.8,4.9,20,4.9,20.1,4.7z"/>
	<path fill-rule="evenodd" clip-rule="evenodd" fill="#FFFFFF" d="M14.8,4.4c0,0.1-0.2,0.3-0.2,0C14.6,4.4,14.7,4.4,14.8,4.4z"/>
	<path fill-rule="evenodd" clip-rule="evenodd" fill="#FFFFFF" d="M17.4,4.7C17.5,4.9,17.1,4.8,17.4,4.7L17.4,4.7z"/>
	<path fill-rule="evenodd" clip-rule="evenodd" fill="#FFFFFF" d="M18.4,4.9C18.7,3.9,18.7,5.8,18.4,4.9L18.4,4.9z"/>
	<path fill-rule="evenodd" clip-rule="evenodd" fill="#FFFFFF" d="M13.8,4.9c0,0.3-0.1,0.6-0.5,0.5C13.4,5.1,13.6,5,13.8,4.9z"/>
	<path fill-rule="evenodd" clip-rule="evenodd" fill="#FFFFFF" d="M11.2,5.4C11.1,5.1,11.5,5.2,11.2,5.4L11.2,5.4z"/>
	<path fill-rule="evenodd" clip-rule="evenodd" fill="#FFFFFF" d="M11.2,5.4C11.2,5.7,10.8,5.5,11.2,5.4L11.2,5.4z"/>
	<path fill-rule="evenodd" clip-rule="evenodd" fill="#FFFFFF" d="M14.8,5.6C14.5,5.6,14.6,5.3,14.8,5.6L14.8,5.6z"/>
	<path fill-rule="evenodd" clip-rule="evenodd" fill="#FFFFFF" d="M17.9,5.6C17.9,5.3,18.3,5.5,17.9,5.6L17.9,5.6z"/>
	<path fill-rule="evenodd" clip-rule="evenodd" fill="#FFFFFF" d="M18.6,5.6C18.5,5.5,18.8,5.8,18.6,5.6L18.6,5.6z"/>
	<path fill-rule="evenodd" clip-rule="evenodd" fill="#FFFFFF" d="M14.1,5.9C14,5.8,14.2,6,14.1,5.9L14.1,5.9z"/>
	<path fill-rule="evenodd" clip-rule="evenodd" fill="#FFFFFF" d="M17.7,5.9c0-0.1,0-0.3,0.2-0.2C17.9,5.8,17.9,5.9,17.7,5.9z"/>
	<path fill-rule="evenodd" clip-rule="evenodd" fill="#FFFFFF" d="M17.7,5.9c0,0.3-0.3,0.3-0.2,0.7c-0.3,0-0.3-0.4-0.2-0.7
		C17.3,5.9,17.5,5.9,17.7,5.9z"/>
	<path fill-rule="evenodd" clip-rule="evenodd" fill="#FFFFFF" d="M11.7,6.3C11.6,6.2,11.8,6.5,11.7,6.3L11.7,6.3z"/>
	<path fill-rule="evenodd" clip-rule="evenodd" fill="#FFFFFF" d="M18.6,6.3C18.8,5.5,18.3,8.1,18.6,6.3L18.6,6.3z"/>
	<path fill-rule="evenodd" clip-rule="evenodd" fill="#FFFFFF" d="M19.4,7.1C19.1,7.1,19.2,6.7,19.4,7.1L19.4,7.1z"/>
	<path fill-rule="evenodd" clip-rule="evenodd" fill="#FFFFFF" d="M19.4,7.1C19.6,7,19.5,7.4,19.4,7.1L19.4,7.1z"/>
	<path fill-rule="evenodd" clip-rule="evenodd" fill="#FFFFFF" d="M12.1,7.8C12.1,7.5,12.5,7.6,12.1,7.8L12.1,7.8z"/>
	<path fill-rule="evenodd" clip-rule="evenodd" fill="#FFFFFF" d="M15.5,7.5c-0.1,0.2,0,0.5-0.2,0.5C15.3,7.8,15.3,7.6,15.5,7.5z"/>
	<path fill-rule="evenodd" clip-rule="evenodd" fill="#FFFFFF" d="M18.6,8c-0.4,0.3-0.5,0.8-1.2,0.7C17.7,8.4,19.1,6.9,18.6,8z"/>
	<path fill-rule="evenodd" clip-rule="evenodd" fill="#FFFFFF" d="M12.1,7.8C12.2,8.1,11.8,7.9,12.1,7.8L12.1,7.8z"/>
	<path fill-rule="evenodd" clip-rule="evenodd" fill="#FFFFFF" d="M15.3,8C15.3,8.3,14.9,8.2,15.3,8L15.3,8z"/>
	<path fill-rule="evenodd" clip-rule="evenodd" fill="#FFFFFF" d="M18.6,8c0.3,0.1,0.5,0.3,0.5,0.7C18.8,8.7,18.6,8.4,18.6,8z"/>
	<path fill-rule="evenodd" clip-rule="evenodd" fill="#FFFFFF" d="M16.5,8.3c0.3,0,0.3,0.7,0,0.7C16.5,8.7,16.5,8.5,16.5,8.3z"/>
	<path fill-rule="evenodd" clip-rule="evenodd" fill="#FFFFFF" d="M18.1,9c0-0.1,0.2-0.3,0.2,0C18.3,9,18.2,9,18.1,9z"/>
	<path fill-rule="evenodd" clip-rule="evenodd" fill="#FFFFFF" d="M10.2,9.2C10.1,9.1,10.4,9.4,10.2,9.2L10.2,9.2z"/>
	<path fill-rule="evenodd" clip-rule="evenodd" fill="#FFFFFF" d="M15.5,9.2c0-0.1,0.2-0.3,0.2,0C15.7,9.2,15.6,9.2,15.5,9.2z"/>
	<path fill-rule="evenodd" clip-rule="evenodd" fill="#FFFFFF" d="M18.1,9c0.1,0.5-0.3,0.5-0.2,1c-0.1,0-0.2,0-0.2,0
		C17.7,9.5,17.4,8.7,18.1,9z"/>
	<path fill-rule="evenodd" clip-rule="evenodd" fill="#FFFFFF" d="M18.4,9C18.7,9,18.5,9.3,18.4,9L18.4,9z"/>
	<path fill-rule="evenodd" clip-rule="evenodd" fill="#FFFFFF" d="M15.5,9.2C15.5,9.5,15.2,9.4,15.5,9.2L15.5,9.2z"/>
	<path fill-rule="evenodd" clip-rule="evenodd" fill="#FFFFFF" d="M15.7,9.2C16,9.2,15.9,9.6,15.7,9.2L15.7,9.2z"/>
	<path fill-rule="evenodd" clip-rule="evenodd" fill="#FFFFFF" d="M17.7,10c0.2,0.8-0.7,0.4-1.2,0.5c0-0.3,0-0.6,0-1
		C16.7,9.9,17.1,10.6,17.7,10z"/>
	<path fill-rule="evenodd" clip-rule="evenodd" fill="#FFFFFF" d="M7.3,13.4C7.3,13.7,7,13.6,7.3,13.4L7.3,13.4z"/>
	<path fill-rule="evenodd" clip-rule="evenodd" fill="#FFFFFF" d="M6.1,11.2C6.7,10.3,6.5,12,6.1,11.2L6.1,11.2z"/>
	<path fill-rule="evenodd" clip-rule="evenodd" fill="#FFFFFF" d="M11.9,10C11.8,9.9,12.1,10.1,11.9,10L11.9,10z"/>
	<path fill-rule="evenodd" clip-rule="evenodd" fill="#FFFFFF" d="M12.9,9.7c0,0.3,0.3,0.3,0.2,0.7c-0.5-0.1-0.5,0.3-0.7,0.5
		C12.3,10.3,12.5,9.9,12.9,9.7z"/>
	<path fill-rule="evenodd" clip-rule="evenodd" fill="#FFFFFF" d="M13.3,9.7C14.1,9.8,13.1,10.7,13.3,9.7L13.3,9.7z"/>
	<path fill-rule="evenodd" clip-rule="evenodd" fill="#FFFFFF" d="M9.7,10.2C9.7,9.9,10.1,10,9.7,10.2L9.7,10.2z"/>
	<path fill-rule="evenodd" clip-rule="evenodd" fill="#FFFFFF" d="M10.4,10.2C10.3,10.1,10.6,10.4,10.4,10.2L10.4,10.2z"/>
	<path fill-rule="evenodd" clip-rule="evenodd" fill="#FFFFFF" d="M8.3,10.4c0-0.1,0-0.3,0.2-0.2C8.5,10.3,8.5,10.5,8.3,10.4z"/>
	<path fill-rule="evenodd" clip-rule="evenodd" fill="#FFFFFF" d="M9.7,11.4c-0.3,0.2-0.1,0.9-0.7,0.7C9,11.6,9.2,11.4,9.7,11.4z"/>
	<path fill-rule="evenodd" clip-rule="evenodd" fill="#FFFFFF" d="M14.5,10.4C14.8,9.5,14.8,11.4,14.5,10.4L14.5,10.4z"/>
	<path fill-rule="evenodd" clip-rule="evenodd" fill="#FFFFFF" d="M13.6,10.7C13.5,10.6,13.7,10.8,13.6,10.7L13.6,10.7z"/>
	<path fill-rule="evenodd" clip-rule="evenodd" fill="#FFFFFF" d="M7.3,13.4C7.2,13.3,7.5,13.5,7.3,13.4L7.3,13.4z"/>
	<path fill-rule="evenodd" clip-rule="evenodd" fill="#FFFFFF" d="M10,10.9C9.9,10.8,10.1,11.1,10,10.9L10,10.9z"/>
	<path fill-rule="evenodd" clip-rule="evenodd" fill="#FFFFFF" d="M12.9,10.9C12.8,10.8,13,11.1,12.9,10.9L12.9,10.9z"/>
	<path fill-rule="evenodd" clip-rule="evenodd" fill="#FFFFFF" d="M15.7,10.9C15.6,10.8,15.9,11.1,15.7,10.9L15.7,10.9z"/>
	<path fill-rule="evenodd" clip-rule="evenodd" fill="#FFFFFF" d="M16.5,10.7c0.4,0,0.5,0.3,1,0.2c0.1,0.6-1.1-0.1-0.7,0.7
		C16.4,11.6,16.5,11,16.5,10.7z"/>
	<path fill-rule="evenodd" clip-rule="evenodd" fill="#FFFFFF" d="M12.1,11.2c0-0.1,0-0.3,0.2-0.2C12.4,11.1,12.3,11.2,12.1,11.2z"
		/>
	<path fill-rule="evenodd" clip-rule="evenodd" fill="#FFFFFF" d="M15.3,11.2C15.5,10.2,15.5,12.1,15.3,11.2L15.3,11.2z"/>
	<path fill-rule="evenodd" clip-rule="evenodd" fill="#FFFFFF" d="M18.1,10.9c0,0.2,0,0.5,0,0.7C17.8,11.6,17.8,11,18.1,10.9z"/>
	<path fill-rule="evenodd" clip-rule="evenodd" fill="#FFFFFF" d="M11.2,11.4C11.1,11.3,11.3,11.6,11.2,11.4L11.2,11.4z"/>
	<path fill-rule="evenodd" clip-rule="evenodd" fill="#FFFFFF" d="M12.1,11.2c-0.1,0.7-0.1,1.7-1,1.7C11.6,12.3,11.4,11.3,12.1,11.2
		z"/>
	<path fill-rule="evenodd" clip-rule="evenodd" fill="#FFFFFF" d="M17.2,11.6C17.3,10.7,17,13.1,17.2,11.6L17.2,11.6z"/>
	<path fill-rule="evenodd" clip-rule="evenodd" fill="#FFFFFF" d="M13.6,11.6c0.2,0,0.5,0,0.7,0c0.1,0.4-0.2,0.4-0.2,0.7
		c-0.2,0-0.3,0-0.5,0C13.6,12.1,13.6,11.9,13.6,11.6z"/>
	<path fill-rule="evenodd" clip-rule="evenodd" fill="#FFFFFF" d="M1.8,17.8C1.7,17.7,1.9,18,1.8,17.8L1.8,17.8z"/>
	<path fill-rule="evenodd" clip-rule="evenodd" fill="#FFFFFF" d="M15,12.1c0.2,1.2-0.5,0.4-0.5-0.2C14.8,11.9,14.8,12.1,15,12.1z"
		/>
	<path fill-rule="evenodd" clip-rule="evenodd" fill="#FFFFFF" d="M15,12.1C15,11.8,15.4,12,15,12.1L15,12.1z"/>
	<path fill-rule="evenodd" clip-rule="evenodd" fill="#FFFFFF" d="M16.2,12.4C16.1,12.3,16.4,12.5,16.2,12.4L16.2,12.4z"/>
	<path fill-rule="evenodd" clip-rule="evenodd" fill="#FFFFFF" d="M10.7,12.6C10.6,12.5,10.8,12.8,10.7,12.6L10.7,12.6z"/>
	<path fill-rule="evenodd" clip-rule="evenodd" fill="#FFFFFF" d="M13.3,12.8C14.1,12.3,12.8,13.6,13.3,12.8L13.3,12.8z"/>
	<path fill-rule="evenodd" clip-rule="evenodd" fill="#FFFFFF" d="M18.4,12.8c-0.2-0.1-0.5,0-0.5-0.2C18.1,12.7,18.4,12.6,18.4,12.8
		z"/>
	<path fill-rule="evenodd" clip-rule="evenodd" fill="#FFFFFF" d="M11.2,12.8c0,0.3,0.3,0.3,0.2,0.7c-0.9-0.4-0.1,0.8-0.7,0.7
		c0.1-0.6,0-0.9-0.2-1.2C10.8,13.1,11,13,11.2,12.8z"/>
	<path fill-rule="evenodd" clip-rule="evenodd" fill="#FFFFFF" d="M12.4,13.1C12.3,13,12.5,13.2,12.4,13.1L12.4,13.1z"/>
	<path fill-rule="evenodd" clip-rule="evenodd" fill="#FFFFFF" d="M18.4,13.1c0-0.1,0-0.2,0-0.2C18.5,12.8,18.7,13,18.4,13.1z"/>
	<path fill-rule="evenodd" clip-rule="evenodd" fill="#FFFFFF" d="M8.8,13.3C8.7,13,9.1,13.2,8.8,13.3L8.8,13.3z"/>
	<path fill-rule="evenodd" clip-rule="evenodd" fill="#FFFFFF" d="M9.7,13.3C9.6,13.2,9.9,13.5,9.7,13.3L9.7,13.3z"/>
	<path fill-rule="evenodd" clip-rule="evenodd" fill="#FFFFFF" d="M15.3,13.3C15.2,13.2,15.4,13.5,15.3,13.3L15.3,13.3z"/>
	<path fill-rule="evenodd" clip-rule="evenodd" fill="#FFFFFF" d="M14.5,14C14.5,13,15.5,14,14.5,14L14.5,14z"/>
	<path fill-rule="evenodd" clip-rule="evenodd" fill="#FFFFFF" d="M9.7,13.8c-0.1,0.2-0.3,0.4,0,0.5c0,0.2-0.1,0.2-0.2,0.2
		c-0.2,0-0.3,0-0.5,0C9.3,14.3,9.1,13.6,9.7,13.8z"/>
	<path fill-rule="evenodd" clip-rule="evenodd" fill="#FFFFFF" d="M11.9,14C12.2,13.1,12.2,15,11.9,14L11.9,14z"/>
	<path fill-rule="evenodd" clip-rule="evenodd" fill="#FFFFFF" d="M12.9,14.3C12.6,13.3,13.6,14.2,12.9,14.3L12.9,14.3z"/>
	<path fill-rule="evenodd" clip-rule="evenodd" fill="#FFFFFF" d="M14.5,14C13.8,14.9,13.7,13.3,14.5,14L14.5,14z"/>
	<path fill-rule="evenodd" clip-rule="evenodd" fill="#FFFFFF" d="M8.5,14.5C8.4,14.4,8.7,14.7,8.5,14.5L8.5,14.5z"/>
	<path fill-rule="evenodd" clip-rule="evenodd" fill="#FFFFFF" d="M12.9,14.3C12.9,14.6,12.5,14.4,12.9,14.3L12.9,14.3z"/>
	<path fill-rule="evenodd" clip-rule="evenodd" fill="#FFFFFF" d="M11.4,14.8C11.7,13.8,11.7,15.7,11.4,14.8L11.4,14.8z"/>
	<path fill-rule="evenodd" clip-rule="evenodd" fill="#FFFFFF" d="M13.1,14.8C13,14.7,13.3,14.9,13.1,14.8L13.1,14.8z"/>
	<path fill-rule="evenodd" clip-rule="evenodd" fill="#FFFFFF" d="M9,15.2C9,15,9.3,15.1,9.5,15C9.5,15.2,9.2,15.2,9,15.2z"/>
	<path fill-rule="evenodd" clip-rule="evenodd" fill="#FFFFFF" d="M11.2,15.7c0.1-0.2,0-0.5,0.2-0.5C11.4,15.4,11.4,15.7,11.2,15.7z
		"/>
	<path fill-rule="evenodd" clip-rule="evenodd" fill="#FFFFFF" d="M14.1,16c0-0.1,0-0.3,0.2-0.2c0.5,0,0.3,0.7,1,0.5
		c0,0.6-0.8,0.1-1,0C14.3,16,14.2,16,14.1,16z"/>
	<path fill-rule="evenodd" clip-rule="evenodd" fill="#FFFFFF" d="M7.6,16.2C7.5,16.1,7.7,16.4,7.6,16.2L7.6,16.2z"/>
	<path fill-rule="evenodd" clip-rule="evenodd" fill="#FFFFFF" d="M12.1,16.2C12.5,15.4,12.7,17.1,12.1,16.2L12.1,16.2z"/>
	<path fill-rule="evenodd" clip-rule="evenodd" fill="#FFFFFF" d="M12.9,16.2C12.8,16.1,13,16.4,12.9,16.2L12.9,16.2z"/>
	<path fill-rule="evenodd" clip-rule="evenodd" fill="#FFFFFF" d="M14.1,16c0,0.2,0.1,0.2,0.2,0.2c-0.2,0.4-0.8,0.4-1.2,0.7
		C13.1,16.3,13.8,16.3,14.1,16z"/>
	<path fill-rule="evenodd" clip-rule="evenodd" fill="#FFFFFF" d="M1.5,23.6C1.8,23.6,1.7,23.9,1.5,23.6L1.5,23.6z"/>
	<path fill-rule="evenodd" clip-rule="evenodd" fill="#FFFFFF" d="M1,24.1c0.8-0.2,0.4,0.7,0.5,1.2C1.2,25.1,1.2,24.5,1,24.1z"/>
	<path fill-rule="evenodd" clip-rule="evenodd" fill="#FFFFFF" d="M0.5,25C0.4,24.9,0.7,25.2,0.5,25L0.5,25z"/>
	<path fill-rule="evenodd" clip-rule="evenodd" fill="#FFFFFF" d="M0.5,25.5c0.6,0.2,0.5,1.6-0.2,1.7C0.3,26.6,0.2,25.8,0.5,25.5z"
		/>
	<path fill-rule="evenodd" clip-rule="evenodd" fill="#FFFFFF" d="M1.3,27.4C0.6,27.4,1.5,26.4,1.3,27.4L1.3,27.4z"/>
	<path fill-rule="evenodd" clip-rule="evenodd" fill="#FFFFFF" d="M0.3,27.7C0.4,26.7,0.1,29.1,0.3,27.7L0.3,27.7z"/>
	<path fill-rule="evenodd" clip-rule="evenodd" fill="#FFFFFF" d="M1.3,27.4c0.1,0,0.2,0,0.2,0C1.5,27.6,1.3,27.7,1.3,27.4z"/>
	<path fill-rule="evenodd" clip-rule="evenodd" fill="#FFFFFF" d="M3.2,22C3.1,21.9,3.4,22.1,3.2,22L3.2,22z"/>
	<path fill-rule="evenodd" clip-rule="evenodd" fill="#FFFFFF" d="M0.3,28.6C0.6,27.7,0.6,29.6,0.3,28.6L0.3,28.6z"/>
	<path fill-rule="evenodd" clip-rule="evenodd" fill="#FFFFFF" d="M0.1,29.1c0.3,0.1,0.2,0.5,0.5,0.5C0.4,30.3-0.2,29.6,0.1,29.1z"
		/>
	<path fill-rule="evenodd" clip-rule="evenodd" fill="#FFFFFF" d="M4.2,28c0.1,0,0.3,0.2,0,0.2C4.2,28.2,4.2,28.1,4.2,28z"/>
	<path fill-rule="evenodd" clip-rule="evenodd" fill="#FFFFFF" d="M62.5,42.4C62.4,42.3,62.6,42.5,62.5,42.4L62.5,42.4z"/>
	<path fill-rule="evenodd" clip-rule="evenodd" fill="#FFFFFF" d="M61.5,44.1c0-0.6,0.4-0.7,0.5-1.2c0.7,0.2-0.2,0.8-0.2,1.2
		C61.7,44.1,61.6,44.1,61.5,44.1z"/>
	<path fill-rule="evenodd" clip-rule="evenodd" fill="#FFFFFF" d="M61.5,44.1C61.7,45.1,60.8,44.1,61.5,44.1L61.5,44.1z"/>
	<path fill-rule="evenodd" clip-rule="evenodd" fill="#FFFFFF" d="M60.8,44.5c0.9,0.3,0.1,1.6-0.5,1c0.3,0.8,0.1,0.6-0.2,1.2
		c-0.8-0.1,0.6-0.9-0.2-1C59.8,45,61.2,45.7,60.8,44.5z"/>
	<path fill-rule="evenodd" clip-rule="evenodd" fill="#FFFFFF" d="M62,44.8C61.9,44.7,62.1,44.9,62,44.8L62,44.8z"/>
	<path fill-rule="evenodd" clip-rule="evenodd" fill="#FFFFFF" d="M61.7,45.5C61.6,45.4,61.9,45.7,61.7,45.5L61.7,45.5z"/>
	<path fill-rule="evenodd" clip-rule="evenodd" fill="#FFFFFF" d="M58.1,47.2C58.4,46.2,58.4,48.1,58.1,47.2L58.1,47.2z"/>
	<path fill-rule="evenodd" clip-rule="evenodd" fill="#FFFFFF" d="M58.9,47c0.2,0,0.3,0,0.5,0c0.1,0.5-0.3,0.5-0.7,0.5
		C58.7,47.2,58.9,47.2,58.9,47z"/>
	<path fill-rule="evenodd" clip-rule="evenodd" fill="#FFFFFF" d="M63.7,47.2c0-0.1,0-0.2,0-0.2C63.8,47,63.9,47.2,63.7,47.2z"/>
	<path fill-rule="evenodd" clip-rule="evenodd" fill="#FFFFFF" d="M54,47.7C54.3,47.7,54.2,48,54,47.7L54,47.7z"/>
	<path fill-rule="evenodd" clip-rule="evenodd" fill="#FFFFFF" d="M58.9,47.7c0.5-0.1,0.9,1.4,0,1.2C59,48.1,59,48.4,58.9,47.7z"/>
	<path fill-rule="evenodd" clip-rule="evenodd" fill="#FFFFFF" d="M56.7,47.9c0.6-0.1,0.5,0.4,1.2,0.2c0,0.5-0.9,0.1-1.2,0.2
		C56.7,48.2,56.7,48.1,56.7,47.9z"/>
	<path fill-rule="evenodd" clip-rule="evenodd" fill="#FFFFFF" d="M57.9,48.2c0-0.2,0.4-0.3,0.5,0C58.2,48.2,58,48.2,57.9,48.2z"/>
	<path fill-rule="evenodd" clip-rule="evenodd" fill="#FFFFFF" d="M59.8,48.2C59.7,48.1,60,48.3,59.8,48.2L59.8,48.2z"/>
	<path fill-rule="evenodd" clip-rule="evenodd" fill="#FFFFFF" d="M60.5,51.8C60.5,51.5,60.9,51.6,60.5,51.8L60.5,51.8z"/>
	<path fill-rule="evenodd" clip-rule="evenodd" fill="#FFFFFF" d="M55.2,54.4C55,53.1,56,54.1,55.2,54.4L55.2,54.4z"/>
	<path fill-rule="evenodd" clip-rule="evenodd" fill="#FFFFFF" d="M59.6,53.9c-0.1,0-0.3-0.2,0-0.2C59.6,53.8,59.6,53.9,59.6,53.9z"
		/>
	<path fill-rule="evenodd" clip-rule="evenodd" fill="#FFFFFF" d="M55.2,54.4C55.3,54.7,54.9,54.6,55.2,54.4L55.2,54.4z"/>
	<path fill-rule="evenodd" clip-rule="evenodd" fill="#FFFFFF" d="M54.5,54.7c0.4-0.1,0.4,1.3-0.2,1C54.4,55.3,54.6,55.2,54.5,54.7z
		"/>
	<path fill-rule="evenodd" clip-rule="evenodd" fill="#FFFFFF" d="M59.6,56.1C59.5,56,59.7,56.3,59.6,56.1L59.6,56.1z"/>
	<path fill-rule="evenodd" clip-rule="evenodd" fill="#FFFFFF" d="M52.6,57.3c0.8-0.2,0.3,0.6,0,0.7C52.6,57.8,52.6,57.5,52.6,57.3z
		"/>
	<path fill-rule="evenodd" clip-rule="evenodd" fill="#FFFFFF" d="M55.2,58.7c0-0.1,0-0.3,0.2-0.2C55.5,58.7,55.4,58.7,55.2,58.7z"
		/>
	<path fill-rule="evenodd" clip-rule="evenodd" fill="#FFFFFF" d="M5.2,30.9C5.1,30.8,5.3,31,5.2,30.9L5.2,30.9z"/>
	<path fill-rule="evenodd" clip-rule="evenodd" fill="#FFFFFF" d="M4,31.6C3.9,31.5,4.1,31.8,4,31.6L4,31.6z"/>
	<path fill-rule="evenodd" clip-rule="evenodd" fill="#FFFFFF" d="M1,38.3C1.4,37.5,1.6,39.2,1,38.3L1,38.3z"/>
	<path fill-rule="evenodd" clip-rule="evenodd" fill="#FFFFFF" d="M1.8,39c-0.2-0.1-0.5,0-0.5-0.2C1.5,38.8,1.7,38.8,1.8,39z"/>
	<path fill-rule="evenodd" clip-rule="evenodd" fill="#FFFFFF" d="M19.9,76.9C20.1,77.2,19.7,77.2,19.9,76.9L19.9,76.9z"/>
	<path fill-rule="evenodd" clip-rule="evenodd" fill="#FFFFFF" d="M20.5,78C20.3,78,20.7,78.1,20.5,78L20.5,78z"/>
	<path fill-rule="evenodd" clip-rule="evenodd" fill="#FFFFFF" d="M20.4,79.4C20.2,79.4,20.6,79.5,20.4,79.4L20.4,79.4z"/>
	<path fill-rule="evenodd" clip-rule="evenodd" fill="#FFFFFF" d="M22.3,81.7C22.5,81.6,22.5,82,22.3,81.7L22.3,81.7z"/>
	<path fill-rule="evenodd" clip-rule="evenodd" fill="#FFFFFF" d="M22,82.4c0.6-0.6,0.7,0.5,1,0.9C22.6,83.2,22.3,82.7,22,82.4z"/>
	<path fill-rule="evenodd" clip-rule="evenodd" fill="#FFFFFF" d="M22,83.4C21.9,83.4,22.2,83.5,22,83.4L22,83.4z"/>
	<path fill-rule="evenodd" clip-rule="evenodd" fill="#FFFFFF" d="M23.5,83.9c0.6-0.1,1.2,1.2,0.5,1.6
		C23.7,84.9,23.3,84.3,23.5,83.9z"/>
	<path fill-rule="evenodd" clip-rule="evenodd" fill="#FFFFFF" d="M23.7,85.3C23.1,85.6,23.5,84.3,23.7,85.3L23.7,85.3z"/>
	<path fill-rule="evenodd" clip-rule="evenodd" fill="#FFFFFF" d="M23,85.9C22.7,85,23.4,87.3,23,85.9L23,85.9z"/>
	<path fill-rule="evenodd" clip-rule="evenodd" fill="#FFFFFF" d="M23.7,85.3c0.1,0,0.1-0.1,0.2-0.1C24,85.3,23.9,85.5,23.7,85.3z"
		/>
	<path fill-rule="evenodd" clip-rule="evenodd" fill="#FFFFFF" d="M23.4,86.8C23.2,85.8,24,87.5,23.4,86.8L23.4,86.8z"/>
	<path fill-rule="evenodd" clip-rule="evenodd" fill="#FFFFFF" d="M23.4,87.3c0.3-0.1,0.4,0.4,0.6,0.2
		C24.2,88.2,23.3,87.9,23.4,87.3z"/>
	<path fill-rule="evenodd" clip-rule="evenodd" fill="#FFFFFF" d="M26.4,91.1C26.4,90.3,27.3,91.7,26.4,91.1L26.4,91.1z"/>
	<path fill-rule="evenodd" clip-rule="evenodd" fill="#FFFFFF" d="M27.4,91.5c-0.2,0-0.4,0.2-0.5,0C27,91.4,27.3,91.3,27.4,91.5z"/>
	<path fill-rule="evenodd" clip-rule="evenodd" fill="#FFFFFF" d="M5.2,33.5C5.3,32.6,5,35,5.2,33.5L5.2,33.5z"/>
	<path fill-rule="evenodd" clip-rule="evenodd" fill="#FFFFFF" d="M20.6,33.5c0-0.1,0-0.2,0-0.2c0.1,0,0.2,0,0.2,0
		c0,0.1,0,0.2,0,0.2C20.7,33.5,20.6,33.5,20.6,33.5z"/>
	<path fill-rule="evenodd" clip-rule="evenodd" fill="#FFFFFF" d="M4.2,33.8C4.5,33.7,4.3,34.1,4.2,33.8L4.2,33.8z"/>
	<path fill-rule="evenodd" clip-rule="evenodd" fill="#FFFFFF" d="M6.8,34.3c0-0.2,0.3-0.2,0.5-0.2C7.3,34.2,7,34.2,6.8,34.3z"/>
	<path fill-rule="evenodd" clip-rule="evenodd" fill="#FFFFFF" d="M30,4.3c0-0.1,0.2-0.3,0.2,0C30.2,4.3,30.1,4.3,30,4.3z"/>
	<path fill-rule="evenodd" clip-rule="evenodd" fill="#FFFFFF" d="M31.7,4.9C31.7,4.6,32,4.7,31.7,4.9L31.7,4.9z"/>
	<path fill-rule="evenodd" clip-rule="evenodd" fill="#FFFFFF" d="M32.2,3c0-0.7,0.4-0.8,0.7-0.5C33,3,32.7,3.1,32.2,3z"/>
	<path fill-rule="evenodd" clip-rule="evenodd" fill="#FFFFFF" d="M32.9,5.2c-0.2,0-0.2-0.3-0.2-0.5C32.9,4.7,32.8,5,32.9,5.2z"/>
	<path fill-rule="evenodd" clip-rule="evenodd" fill="#FFFFFF" d="M33.3,6.4C33,6.4,33.2,6,33.3,6.4L33.3,6.4z"/>
	<path fill-rule="evenodd" clip-rule="evenodd" fill="#FFFFFF" d="M33.3,5.9C33.2,6,33.5,5.8,33.3,5.9L33.3,5.9z"/>
	<path fill-rule="evenodd" clip-rule="evenodd" fill="#FFFFFF" d="M33.3,5C32.4,4.6,34.3,4.7,33.3,5L33.3,5z"/>
	<path fill-rule="evenodd" clip-rule="evenodd" fill="#FFFFFF" d="M34,5.5C33.1,5.1,35,5.2,34,5.5L34,5.5z"/>
	<path fill-rule="evenodd" clip-rule="evenodd" fill="#FFFFFF" d="M34.1,5C34,5.1,34.2,4.8,34.1,5L34.1,5z"/>
	<path fill-rule="evenodd" clip-rule="evenodd" fill="#FFFFFF" d="M34.2,6.9C34.1,7,34.4,6.8,34.2,6.9L34.2,6.9z"/>
	<path fill-rule="evenodd" clip-rule="evenodd" fill="#FFFFFF" d="M34.2,2.3c0.2,0,0.3,0,0.5,0c-0.1,0.2-0.2,0.3-0.5,0.2
		C34.2,2.5,34.2,2.4,34.2,2.3z"/>
	<path fill-rule="evenodd" clip-rule="evenodd" fill="#FFFFFF" d="M34.5,6.2C34.2,6.2,34.4,5.8,34.5,6.2L34.5,6.2z"/>
	<path fill-rule="evenodd" clip-rule="evenodd" fill="#FFFFFF" d="M34.6,4.5C34.5,4.6,34.7,4.4,34.6,4.5L34.6,4.5z"/>
	<path fill-rule="evenodd" clip-rule="evenodd" fill="#FFFFFF" d="M34.9,3.1C34.8,3.2,35,2.9,34.9,3.1L34.9,3.1z"/>
	<path fill-rule="evenodd" clip-rule="evenodd" fill="#FFFFFF" d="M34.7,2.4c0-0.1,0-0.3,0.3-0.2C34.9,2.3,34.9,2.4,34.7,2.4z"/>
	<path fill-rule="evenodd" clip-rule="evenodd" fill="#FFFFFF" d="M35.3,5C35,5,35,4.5,35.3,4.5C35.6,4.7,35.3,4.8,35.3,5z"/>
	<path fill-rule="evenodd" clip-rule="evenodd" fill="#FFFFFF" d="M35.3,4.1C35.2,4.2,35.5,3.9,35.3,4.1L35.3,4.1z"/>
	<path fill-rule="evenodd" clip-rule="evenodd" fill="#FFFFFF" d="M35.6,2.4C35.6,2.7,35.3,2.5,35.6,2.4L35.6,2.4z"/>
	<path fill-rule="evenodd" clip-rule="evenodd" fill="#FFFFFF" d="M35.7,5.8C35.6,5.9,35.9,5.6,35.7,5.8L35.7,5.8z"/>
	<path fill-rule="evenodd" clip-rule="evenodd" fill="#FFFFFF" d="M36.3,3.4c0.2,0.9-0.8,0.4-0.7,0C35.8,3.4,36.1,3.4,36.3,3.4z"/>
	<path fill-rule="evenodd" clip-rule="evenodd" fill="#FFFFFF" d="M36.2,5.6C36.1,5.6,36.4,5.4,36.2,5.6L36.2,5.6z"/>
	<path fill-rule="evenodd" clip-rule="evenodd" fill="#FFFFFF" d="M36.5,4.6c-0.2,0-0.2-0.3-0.2-0.5C36.5,4.1,36.4,4.4,36.5,4.6z"/>
	<path fill-rule="evenodd" clip-rule="evenodd" fill="#FFFFFF" d="M36.9,5.6c-0.5-0.4,0.2-0.6-0.2-1.2c0.3,0,0.7,0.1,0.7-0.2
		C38.1,4.5,36.9,5,36.9,5.6z"/>
	<path fill-rule="evenodd" clip-rule="evenodd" fill="#FFFFFF" d="M38.9,4.7c0.3,0.8-1.5,0.5-1.5,0.2C38.2,5.1,38.3,4.7,38.9,4.7z"
		/>
	<path fill-rule="evenodd" clip-rule="evenodd" fill="#FFFFFF" d="M39.1,6.1C38.8,6.2,38.9,5.8,39.1,6.1L39.1,6.1z"/>
	<path fill-rule="evenodd" clip-rule="evenodd" fill="#FFFFFF" d="M39.8,5.2c0.3,0.1,0.4,0.3,0.5,0.5C40,5.7,39.7,5.6,39.8,5.2z"/>
	<path fill-rule="evenodd" clip-rule="evenodd" fill="#FFFFFF" d="M40.8,4.3c0.2,0.1,0.4,0.3,0.7,0.3c-0.1,0.2-0.3,0.4-0.3,0.7
		C41,5.1,40.9,4.7,40.8,4.3z"/>
	<path fill-rule="evenodd" clip-rule="evenodd" fill="#FFFFFF" d="M41.2,7.2C40.3,6.9,42.2,7,41.2,7.2L41.2,7.2z"/>
	<path fill-rule="evenodd" clip-rule="evenodd" fill="#FFFFFF" d="M41,0.2C40.7,0.2,40.8-0.2,41,0.2L41,0.2z"/>
	<path fill-rule="evenodd" clip-rule="evenodd" fill="#FFFFFF" d="M41.9,7.2C41,6.9,42.9,7,41.9,7.2L41.9,7.2z"/>
	<path fill-rule="evenodd" clip-rule="evenodd" fill="#FFFFFF" d="M41.8,5.3c0.2-0.7,0.5,0.2,1,0C42.7,5.9,41.9,5.4,41.8,5.3z"/>
	<path fill-rule="evenodd" clip-rule="evenodd" fill="#FFFFFF" d="M41,0.2c0.4,0.1,0.5,0.4,0.5,1C41.1,1,41,0.6,41,0.2z"/>
	<path fill-rule="evenodd" clip-rule="evenodd" fill="#FFFFFF" d="M42.7,0.4c0-0.2,0.3-0.2,0.5-0.2C43.1,0.4,42.8,0.3,42.7,0.4z"/>
	<path fill-rule="evenodd" clip-rule="evenodd" fill="#FFFFFF" d="M39.3,0.9C39.3,1.2,38.9,1,39.3,0.9L39.3,0.9z"/>
	<path fill-rule="evenodd" clip-rule="evenodd" fill="#FFFFFF" d="M41.5,1.1C41.7,1.1,41.6,1.5,41.5,1.1L41.5,1.1z"/>
	<path fill-rule="evenodd" clip-rule="evenodd" fill="#FFFFFF" d="M42.4,1.4c0-0.2,0.3-0.2,0.5-0.2C42.9,1.3,42.6,1.3,42.4,1.4z"/>
	<path fill-rule="evenodd" clip-rule="evenodd" fill="#FFFFFF" d="M40.3,1.4c0.6,0.3,0.9,0.8,1.2,1.4C41.3,2.9,41,2.8,41,3
		c0.1,0,0.3,0,0.2,0.2c-0.2,0-0.5,0-0.7,0c0.2-0.6,0.4-1.1-0.2-1.4c0,0.4,0,0.8-0.5,0.7C39.7,2,40.2,1.8,40.3,1.4z"/>
	<path fill-rule="evenodd" clip-rule="evenodd" fill="#FFFFFF" d="M44.3,2.3c-0.6-0.1-0.6-0.6-0.2-1C44.5,1.4,44.3,1.9,44.3,2.3z"/>
	<path fill-rule="evenodd" clip-rule="evenodd" fill="#FFFFFF" d="M46.3,2.1C46,1.1,47,2,46.3,2.1L46.3,2.1z"/>
	<path fill-rule="evenodd" clip-rule="evenodd" fill="#FFFFFF" d="M39.3,2.1C39.2,2,39.4,2.2,39.3,2.1L39.3,2.1z"/>
	<path fill-rule="evenodd" clip-rule="evenodd" fill="#FFFFFF" d="M42.2,2.1C42.1,2,42.3,2.2,42.2,2.1L42.2,2.1z"/>
	<path fill-rule="evenodd" clip-rule="evenodd" fill="#FFFFFF" d="M42.9,2.1C43,1.5,44,1.9,43.6,2.6C43.4,2.4,43.4,2,42.9,2.1z"/>
	<path fill-rule="evenodd" clip-rule="evenodd" fill="#FFFFFF" d="M46.3,2.1C46.3,2.4,45.9,2.2,46.3,2.1L46.3,2.1z"/>
	<path fill-rule="evenodd" clip-rule="evenodd" fill="#FFFFFF" d="M44.3,2.3C44.6,2.3,44.5,2.7,44.3,2.3L44.3,2.3z"/>
	<path fill-rule="evenodd" clip-rule="evenodd" fill="#FFFFFF" d="M41.5,2.8c0.6,0.1,0.6,0.6,0,0.7C41.5,3.3,41.5,3,41.5,2.8z"/>
	<path fill-rule="evenodd" clip-rule="evenodd" fill="#FFFFFF" d="M43.9,3c0-0.2,0.3-0.2,0.5-0.2C44.3,3,44,3,43.9,3z"/>
	<path fill-rule="evenodd" clip-rule="evenodd" fill="#FFFFFF" d="M44.6,2.8c0.2,0.1,0.4,0.3,0.5,0c0.7,0.2-0.2,0.5,0,1
		C44.7,3.6,44.6,3.2,44.6,2.8z"/>
	<path fill-rule="evenodd" clip-rule="evenodd" fill="#FFFFFF" d="M45.8,3.3C45.7,3.2,45.9,3.4,45.8,3.3L45.8,3.3z"/>
	<path fill-rule="evenodd" clip-rule="evenodd" fill="#FFFFFF" d="M43.1,3.5C42.9,3.5,43,3.2,43.1,3.5L43.1,3.5z"/>
	<path fill-rule="evenodd" clip-rule="evenodd" fill="#FFFFFF" d="M43.1,3.5C43.4,3.5,43.3,3.9,43.1,3.5L43.1,3.5z"/>
	<path fill-rule="evenodd" clip-rule="evenodd" fill="#FFFFFF" d="M41.5,4.7c-0.2,0-0.3-0.2-0.5-0.2c0-0.3,0.1-0.5,0.2-0.7
		c0.4,0.1,0.2,0.8,1,0.5C42.2,4.6,41.5,4.4,41.5,4.7z"/>
	<path fill-rule="evenodd" clip-rule="evenodd" fill="#FFFFFF" d="M42.2,4C42.1,3.9,42.3,4.2,42.2,4L42.2,4z"/>
	<path fill-rule="evenodd" clip-rule="evenodd" fill="#FFFFFF" d="M45.5,3.8c0.4,0.2,0,0.4,0,0.7C45.1,4.3,45.5,4,45.5,3.8z"/>
	<path fill-rule="evenodd" clip-rule="evenodd" fill="#FFFFFF" d="M46,4c0-0.2,0.3-0.2,0.5-0.2C46.5,4,46.2,3.9,46,4z"/>
	<path fill-rule="evenodd" clip-rule="evenodd" fill="#FFFFFF" d="M42.7,4c0.6,0,1.2,0,1.4,0.2c-0.5,0.3-1,0.5-1.4,0.7
		C42.7,4.6,42.7,4.3,42.7,4z"/>
	<path fill-rule="evenodd" clip-rule="evenodd" fill="#FFFFFF" d="M44.6,4.2C44.5,4.1,44.7,4.4,44.6,4.2L44.6,4.2z"/>
	<path fill-rule="evenodd" clip-rule="evenodd" fill="#FFFFFF" d="M41.5,4.7C42.6,4.5,41.2,5.8,41.5,4.7L41.5,4.7z"/>
	<path fill-rule="evenodd" clip-rule="evenodd" fill="#FFFFFF" d="M43.9,5.4c-0.2,1-1.1-0.2-1.4,0.7c0.2,0.7,0.6-0.4,1,0.2
		c-0.2,0.3-0.5,0.4-1,0.5c-0.1-0.2-0.2-0.3-0.5-0.2c0.3-0.3,0.1-0.7-0.2-1C42.1,5.3,43.6,5.3,43.9,5.4z"/>
	<path fill-rule="evenodd" clip-rule="evenodd" fill="#FFFFFF" d="M43.9,5.4C43.8,5.2,44.2,5.3,43.9,5.4L43.9,5.4z"/>
	<path fill-rule="evenodd" clip-rule="evenodd" fill="#FFFFFF" d="M44.3,6.4c-0.3,0.1-0.5,0.4-0.5-0.2C44,6.2,44.3,6.2,44.3,6.4z"/>
	<path fill-rule="evenodd" clip-rule="evenodd" fill="#FFFFFF" d="M44.3,6.4c0.3,0.1,0.4,0.3,0.5,0.5c-0.3,0-0.2,0.4-0.5,0.5
		C44.3,7,44.3,6.7,44.3,6.4z"/>
	<path fill-rule="evenodd" clip-rule="evenodd" fill="#FFFFFF" d="M39.5,7.9c0-0.1,0-0.2,0-0.2c0.2,0.1,0.5,0,0.5,0.2
		C39.9,7.9,39.7,7.9,39.5,7.9z"/>
	<path fill-rule="evenodd" clip-rule="evenodd" fill="#FFFFFF" d="M43.4,9.3C43.3,9.2,43.5,9.5,43.4,9.3L43.4,9.3z"/>
	<path fill-rule="evenodd" clip-rule="evenodd" fill="#FFFFFF" d="M46,9.5C45.7,9.6,45.9,9.2,46,9.5L46,9.5z"/>
	<path fill-rule="evenodd" clip-rule="evenodd" fill="#FFFFFF" d="M43.1,9.8c0.2-0.4,0.4,0,0.7,0C43.7,10.2,43.4,9.8,43.1,9.8z"/>
	<path fill-rule="evenodd" clip-rule="evenodd" fill="#FFFFFF" d="M46,9.5c0.1,0,0.3,0,0.2,0.2C46.1,9.8,46,9.7,46,9.5z"/>
	<path fill-rule="evenodd" clip-rule="evenodd" fill="#FFFFFF" d="M40,10.5C39.9,10.4,40.2,10.7,40,10.5L40,10.5z"/>
	<path fill-rule="evenodd" clip-rule="evenodd" fill="#FFFFFF" d="M46.3,12.9c-0.2-0.8,0.5-0.4,0.5,0C46.6,12.9,46.4,12.9,46.3,12.9
		z"/>
	<path fill-rule="evenodd" clip-rule="evenodd" fill="#FFFFFF" d="M40.7,13.9C40.6,13.8,40.9,14,40.7,13.9L40.7,13.9z"/>
	<path fill-rule="evenodd" clip-rule="evenodd" fill="#FFFFFF" d="M43.9,13.6c-0.1,0.2,0,0.5-0.2,0.5C43.7,13.9,43.6,13.6,43.9,13.6
		z"/>
	<path fill-rule="evenodd" clip-rule="evenodd" fill="#FFFFFF" d="M39.8,14.1c0-0.1,0.5-0.4,0.7-0.2C40.7,14,39.5,14.5,39.8,14.1z"
		/>
	<path fill-rule="evenodd" clip-rule="evenodd" fill="#FFFFFF" d="M42.9,14.3c0-0.2,0.3-0.2,0.5-0.2C43.4,14.3,43.1,14.3,42.9,14.3z
		"/>
	<path fill-rule="evenodd" clip-rule="evenodd" fill="#FFFFFF" d="M40,14.8C39.7,14.9,39.9,14.5,40,14.8L40,14.8z"/>
	<path fill-rule="evenodd" clip-rule="evenodd" fill="#FFFFFF" d="M35.2,15.1C35.3,14.1,35,16.5,35.2,15.1L35.2,15.1z"/>
	<path fill-rule="evenodd" clip-rule="evenodd" fill="#FFFFFF" d="M40,14.8C41,14.9,40,15.9,40,14.8L40,14.8z"/>
	<path fill-rule="evenodd" clip-rule="evenodd" fill="#FFFFFF" d="M42.9,15.1C42.8,15,43.1,15.2,42.9,15.1L42.9,15.1z"/>
	<path fill-rule="evenodd" clip-rule="evenodd" fill="#FFFFFF" d="M44.1,15.1C44.1,14.8,44.5,14.9,44.1,15.1L44.1,15.1z"/>
	<path fill-rule="evenodd" clip-rule="evenodd" fill="#FFFFFF" d="M41.2,15.3C41.8,14.4,41.6,16.1,41.2,15.3L41.2,15.3z"/>
	<path fill-rule="evenodd" clip-rule="evenodd" fill="#FFFFFF" d="M39,15.3c0.3,0.1,0.2,0.6,0.2,1C38.7,16.2,38.7,15.6,39,15.3z"/>
	<path fill-rule="evenodd" clip-rule="evenodd" fill="#FFFFFF" d="M42.4,16.5c-0.3-0.3-0.1-0.9,0.2-1.2c-0.1,0.6,1,1.2,0.2,1.7
		C42.6,17,42.7,16.6,42.4,16.5z"/>
	<path fill-rule="evenodd" clip-rule="evenodd" fill="#FFFFFF" d="M39.5,15.8C39.4,15.7,39.7,15.9,39.5,15.8L39.5,15.8z"/>
	<path fill-rule="evenodd" clip-rule="evenodd" fill="#FFFFFF" d="M41.2,16.3c0-0.2,0.3-0.2,0.5-0.2C41.7,16.3,41.4,16.2,41.2,16.3z
		"/>
	<path fill-rule="evenodd" clip-rule="evenodd" fill="#FFFFFF" d="M39.5,16.5C39.4,16.4,39.7,16.7,39.5,16.5L39.5,16.5z"/>
	<path fill-rule="evenodd" clip-rule="evenodd" fill="#FFFFFF" d="M40.7,16.3c0.3,0.1,0.5,0.3,0.5,0.7
		C40.4,17.2,40.4,16.6,40.7,16.3z"/>
	<path fill-rule="evenodd" clip-rule="evenodd" fill="#FFFFFF" d="M42.4,16.5c0,0.4-0.2,0.6-0.5,0.7C41.9,16.8,42.1,16.6,42.4,16.5z
		"/>
	<path fill-rule="evenodd" clip-rule="evenodd" fill="#FFFFFF" d="M42.4,17.5C42.3,17.4,42.6,17.6,42.4,17.5L42.4,17.5z"/>
	<path fill="#FFFFFF" d="M18.1,29.3c-0.1-0.5,0.1-0.6,0.2-0.9c0-0.1,0-0.2,0-0.3c0,0,0,0,0,0.1c-1.7-1.1-0.2,1.4-0.5,1.9
		c0.2,0.4,0.3,0.1,0.6-0.2c0-0.2,0-0.3,0-0.5C18.3,29.3,18.2,29.3,18.1,29.3z"/>
	<path fill="#FFFFFF" d="M60.3,33.1c0-0.4,0-0.7,0-1.1c0-12.8-8.1-23.7-19.5-27.8c-0.4,0.8,1.5,0.5,1.3,1.5c-1-0.4-1.1-0.3-1.9-1
		c0.1,0.5-0.5,0.3-0.5,0.7c1.2,0.4,1.7-0.1,2.2,1c-1.8,0.5-5.7,0.8-7.9,0.2c0.2,0,0.2-0.3,0.2-0.5c-0.7-0.1-0.2,0.9-0.7,1
		c-0.3-0.1-0.1-0.7-0.5-0.7C32.8,7,32.6,7,32.3,6.7C31.5,8.9,30,4,29.1,6.5c0.7-0.6,1.4,0.2,1.7,0.7c-0.6,0.5-1.6,0-1.7-0.7
		c-1-0.2-1.8-0.6-2.2-1.4c0.4-0.6,1.2-0.9,1.9-1.2c-0.6,0.6,0.4,0.6,0.7,0.2c0.6-1.5,3.4-0.9,5.1-1.4c-1.3-0.2-2.6-0.3-3.9-0.3
		c-1.6,0-3.2,0.1-4.7,0.4c0,0,0,0,0,0c0,0-0.1,0-0.1,0c-1.5,0.2-2.9,0.6-4.3,1.1c0,0.1,0,0.1-0.1,0.2c0,0.3-0.3,0.1,0,0
		c0,0,0-0.1,0-0.1C11.3,7.3,3.5,16,1.6,26.7c0.1,0,0.1,0.1,0.1,0.2c0,0.2-0.1,0.2-0.2,0.1c-0.3,1.6-0.4,3.3-0.4,5
		c0,3.3,0.5,6.4,1.5,9.3c-0.1-0.6-0.1-1.4-0.2-2c0.4,0,0.8,0,1.2,0c0-0.2,0-0.5,0-0.7c-0.6-0.1-0.5,0.4-1.2,0.2
		c-0.4-0.9,0-1.2-0.2-1.9c0.6-0.2,2.5-0.7,2.4,0.5c0.1,0,0.2,0,0.2,0c0-0.5,0.2-0.8,0.7-0.7c0.2,0.6-0.5,0.5-0.7,0.7
		c0,0.3-0.1,0.5-0.2,0.7c0.7-0.5,0.9-0.2,1.7-0.7c0.7,0.2-0.3,0.6,0,1.2c0.3,0,0.5-0.1,0.7-0.2c-0.2-1,0.7,0,0,0c0,0.1,0,0.2,0,0.2
		c0,0.4,0.6,0.2,1,0.2c-0.3,0.3-0.2,0.8,0.5,0.7C8,40.7,7.1,39,6.3,38.9c0-0.1,0-0.2,0-0.2c-0.1,0-0.2,0-0.2,0c0,0.3-0.3,0.1,0,0
		c-0.1-0.2-0.2-0.3-0.5-0.2c-0.5,0,0.4,0.9-0.2,1.2c0.6,0.5,1.3-0.8,1.4,0.5C7.6,40,7,40.8,6.5,40.6c-0.1,0.2-0.2,0.3-0.5,0.2
		c0,0.3-0.3,0.1,0,0c0.1-0.2,0.2-0.3,0.5-0.2c0-0.2,0.2-0.3,0.2-0.5c-1.7,0-2.6,1.1-3.8,2.1c0.1,0.2,0.2,0.4,0.3,0.7
		c0.1-0.1,0.2-0.2,0.4-0.4c0.2,0.4,0.1,0.8-0.1,1.2c0.5,1.1,1,2.1,1.6,3.1h0L8,52.7c0-0.1,0-0.2,0-0.2c0.2,0,0.3,0,0.5,0
		c0,0.2,0,0.3,0,0.5c-0.1,0-0.2,0-0.4,0l7,14c0.1-0.1,0.3-0.1,0.4-0.1c0,0.2-0.2,0.2-0.3,0.2l1.8,3.7c0.2,0.1,0.3,0.3,0.2,0.5
		l0.3,0.6c0.1,0,0.2-0.1,0.2-0.2c-0.3,0-0.1-0.4,0,0c0.4-0.1,0.4,0.6,0.1,0.8l0.7,1.5c0.1,0,0.2,0,0.3-0.1c0,0,0,0,0,0c0,0,0,0,0,0
		c0,0,0,0,0.1,0c0,0,0,0,0,0c0,0,0,0,0,0c-0.1,0.1-0.1,0.2-0.2,0.3l0.1,0.2c0.1,0,0.1,0.1,0.1,0.2c0.5-0.4,1.1-0.8,1.7-0.5
		c0.2-0.7-0.5-0.5-0.5-1c-0.3,0.1-0.5,0.3-0.5,0.7c-0.6-0.1-0.1-1.1,0-1.2c0.3,0.1,0.4,0.3,0.5,0.5c0.2-0.1,0.5,0,0.5-0.2
		c0.5,0,0.1,1,0.2,1.4c-0.6-0.1-0.9,0.1-0.7,0.7c-0.6,0.1-0.7-0.2-1.2-0.3c0,0,0,0,0,0l0.8,1.5c0.1-0.1,0.3-0.1,0.4-0.1
		c0,0.2-0.2,0.2-0.3,0.2l7.8,15.7c0.1-0.2,0.1-0.4,0.2-0.5c0.3-0.1,0.6,0.9,0.7,0.2c0.8,0.5-0.4,0.8-0.5,1.2l0,0.1
		c0.2,0.1,0.2,0.2,0.2,0.3l0.9,1.8c0,0,0.1,0,0.1,0c0,0.1,0,0.1,0,0.2l0.3,0.6c0,0,0,0,0,0l1.3,2.7l4.1-8.3
		c-0.1,0.1-0.1,0.1-0.2,0.3c-0.4,0-0.9,0.1-1-0.2c-0.9,0.1,0.2,1.1-1,1.2c0-0.1,0-0.2,0-0.2c-1,0.1,0-0.3-0.2-1
		c1.1,0.2,1-0.8,1.4-1.2c0.1,0,0.2,0,0.2,0c-0.1-0.8,1.1-0.8,0.5-1.4c-0.2,0-0.3,0-0.5,0c0-0.2,0-0.3,0-0.5c-0.3,0-0.9,0.1-0.5,0.2
		c0,0.5-0.9,0.1-1.2,0.2c0.3-0.7,1.2-0.7,1.4-1.4c-0.9-0.1-1.4,0.2-1.4,1c-0.4,0-0.8,0-1.2,0c0.1-0.2,0.2-0.3,0.5-0.2
		c0-0.3-0.3-0.4-0.5-0.5c0.4-0.8,1.2,0.3,1-1.2c1.3,1,1.9-0.7,3.1-0.5c0.6,0.2-0.3,0.9-0.7,1c0,0.5,0.7,0.3,0.5,1
		c-0.5-0.1-0.9,0.1-1,0.5c0.2,0,0.5,0,0.7,0c0,0.2-0.2,0.3-0.2,0.5c0.3,0,0.5,0.1,0.7,0.2c0-0.2,0-0.5,0-0.7c0.9,0.4,0-1.1,1-0.7
		c0.2,0.9-0.5,0.9-0.5,1.7c-0.1,0-0.2,0-0.2,0c-0.1,0.3-0.3,0.5-0.7,0.5c0,0.2,0.2,0.3,0.2,0.5c0.1,0,0.2,0,0.3,0l1.4-2.8
		c-0.1,0-0.1,0-0.2,0c0.1-0.2,0.3-0.4,0-0.5c0.1-0.5,0.4-0.3,0.5,0l7.3-14.7c0,0-0.1-0.1,0,0c0,0,0,0,0,0L51.9,56
		c-0.1,0-0.2-0.1-0.4-0.2c0.3-0.2,0.5-0.6,0.9-0.8l1.2-2.4c-0.1,0-0.2,0-0.4,0.1c0-0.2,0.3-0.2,0.4-0.2l0.5-1.1
		c-0.1,0-0.2-0.2-0.3-0.4c0,0.2,0,0.5,0,0.7c-0.4,0-0.2-0.6-0.7-0.5c0.5-0.8-0.4-1.6,0.7-1.9c0,0.8-0.5,1,0,1.7
		c0.3-0.3,0.4-0.2,0.4,0l2-4.1h0c0.4-0.6,0.7-1.3,1-2c-0.1-0.1-0.1-0.4-0.1-0.6c0.2,0,0.3,0,0.4,0.1c1.5-3.3,2.4-6.9,2.6-10.7
		c0,0-0.1-0.1-0.1-0.3C60.2,33.2,60.3,33.1,60.3,33.1z M29.4,3.1C29.3,3,29.5,3.2,29.4,3.1L29.4,3.1z M1.7,32.9
		C1.9,33.1,1.6,32.8,1.7,32.9L1.7,32.9z M3.1,42.3C3,42.2,3.3,42.5,3.1,42.3L3.1,42.3z M28.4,93.8C28.3,93.7,28.6,94,28.4,93.8
		L28.4,93.8z M33.7,90.9c0.2,0,0.3,0,0.5,0c0,0.2,0,0.3,0,0.5c-0.2,0-0.3,0-0.5,0C33.7,91.2,33.7,91.1,33.7,90.9z M34.2,88
		c-0.1,0.4-0.4,0.6-0.5,1C33.1,88.8,33.6,87.8,34.2,88z M35.4,85.9C35.5,86,35.3,85.8,35.4,85.9L35.4,85.9z M56.1,31.2
		c-0.3-0.1-0.4-0.4-0.7-0.5C55.4,30.2,56.3,30.7,56.1,31.2z M56.1,33.6C56.2,33.8,56,33.5,56.1,33.6L56.1,33.6z M55.6,16.1
		c0,0.2-0.3,0.2-0.5,0.2C55.1,16.1,55.4,16.1,55.6,16.1z M55.3,31.2c0.2,0,0.2,0.2,0.5,0.2c0,0.2,0,0.3,0,0.5
		c-0.5,0.1-0.6-0.2-1-0.2C54.9,31.5,55.3,31.6,55.3,31.2z M55.1,41.3C56.2,41.5,54.9,42.8,55.1,41.3L55.1,41.3z M55.3,42.5
		C55.2,42.4,55.5,42.7,55.3,42.5L55.3,42.5z M55.1,33.9C55.3,34,55,33.8,55.1,33.9L55.1,33.9z M55.1,33.2
		C55.3,33.3,55,33.1,55.1,33.2L55.1,33.2z M55.3,32.4C55.2,32.3,55.5,32.6,55.3,32.4L55.3,32.4z M54.9,37.3
		C55.1,36.3,55.1,38.2,54.9,37.3L54.9,37.3z M54.9,30.3C54.8,30.2,55,30.4,54.9,30.3L54.9,30.3z M54.6,38.5
		C55,37.7,55.2,39.4,54.6,38.5L54.6,38.5z M54.1,14.6c0.5-0.1,0.5,0.3,0.5,0.7c-0.2,0-0.2-0.2-0.5-0.2C54.1,15,54.1,14.8,54.1,14.6z
		 M54.1,30C54.3,30.2,54,29.9,54.1,30L54.1,30z M53.9,18.5C54.1,18.6,53.8,18.4,53.9,18.5L53.9,18.5z M54.1,31.2
		c0,0.2-0.3,0.2-0.5,0.2C53.7,31.2,54,31.3,54.1,31.2z M53.4,14.4C53.3,14.3,53.6,14.6,53.4,14.4L53.4,14.4z M53.2,19.7
		C53.3,19.8,53.1,19.6,53.2,19.7L53.2,19.7z M51.3,34.6c0.8-0.5,0.3-0.6-0.2-1c-0.3,0-0.1-0.4,0,0c0.4,0,0.8,0,1.2,0
		C51.9,33.9,52.2,34.9,51.3,34.6z M51.7,49C52,48.1,52,50,51.7,49L51.7,49z M51.5,35.1C51.2,35.1,51.4,34.7,51.5,35.1
		C51.8,35.1,51.6,35.4,51.5,35.1z M52,31.5C51.9,31.4,52.1,31.6,52,31.5L52,31.5z M51.5,12c-0.1,0.3-0.3,0.5-0.7,0.5
		C50.7,12,51.1,12,51.5,12z M50.8,13.4c0.7-0.4,0.7,1.1,0,0.7C50.8,13.9,50.8,13.7,50.8,13.4z M50.8,27.6
		C51.4,26.7,51.1,28.4,50.8,27.6L50.8,27.6z M50.8,43.5C50.7,43.4,50.9,43.7,50.8,43.5L50.8,43.5z M50.8,51.4c0.2,0,0.3,0,0.5,0
		c0-0.1,0-0.2,0-0.2c-0.1,0-0.3-0.2,0-0.2c0-0.3,0.3-0.1,0,0c0,0.1,0,0.2,0,0.2c0.1,0,0.3,0.2,0,0.2c-0.1,0.5,0.3,1.4-0.5,1.2
		C51.2,52.2,50.6,52.2,50.8,51.4z M49.1,10.1c0.5,0.6,1.2-0.5,1.2,0.7c-0.3-0.3-0.7-0.1-1,0.2C48.8,11,48.8,10.4,49.1,10.1z
		 M49.1,11.5C49.3,11.7,49,11.4,49.1,11.5L49.1,11.5z M48.1,10.5C48,10.4,48.3,10.7,48.1,10.5L48.1,10.5z M46.4,10.3
		C47.2,9.4,47.3,11,46.4,10.3L46.4,10.3z M46.4,7.2C46.6,7.3,46.3,7.1,46.4,7.2L46.4,7.2z M46.2,10.8C46.1,10.7,46.4,10.9,46.2,10.8
		L46.2,10.8z M43.1,10.5c0.2,0,0.5,0,0.7,0c0,0.4-0.1,0.9,0.2,1c0.4-0.2-0.1-0.4,0.2-1c0.5,0,1,0,1.4,0c-0.2,0.3-0.5,0.4-1,0.5
		c1,0.5,1.4-0.1,2.6,0c0,0.2,0,0.5,0,0.7c1.1-0.7,2.5-0.1,2.6,1.4c-0.4-0.5-0.9-0.1-1.4,0c0.3-0.8-0.4-0.6-0.5-1
		c-0.2,0.2-0.4,0.4-0.5,0.7c0.2,0.2,0.6,0.2,0.5,0.7c-0.9-0.5-2.2-0.5-2.9-1.2c-0.5-0.1-0.5,0.3-0.5,0.7c-0.5-0.1-0.5-0.6-0.7-1
		c-0.4,0.7-1.1-0.5-1.4,0.2c-0.4-0.2,0-0.4,0-0.7c-0.9,0.5-1.3-0.1-2.4,0C40.6,10.4,43.2,11.9,43.1,10.5z M49.6,13.7
		c0-0.2,0.3-0.2,0.5-0.2C50.1,13.7,49.8,13.6,49.6,13.7z M49.8,22.1C50,22.3,49.7,22,49.8,22.1L49.8,22.1z M49.3,15.8
		C49.7,15,49.9,16.8,49.3,15.8L49.3,15.8z M48.6,13.9c0.1-0.7,0.8-0.5,0.7,0.2C49.1,14,48.9,13.9,48.6,13.9z M50.1,21.6
		C50.2,21.8,50,21.5,50.1,21.6L50.1,21.6z M40.9,10.1C40.8,10,41.1,10.2,40.9,10.1L40.9,10.1z M41.6,7.2C41.8,7.3,41.5,7.1,41.6,7.2
		L41.6,7.2z M41.9,9.3c-0.1,0.5-1.3,0.2-1.4,0C40.5,8.8,41.7,9.2,41.9,9.3z M39.7,7.7C39.9,7.8,39.6,7.6,39.7,7.7L39.7,7.7z M40,9.1
		c0,0.2-0.3,0.2-0.5,0.2C39.5,9.1,39.8,9.2,40,9.1z M40.2,9.8c0.1,0.2,0.6,0.9-0.2,0.7c0,0.2,0,0.5,0,0.7c-1.3,0.3-3-0.1-4.6-0.2
		c0.6-1,0.1-0.2-0.2-1.2C36.2,9.5,38.1,9.9,40.2,9.8z M35.4,13.4C35.5,13.6,35.3,13.3,35.4,13.4L35.4,13.4z M34.2,9.6
		c0.9-0.1,0.7,0.9,1,1.4c-0.5,0.1-0.5-0.3-0.7-0.5c0.1,0.4-0.3,0.6-0.2,0c-0.2,0-0.3-0.2-0.5-0.2C33.7,9.9,34.3,10.1,34.2,9.6z
		 M34.7,14.9C35.3,13.9,35,15.7,34.7,14.9L34.7,14.9z M34.4,16.1C34.3,16,34.6,16.2,34.4,16.1L34.4,16.1z M33.5,9.8
		c0.1,0.5-0.2,0.6-0.2,1c-0.4-0.2-0.8-0.4-0.7-1C32.8,9.8,33.1,9.8,33.5,9.8z M33.2,14.6C33.4,14.8,33.1,14.5,33.2,14.6L33.2,14.6z
		 M31.5,10.3C31.7,10.5,31.4,10.2,31.5,10.3L31.5,10.3z M30.8,14.9C31.6,14.3,30.2,15.7,30.8,14.9L30.8,14.9z M28.2,16.1
		c-0.1,0.3-0.2,0-0.5,0C27.7,15.8,28.2,15.8,28.2,16.1z M27.2,15.1C27.4,15.3,27.1,15,27.2,15.1L27.2,15.1z M26.7,3.1
		C27,2.1,27,4,26.7,3.1L26.7,3.1z M24.1,3.6c0,0.2-0.3,0.2-0.5,0.2C23.6,3.6,23.9,3.6,24.1,3.6z M25,5.7c0.7,0.2,0.6-0.3,1.2-0.2
		c0,0.3,0,0.7,0.2,0.7C25.9,6.7,25,6.1,25,5.7c-0.6,0.4-0.8,1.3-1.7,0.7C23.2,5.7,24.6,5.2,25,5.7z M25.3,13.9
		c0.1-0.6,0.9,0,0.7,0.5C25.5,14.5,25.7,13.9,25.3,13.9z M25.5,15.8C25.4,15.7,25.7,16,25.5,15.8L25.5,15.8z M23.1,8.6
		C23,8.5,23.3,8.8,23.1,8.6L23.1,8.6z M22.9,6.2C23.1,5.3,23.1,7.2,22.9,6.2L22.9,6.2z M23.4,14.4c0.5,0,0.1-0.9,0.2-1.2
		c1,0.1,1.3,0.9,1.7,1.7c-0.6,0-0.5-0.8-1.2-0.7c0.1,0.5-0.3,0.5-0.2,1c-1.1-0.7-1.4-0.9-2.9-1C21.9,14,23.4,13.1,23.4,14.4z
		 M25.3,15.1c0,0.2-0.3,0.2-0.5,0.2C24.8,15.1,25.1,15.2,25.3,15.1z M21.7,11.5c0-0.2,0.3-0.2,0.5-0.2
		C22.1,11.5,21.9,11.5,21.7,11.5z M22.4,11.5C22.5,11.7,22.3,11.4,22.4,11.5L22.4,11.5z M22.1,10.8c0,0.5-1,0.1-1.4,0.2
		C20.8,10.2,21.6,10.7,22.1,10.8z M18.5,9.3C18.4,9.2,18.7,9.5,18.5,9.3L18.5,9.3z M15.9,14.6C16,14.8,15.8,14.5,15.9,14.6
		L15.9,14.6z M15.7,10.1C15.6,10,15.8,10.2,15.7,10.1L15.7,10.1z M19.3,15.1c0,0.3-0.3,0.3-0.2,0.7c2.1-0.9,4.1,0.2,5.1,1.7
		c-0.6-0.4-0.7-0.3-0.5,0.5c-0.8,0-1-0.6-1.7-0.7c0-0.1,0-0.2,0-0.2c-0.9-0.2-1.1,0-1.7-0.2c0,0.3-0.4,0.1,0,0
		c-1.8-0.8-2.2-0.8-4.1-1c0.6-1-0.3-0.4-1-0.7C16.6,14.2,17.9,16.6,19.3,15.1z M22.4,19C22.5,19.1,22.3,18.9,22.4,19L22.4,19z
		 M21.7,17.8C21.6,17.7,21.8,17.9,21.7,17.8L21.7,17.8z M18.8,21.6C18.7,21.5,18.9,21.8,18.8,21.6L18.8,21.6z M18.1,19.2
		C18.4,18.4,18.7,20.1,18.1,19.2L18.1,19.2z M15.9,16.8C15.8,16.7,16,17,15.9,16.8L15.9,16.8z M14.4,14.9
		C15.2,14.1,14.9,15.7,14.4,14.9C13.2,15.1,14.2,14.1,14.4,14.9z M14,16.8C14,17.1,13.6,16.9,14,16.8C14,16.1,15,17,14,16.8z
		 M13.7,15.6C13.6,15.5,13.9,15.8,13.7,15.6L13.7,15.6z M13.5,15.4c-0.1,0.3-0.2,0-0.5,0C13.1,15.1,13.5,15.1,13.5,15.4z M10.8,11.3
		C11,11.4,10.7,11.2,10.8,11.3L10.8,11.3z M11.1,19.2c2.6,0.3,4.1-1.3,6.3-0.2c-1.5,0.6-4.1,1.1-5.8,1c0,0.4-0.3,0.7-1,1
		C9.4,20.4,11.2,20.1,11.1,19.2z M16.4,19.9C16.5,20.1,16.3,19.8,16.4,19.9L16.4,19.9z M15.7,20.2C15.6,20.1,15.8,20.3,15.7,20.2
		L15.7,20.2z M13.2,22.6C13.4,22.7,13.1,22.5,13.2,22.6L13.2,22.6z M11.3,22.3C11.2,22.2,11.5,22.5,11.3,22.3L11.3,22.3z M10.1,21.9
		c-0.2,0-0.3,0-0.5,0c0-0.2-0.1-0.2-0.2-0.2C9.3,21.1,10.5,21.3,10.1,21.9z M8.4,18.5c0.1-0.4,0.4-0.5,1-0.5
		C9.3,18.4,9,18.5,8.4,18.5C8.5,18.8,8.1,18.6,8.4,18.5z M8.9,22.3C9.5,21.4,9.3,23.1,8.9,22.3L8.9,22.3z M8.7,21.4
		C8.6,21.3,8.8,21.5,8.7,21.4L8.7,21.4z M8.4,22.1C8.7,21.1,8.7,23,8.4,22.1L8.4,22.1z M8,13.7C7.9,13.6,8.1,13.8,8,13.7L8,13.7z
		 M8,20.4C7.9,20.3,8.1,20.6,8,20.4L8,20.4z M8,21.6c-0.1,0.3-0.2,0-0.5,0C7.5,21.3,7.9,21.4,8,21.6z M7.2,23.5
		c-0.6-0.1-0.7-0.8-1-1.2C7.1,22.2,7.2,22.8,7.2,23.5z M6.7,25.5C6.6,25.4,6.9,25.6,6.7,25.5L6.7,25.5z M6.5,23.3
		c0,0.2-0.3,0.2-0.5,0.2C6,23.3,6.3,23.3,6.5,23.3z M6.3,24.7C6.3,25,6,24.9,5.8,25C5.8,24.7,6.1,24.8,6.3,24.7z M5.3,29.6
		c0,0.2-0.3,0.2-0.5,0.2C4.8,29.6,5.1,29.6,5.3,29.6z M3.6,24.3c0.2,0,0.5,0,0.7,0c0.1,0.4-0.2,0.4-0.2,0.7c-0.2,0-0.3,0-0.5,0
		C3.6,24.7,3.6,24.5,3.6,24.3z M3.1,30.5C3,30.4,3.3,30.7,3.1,30.5L3.1,30.5z M2.2,32.2c0.4,0.1,1.2-0.2,1,0.5
		c-0.2,0-0.2-0.1-0.2-0.2c-0.2,0.2-0.4,0.4-0.5,0.7C2.1,33.1,2.2,32.6,2.2,32.2z M2.9,35.8C3.1,36,2.8,35.7,2.9,35.8L2.9,35.8z
		 M3.4,34.1c-0.6-0.1,0-0.9,0.5-0.7C3.8,33.7,3.4,33.8,3.4,34.1z M3.4,32.7c0-0.2,0.3-0.2,0.5-0.2C3.9,32.7,3.6,32.6,3.4,32.7z
		 M4.1,35.8c0-0.2,0.3-0.2,0.5-0.2C4.6,35.8,4.3,35.8,4.1,35.8z M3.4,29.6c0-0.6,0.8-0.1,1,0c0-0.2,0-0.3,0-0.5
		c-0.5-0.1-0.5-0.4-0.2-0.7c0.2,0,0.3,0,0.5,0c0,0.3-0.1,0.5-0.2,0.7c0.2,0,0.3,0.4,0,0.5c0,0.5,0.6,0.5,1.2,0.5
		C5.4,30.8,3.6,30.2,3.4,29.6z M5.5,27.9c0-0.2,0.3-0.2,0.5-0.2C6,27.9,5.7,27.8,5.5,27.9z M5.8,37.5C5.9,37.7,5.7,37.4,5.8,37.5
		L5.8,37.5z M6.3,32.4C6.2,32.3,6.4,32.6,6.3,32.4L6.3,32.4z M5.8,31c0-0.3,0.4-0.2,0.7-0.2C6.5,31,6.1,31,5.8,31z M6.3,29.1
		C6.2,29,6.4,29.2,6.3,29.1L6.3,29.1z M6.7,36.3C6.6,36.2,6.9,36.4,6.7,36.3L6.7,36.3z M6.7,31.2C6.6,31.1,6.9,31.4,6.7,31.2
		L6.7,31.2z M5.8,26.2c0.3-0.7,1.1,0.2,1.4,0.2c0,0.2-0.2,0.3-0.2,0.5c1-0.2,0.1,0.7,0,0C6.2,27,6.4,26.3,5.8,26.2z M7.2,25.5
		c0.2-0.6,1.5-0.2,1.2,0.5C7.7,26.1,7.5,25.7,7.2,25.5z M7,35.1C6.9,35,7.1,35.2,7,35.1L7,35.1z M7,27.6c0.9-0.8,1.2,0.9,2.2,0.7
		c-0.7,1.1,0.5,0.9,0.7,1.7c0.5,0.3,0.7,0.9,1,1.4c-1.1,0.1-1.8-0.2-2.4-0.5c0.5-1-0.7-1.5-0.2-2.4C7.7,28.4,7.4,27.9,7,27.6z
		 M8.9,25.9c0.7-0.2,0.5,0.5,1,0.5C9.7,27,8.7,26.5,8.9,25.9z M11.1,34.1c-0.3,0.8-0.7-0.2-0.5-0.7c-0.8,0.8-0.4-0.9,0,0
		C11.7,33.2,10.3,34,11.1,34.1z M11.3,35.8c-0.2,0-0.5,0-0.7,0c-0.1-0.5,0.5-0.3,0.5-0.7C11.4,35.1,11.3,35.5,11.3,35.8z M11.3,29.3
		C11.2,29.2,11.5,29.5,11.3,29.3L11.3,29.3z M10.4,38C10.3,37.9,10.5,38.1,10.4,38L10.4,38z M9.2,44c0.1-0.3,0.3-0.5,0.7-0.5
		C9.8,43.8,9.6,44,9.2,44z M9.2,44.5C9.3,44.6,9.1,44.4,9.2,44.5L9.2,44.5z M9.2,43.3c-0.7-0.2,0.1-1,0.7-0.7
		C10,43.1,9.2,42.8,9.2,43.3z M9.2,41.3C9.4,42.3,8.4,41.4,9.2,41.3C9.1,41.1,9.5,41.2,9.2,41.3z M9.2,35.3
		C9.3,35.5,9.1,35.2,9.2,35.3L9.2,35.3z M9.4,41.8C9.3,41.7,9.6,42,9.4,41.8L9.4,41.8z M9.9,39.7C10,39.8,9.8,39.6,9.9,39.7
		L9.9,39.7z M9.9,37.3C10,37.4,9.8,37.2,9.9,37.3L9.9,37.3z M7.5,35.8C7.3,37.2,7.6,34.8,7.5,35.8L7.5,35.8z M8,32.9
		c0-0.4,0-0.8,0.5-0.7C7.9,32.6,8.9,33,8,32.9C8,33.2,7.6,33.1,8,32.9z M8,35.3C7.7,36.7,8.1,34.4,8,35.3L8,35.3z M8.4,36.8
		C7.5,36.7,8.5,35.7,8.4,36.8c0.1,0,0.2,0,0.2,0c-0.1-0.4,0.3-0.6,0.2,0c0.7,0-0.2,1,0,0c-0.1,0-0.2,0-0.2,0
		C8.8,37.6,8.3,37.6,8.4,36.8z M6.3,43.3c0-0.4,0.2-0.6,0.7-0.5c0.1-0.7,1-0.4,1.2-1c0.6,0.4-0.5,1-1.2,1
		C6.9,43.1,6.7,43.3,6.3,43.3C6.3,43.6,5.9,43.4,6.3,43.3z M8.2,43C8.1,42.9,8.3,43.2,8.2,43L8.2,43z M6,41.8
		C5.9,41.7,6.2,42,6,41.8L6,41.8z M3.9,42.1C4,42.2,3.8,42,3.9,42.1L3.9,42.1z M4.6,42.5c-0.8,0.2-0.4-0.5,0-0.5c0-0.3,0.3-0.1,0,0
		C4.6,42.2,4.6,42.4,4.6,42.5c0.9,0.3,0.4-0.9,1.2-0.7c0.4,0.7-0.9,1.4-1.7,1.7C4.1,43,4.8,43.2,4.6,42.5z M5.5,43.5
		C5.4,43.4,5.7,43.7,5.5,43.5L5.5,43.5z M4.6,44.7c-0.7-0.3,0.3-1,1-0.7C5.5,44.5,4.6,44.2,4.6,44.7z M5.1,46.4
		C5,46.3,5.2,46.6,5.1,46.4L5.1,46.4z M7,45.4c-0.9-0.2-1,0.9-1.7,0.2c0-0.1,0-0.2,0-0.2c-0.2-0.1-0.5,0-0.5-0.2c-0.3,0-0.1-0.3,0,0
		c0.3-0.1,0.5-0.4,0.5,0.2C5.6,45.3,5.8,45.2,6,45c-0.2,0-0.3,0-0.5,0c-0.2-1.2,2.8-0.4,1.9-1.4c0.3-0.6,1.2,0.3,1,1
		c-0.9-0.4-0.5,0.6-1,0.7c0,0.3-0.4,0.1,0,0c0-0.2,0-0.5,0-0.7C7,44.5,6.9,44.9,7,45.4z M7.5,50.2C7.4,50.1,7.6,50.4,7.5,50.2
		L7.5,50.2z M10.6,51.2C10.5,51.1,10.8,51.4,10.6,51.2L10.6,51.2z M10.4,50c0-0.2,0-0.5,0-0.7c0.3,0.3,1,0.2,1-0.5
		C12.1,49.3,11,50,10.4,50z M11.6,48.1c-0.6-0.6-0.4,0.4-1.2,0.2c0.1-0.3,0.4-0.4,0.5-0.7c-1.5,0.5-0.7,1.9-0.5,3.1
		c-0.8-0.1-0.7,0.6-1,1c-0.1,0-0.2,0-0.2,0c-0.1,0.7-1-0.2,0,0c-0.4-0.5-1.2-0.5-1-1.7c1.1,0.3-0.4-0.8,0.5-1c0-0.4-0.2-0.6-0.7-0.5
		c0,0.6,0.4,0.7,0,1.2c-0.5-0.1-0.2-0.9-0.7-1c0.4-1,1.3-0.1,1.7-1c0-0.3,0.3-0.3,0.2-0.7c0.2,0.1,0.3,0.2,0.2,0.5
		c0.9-0.5,1.3-1.4,2.4-1.2C10.9,47.2,11.5,46.7,11.6,48.1z M12.5,42.5C12.2,42.6,12.4,42.2,12.5,42.5C12.8,42.5,12.7,42.9,12.5,42.5
		z M12,42.1c0-0.2,0.3-0.2,0.5-0.2C12.5,42.1,12.2,42,12,42.1z M12.5,35.8C12.8,34.9,12.8,36.8,12.5,35.8L12.5,35.8z M13.5,35.1
		c-0.1,0.6-1.1,0.2-0.7-0.5C13.3,34.5,13.1,35.1,13.5,35.1z M13.5,34.8C13.4,34.7,13.6,35,13.5,34.8L13.5,34.8z M13.2,36.8
		C13.4,36.9,13.1,36.7,13.2,36.8L13.2,36.8z M13,61.6C12.9,61.5,13.2,61.7,13,61.6L13,61.6z M12.8,51.9c0.1,0,0.2,0,0.2,0
		C13.1,52.1,12.9,52.2,12.8,51.9z M13,47.6C13.2,47.8,12.9,47.5,13,47.6L13,47.6z M13.5,41.6c-0.4,0-0.8,0-0.7-0.5
		c0.6,0.7,0.5-1,1.2-0.2C13.9,41.2,13.4,41,13.5,41.6C14.5,41.5,13.6,42.5,13.5,41.6z M15.4,40.1c0,0.2,0,0.5,0,0.7
		c-0.8-0.1-0.7,0.4-1.2,0C14.4,40.4,14.7,40,15.4,40.1z M14.4,39.9C14.3,39.8,14.6,40.1,14.4,39.9L14.4,39.9z M15.2,39.9
		C15.1,39.8,15.3,40.1,15.2,39.9L15.2,39.9z M15.2,55.8C15.3,55.9,15.1,55.7,15.2,55.8L15.2,55.8z M14.7,45.9
		C14.4,45.9,14.5,45.6,14.7,45.9C15.7,45.7,14.7,46.6,14.7,45.9z M14.8,46.4C14.9,46.6,14.7,46.3,14.8,46.4L14.8,46.4z M14.5,54.3
		c0-0.1,0-0.2,0-0.2C14.6,54.1,14.8,54.3,14.5,54.3z M14.7,44.7C14.6,44.6,14.8,44.9,14.7,44.7L14.7,44.7z M14.4,45.4
		C14.3,45.3,14.6,45.6,14.4,45.4L14.4,45.4z M14,46.2C14.3,45.4,14.6,47.1,14,46.2L14,46.2z M14,46.9C14.1,47,13.9,46.8,14,46.9
		L14,46.9z M14,34.4C13.9,34.3,14.1,34.5,14,34.4L14,34.4z M14,58.9C13.9,58.8,14.1,59.1,14,58.9L14,58.9z M14,64.4
		C14.3,63.5,14.3,65.4,14,64.4L14,64.4z M15.2,65.9C15.4,64.9,15.4,66.8,15.2,65.9L15.2,65.9z M15.5,63.5c-0.1,0.4-0.6,0.4-0.7,0.9
		c-0.4,0-0.2-0.6-0.7-0.5c0-0.2,0.2-0.3,0.2-0.5c-0.7-0.1,0.2-1,0,0C14.7,63.9,14.7,63.4,15.5,63.5C15.4,63.5,15.4,63.5,15.5,63.5
		C15.4,63.5,15.5,63.5,15.5,63.5C15.5,63.5,15.5,63.5,15.5,63.5C15.5,63.5,15.5,63.5,15.5,63.5z M15.7,54.3
		c-0.3-0.4,0.5-1.1,1.2-1.2c0.2,0.9-0.6,0.9-0.7,1.4C16,54.6,15.9,54.4,15.7,54.3C15.7,54.6,15.4,54.5,15.7,54.3z M15.7,40.4
		C15.6,40.3,15.8,40.5,15.7,40.4L15.7,40.4z M15.9,45.4C15.8,45.3,16,45.6,15.9,45.4L15.9,45.4z M15.9,44.2
		C16,44.4,15.8,44.1,15.9,44.2L15.9,44.2z M16.9,52.7c0,0.2-0.3,0.2-0.5,0.2C16.4,52.7,16.7,52.7,16.9,52.7z M16.6,46.2
		C16.8,46.3,16.5,46.1,16.6,46.2L16.6,46.2z M16.4,39.4C16.7,38.5,16.7,40.4,16.4,39.4L16.4,39.4z M17.1,54.6
		C16.6,55.3,15.6,54.3,17.1,54.6L17.1,54.6z M15.7,57.2c0-0.2,0.3-0.2,0.5-0.2C16.2,57.2,15.9,57.2,15.7,57.2z M16,61.8
		C16.2,61.8,16.1,62.1,16,61.8L16,61.8z M15.7,66.4c0.1-0.3,0.1-0.7,0-1c0,0-0.1,0-0.1,0c0-0.1,0-0.2,0.1-0.3c0-0.2,0.2-0.4,0.6-0.2
		c0.1,0,0.1,0,0.2,0c0,0.1-0.1,0.2-0.2,0.2C16.4,65.8,16.7,66.7,15.7,66.4z M16.1,64.7c0-0.2,0.2-0.2,0.3-0.2c0,0,0,0,0,0
		c-0.1-0.1,0,0,0,0c0.1,0,0.1,0,0.1,0C16.6,64.7,16.3,64.6,16.1,64.7z M17.1,58.7c0,0.2-0.3,0.2-0.5,0.2
		C16.6,58.7,16.9,58.7,17.1,58.7z M16.7,66.6C16.6,66.5,16.8,66.8,16.7,66.6L16.7,66.6z M16.7,62.8C16.8,62.9,16.6,62.7,16.7,62.8
		L16.7,62.8z M17.2,70.5C17.1,70.4,17.3,70.6,17.2,70.5L17.2,70.5z M17.4,62.5c-0.1,0-0.3,0-0.2-0.2c-0.3,0-0.6-0.1-0.5-0.5
		c0.3,0.1,0.4,0.3,0.5,0.5C17.3,62.3,17.4,62.3,17.4,62.5C17.7,62.5,17.6,62.9,17.4,62.5z M17.6,55.8C17.5,55.7,17.7,55.9,17.6,55.8
		L17.6,55.8z M17.1,44.5c0.5-0.1,0.3,0.5,0.7,0.5C17.7,45.6,16.7,45.1,17.1,44.5z M18.5,44c0,0.2,0,0.3,0,0.5c0.3,0,0.1,0.3,0,0
		c-0.2-0.1-0.5,0-0.5-0.2c-1,0.2,0-0.7,0,0C18.3,44.2,18.3,44,18.5,44C17.8,43.2,19.4,43.6,18.5,44z M18.3,32.7
		c0-0.2,0.3-0.2,0.5-0.2C18.8,32.7,18.5,32.6,18.3,32.7z M18.1,63c0-0.3-0.3-0.3-0.2-0.7c-0.1,0-0.3-0.2,0-0.2c0,0.1,0,0.2,0,0.2
		C18.2,62.2,18.7,63,18.1,63z M18.4,57.5c-0.1,0-0.2,0-0.2,0c-0.2-0.6-0.4-1.1,0.2-1.4C18.6,56.7,18.5,56.6,18.4,57.5z M18.1,54.8
		C18,54.7,18.2,55,18.1,54.8L18.1,54.8z M17.8,38.7C17.8,39,17.5,38.8,17.8,38.7C17,37.9,18.7,38.3,17.8,38.7z M17.8,43
		c-0.1,0.4-0.2,0-0.5,0C17.4,42.7,17.8,42.8,17.8,43z M18.5,70.9C18.8,71.9,17.8,71,18.5,70.9C18.5,70.6,18.9,70.8,18.5,70.9z
		 M18.6,70c-0.3,0-0.4,0.1-0.5,0.2c-0.3-0.1-0.4-0.3-0.5-0.5c0.7,0.2,0.6-0.3,1.2-0.2C18.8,69.7,18.7,69.8,18.6,70z M19.6,62
		c0.1-0.2,0-0.5,0.2-0.5C19.8,61.7,19.8,62,19.6,62z M19.6,63C19.5,62.9,19.7,63.2,19.6,63L19.6,63z M19.8,66.8
		C19.7,66.7,20,67,19.8,66.8L19.8,66.8z M20,69C20,68.7,20.4,68.9,20,69c0,0.1,0,0.3-0.2,0.2C19.8,69.1,19.8,69,20,69z M20,64
		C20.3,63.9,20.2,64.3,20,64L20,64z M19.7,37.3c0-0.4,0.2-0.6,0.7-0.5c0-1.1,0.9-0.1,0,0C20.4,37.1,20.2,37.3,19.7,37.3z M19.7,57.7
		C19.6,57.6,19.9,57.9,19.7,57.7L19.7,57.7z M19,37.7c0-0.3,0.4-0.2,0.7-0.2C19.7,37.8,19.3,37.7,19,37.7z M19.3,41.3
		C19.4,41.5,19.2,41.2,19.3,41.3L19.3,41.3z M19.3,68.8c0.7,0,0.5,1-0.2,1C18.9,69.2,19.2,69.1,19.3,68.8z M19.3,72.4
		c0-0.3,0-0.6,0-0.9c0,0.1-0.1,0.1-0.1,0.2c-0.3-0.1-0.2-0.6-0.2-1c0.3,0,0.6,0,1,0c-0.2,0.3-0.5,0.4-0.6,0.7c0.6-0.1,1,0.1,0.9,0.7
		C20.1,72.3,19.7,72.4,19.3,72.4z M20.5,46.6C20.4,46.5,20.6,46.8,20.5,46.6L20.5,46.6z M20.2,41.6C19.9,41.6,20.1,41.2,20.2,41.6
		c0.2,0.1,0.3,0.2,0.2,0.5c0.2,0,0.3-0.2,0.5-0.2c0-0.3,0.3-0.1,0,0c0,0.4-0.1,0.7-0.2,1C20.3,42.6,20.2,42.2,20.2,41.6z M24.1,42.3
		c-1.6-0.3-0.7,0.9-2.2,1c0.4-0.3,0.6-1.1,0-0.5c-0.6-0.4,0.7-0.9,0.2-1.9c-0.7-0.2-0.5-0.2-1.2,0c-0.1-0.6,0.7-0.3,0.7-0.7
		c0.1,0,0.2,0,0.2,0c0.4-0.7,1.3-0.8,1.9-1.2c0.1,0.3,0.3,0.5,0.5,0.7c0,0.1,0,0.2,0,0.2C25,40.8,23.4,41.2,24.1,42.3z M25.5,52.9
		C25.4,52.8,25.7,53,25.5,52.9L25.5,52.9z M25.5,52.4C25.4,52.3,25.7,52.6,25.5,52.4L25.5,52.4z M25.3,70C25.6,69,25.6,70.9,25.3,70
		L25.3,70z M25.8,72.6c-0.4,0.1-0.6,0.4-1,0.5c0-0.2,0-0.5,0-0.7C25.5,72.4,25.6,71.9,25.8,72.6z M26,51C26.9,50.1,27.2,51.6,26,51
		L26,51z M26.5,43.5C26.4,43.4,26.6,43.7,26.5,43.5L26.5,43.5z M26.7,52.2c-0.2,0-0.3,0-0.5,0c0-0.2-0.1-0.2-0.2-0.2
		C25.9,51.5,27.1,51.6,26.7,52.2z M26.3,67.3c0,0,0-0.2,0-0.2C27.5,66.9,25.2,68.6,26.3,67.3z M26.3,68.3
		C26.5,68.4,26.2,68.2,26.3,68.3L26.3,68.3z M26.5,57.5C26.6,57.6,26.4,57.4,26.5,57.5L26.5,57.5z M26.5,52.4c0,0.2-0.3,0.2-0.5,0.2
		C26,52.4,26.3,52.5,26.5,52.4z M26,58.2C26.2,58.3,25.9,58.1,26,58.2L26,58.2z M27,69.5c-0.3,1-0.5-0.1-1.2,0
		C26,68.7,26.7,69.2,27,69.5z M27.3,74.6C27.6,74.5,27.4,74.9,27.3,74.6C25.5,74.8,26.5,73.8,27.3,74.6z M26.8,75
		c0,0.3,0,0.7-0.2,0.7C26.6,75.5,26.5,75.1,26.8,75z M26.5,70.7c0,0.2-0.3,0.2-0.5,0.2C26.1,70.7,26.4,70.8,26.5,70.7z M26.3,70.2
		C27.3,70,26.4,70.9,26.3,70.2C26,70.2,26.2,69.9,26.3,70.2z M27,73.1C27,73.8,26,72.9,27,73.1C27,72.8,27.4,73,27,73.1z M25.8,68.3
		C26,67.3,25.6,69.7,25.8,68.3L25.8,68.3z M24.9,76.2c-0.1-0.1-0.6-1.1,0-1.2C24.8,75.7,25.8,75.9,24.9,76.2z M25,41.1
		c-0.1,0.3-0.4,0.4-0.5,0.7C24,41.7,24.5,40.9,25,41.1C25,40.8,25.4,41,25,41.1z M24.8,44.5C25,44.6,24.7,44.4,24.8,44.5L24.8,44.5z
		 M23.8,49.8C24.1,48.8,24.1,50.7,23.8,49.8L23.8,49.8z M23.4,51.9c0-0.2,0.3-0.2,0.5-0.2C23.8,51.9,23.5,51.9,23.4,51.9z
		 M23.8,53.4c0,0.2,0,0.3,0,0.5c-0.2,0-0.3,0-0.5,0c0-0.2,0-0.3,0-0.5C23.5,53.4,23.7,53.4,23.8,53.4z M23.6,45.4
		C23.9,44.5,23.9,46.4,23.6,45.4L23.6,45.4z M22.9,55.1C23.5,54.1,23.2,55.9,22.9,55.1L22.9,55.1z M22.9,49.8
		C23.1,48.8,23.1,50.7,22.9,49.8L22.9,49.8z M23.1,52.7C23.3,52.8,23,52.6,23.1,52.7L23.1,52.7z M21.7,54.6c-0.2-0.7,0.5-0.4,1-0.5
		C22.6,54.5,22.2,54.6,21.7,54.6z M22.6,55.5c0,0.2-0.3,0.2-0.5,0.2C22.2,55.5,22.4,55.6,22.6,55.5z M21.9,51.7
		C22.1,51.8,21.8,51.6,21.9,51.7L21.9,51.7z M22.4,53.6C22.7,53.6,22.5,54,22.4,53.6C22.1,53.6,22.2,53.3,22.4,53.6z M22.4,50.7
		c0.2,1.1-0.5-0.2-0.5,0.5c-0.4,0-0.1-0.7-0.5-0.7C21.8,49.6,21.8,51,22.4,50.7C22.3,49.7,23.3,50.7,22.4,50.7z M20.9,43
		c0.7-0.2,0.5,0.5,1,0.5C21.8,44.1,20.7,43.6,20.9,43z M20.9,48.6C20.8,48.5,21.1,48.7,20.9,48.6L20.9,48.6z M21.4,47.1
		C21.3,47,21.6,47.3,21.4,47.1L21.4,47.1z M21.3,65.6c0,0.2,0.2,0.3,0.2,0.5C21.1,66.2,20.8,65.8,21.3,65.6z M20.7,56.3
		C20.9,56.4,20.6,56.2,20.7,56.3L20.7,56.3z M20.7,44.2C20.9,44.4,20.6,44.1,20.7,44.2L20.7,44.2z M21.3,72.4
		c-0.4-0.1-0.5-0.4-0.5-1c0.9,0.1,0.6,0.7,1.4,0.2C22.6,72.6,21.2,71.7,21.3,72.4z M21.5,72.6c1-0.1,0.2,1,0.2,1.4
		C20.9,73.9,21.7,73.5,21.5,72.6z M22.7,80.8c-0.2,0-0.3,0-0.5,0c0-0.2,0-0.3,0-0.5c0.2,0,0.3,0,0.5,0
		C22.7,80.5,22.7,80.6,22.7,80.8z M22.6,78.2C22.8,78.3,22.5,78.1,22.6,78.2L22.6,78.2z M22.2,74.3c0,0.2,0,0.3,0,0.5
		c-0.9-0.7,0.8-0.9,0.5-1.9c-0.3,0-0.1-0.3,0,0c0.3-0.1,0.5-0.3,1-0.2C23.4,73.4,22.8,73.9,22.2,74.3z M23.2,75.8
		C23.2,75.5,23.5,75.6,23.2,75.8L23.2,75.8z M23.7,74.1C23.6,73.8,24,73.9,23.7,74.1C23.7,74.4,23.3,74.2,23.7,74.1z M23.7,76.2
		C23.8,76.4,23.6,76.1,23.7,76.2L23.7,76.2z M23.7,74.8C23.9,73.8,23.9,75.7,23.7,74.8L23.7,74.8z M24.1,76.7
		C24,76.6,24.3,76.9,24.1,76.7L24.1,76.7z M23.8,56.5C23.9,56.8,23.5,56.6,23.8,56.5C23.9,55.8,24.8,56.7,23.8,56.5z M24.8,49.3
		c0.6,0.2-0.2,1.1-0.2,1.4C23.9,50.4,24.6,49.5,24.8,49.3z M24.4,80.3C24.7,79.4,24.7,81.3,24.4,80.3L24.4,80.3z M24.9,76.7
		C25,76.9,24.8,76.6,24.9,76.7L24.9,76.7z M25.6,83.7C24.4,83.9,25.8,82.5,25.6,83.7L25.6,83.7z M25.6,73.1
		C26.6,73.2,25.3,74.5,25.6,73.1L25.6,73.1z M26.1,85.1c0.1,0,0.2,0,0.2,0C26.3,85.3,26.1,85.4,26.1,85.1z M25.8,80.1
		c0.3,0,0.3-0.3,0.7-0.2C27.5,80.7,26.4,80.7,25.8,80.1z M27,76.5C27.6,75.5,27.4,77.3,27,76.5L27,76.5z M27.2,90.4
		C27.5,89.5,27.5,91.4,27.2,90.4L27.2,90.4z M27.3,84.7c0.5,0,1,0,1.4,0C28.6,85.4,27.4,85.6,27.3,84.7z M28,70.2
		c0,0.2-0.3,0.2-0.5,0.2C27.5,70.2,27.8,70.3,28,70.2z M27.7,42.5C27.6,42.4,27.8,42.7,27.7,42.5L27.7,42.5z M29.6,49
		c0,0.2-0.3,0.2-0.5,0.2C29.1,49,29.4,49.1,29.6,49z M29.4,48.6C29.3,48.5,29.5,48.7,29.4,48.6L29.4,48.6z M30.3,49.8
		c0,0.2-0.3,0.2-0.5,0.2C29.9,49.8,30.1,49.8,30.3,49.8z M30.1,44.2C30.2,44.4,30,44.1,30.1,44.2L30.1,44.2z M33,51.2
		c-0.3,1.1-1-1.1,0-0.7C32.8,50.7,32.6,51.1,33,51.2z M32.5,49.8C32.8,48.8,32.8,50.7,32.5,49.8L32.5,49.8z M32.5,48.1
		c-0.3,0-0.2-0.4-0.2-0.7c0.4-0.1,0.5,0.2,0.5,0.5C32.5,47.8,32.5,47.9,32.5,48.1z M32.3,51.9C32.4,52.1,32.2,51.8,32.3,51.9
		L32.3,51.9z M32.3,55.5c0.7-0.2,0.6,0.3,1.2,0.2C33.3,56.4,32.3,55.8,32.3,55.5C31.3,55.5,32.3,54.5,32.3,55.5z M33.2,55.1
		C33.4,55.2,33.1,55,33.2,55.1L33.2,55.1z M33,64c0.4,0.2,0.6,0.8,0.2,1.2C32.7,65.2,33.1,64.3,33,64z M32.5,57.9
		C32.4,57.8,32.7,58.1,32.5,57.9L32.5,57.9z M32.5,62C32.4,61.9,32.7,62.2,32.5,62L32.5,62z M31.8,63.5
		C31.7,63.4,31.9,63.6,31.8,63.5L31.8,63.5z M31.8,65.6C31.9,65.8,31.7,65.5,31.8,65.6L31.8,65.6z M30.3,62c-0.5,0-0.1-0.9-0.2-1.2
		c0.7-0.2,1.4-0.4,1.4-1.2c1.1-0.2-0.3,0.6,0.5,0.7C31.6,61,30.5,61,30.3,62z M30.6,66.4c0.1,1.6-0.6-0.9-1.4-0.7
		c0.2-0.5,0.9-0.5,1.7-0.5c0-0.2,0-0.5,0-0.7c-1,0.6,0.1-0.9-0.5-1c0-0.5,0.9-0.1,1.2-0.2c0,0.2-0.2,0.3-0.2,0.5
		C31.6,64.3,31.4,65.8,30.6,66.4z M28.7,76.2C29.1,75.4,29.3,77.2,28.7,76.2L28.7,76.2z M28.5,80.6C29.6,80.7,28.3,82,28.5,80.6
		L28.5,80.6z M29,73.6c-0.2,0.1-0.5,0-0.5,0.2C27.5,73.5,29.2,72.4,29,73.6C30,73.4,29,74.3,29,73.6z M28.2,69
		C28.3,69.3,27.9,69.2,28.2,69L28.2,69z M28.2,57.9C28.3,58.1,28.1,57.8,28.2,57.9L28.2,57.9z M29.1,50.5c-0.6,0-1.2-0.5-0.7-1
		C29,49.4,29,50,29.1,50.5z M28.6,49.3C28.8,49.4,28.5,49.2,28.6,49.3L28.6,49.3z M29.1,42.5C29.1,42.3,29.5,42.4,29.1,42.5
		C29.1,42.8,28.8,42.7,29.1,42.5z M29.6,63.7C29.5,63.6,29.8,63.9,29.6,63.7L29.6,63.7z M29.6,64.2c0,0.2,0,0.3,0,0.5
		C28.4,64.9,29.2,63.4,29.6,64.2z M28.9,60.6c0-0.3,0.4-0.2,0.7-0.2C29.6,60.6,29.2,60.6,28.9,60.6z M29.1,57.7c0,0.3,0,0.6,0,1
		C28.2,58.8,28.3,57.7,29.1,57.7z M28.4,57.5c0.2-0.3,0.5-0.4,1-0.5C29.6,57.7,28.8,57.4,28.4,57.5z M29.8,64.9
		C30,65.1,29.7,64.8,29.8,64.9L29.8,64.9z M30.6,63C30.7,63.2,30.5,62.9,30.6,63L30.6,63z M30.1,58.9c0-0.2,0.3-0.2,0.5-0.2
		C30.6,58.9,30.3,58.9,30.1,58.9z M31,55.3C30.9,55.2,31.2,55.5,31,55.3L31,55.3z M31.5,56.5C31.6,56.8,31.2,56.6,31.5,56.5
		C31.6,55.8,32.5,56.7,31.5,56.5z M31.8,51.9C32.7,52.7,31,52.7,31.8,51.9L31.8,51.9z M31.5,58.9C32.2,58.1,32.1,60.1,31.5,58.9
		L31.5,58.9z M32,50.7c-0.1,0-0.2,0-0.2,0c0,0.3-0.4,0.1,0,0C31.8,50.6,32,50.5,32,50.7C32.3,50.7,32.2,51.1,32,50.7z M31.3,48.6
		c0-0.2,0.3-0.2,0.5-0.2C31.8,48.6,31.5,48.5,31.3,48.6z M31.3,46.9C31.4,47,31.2,46.8,31.3,46.9L31.3,46.9z M31.3,51.4
		c0,0.3-0.4,0.2-0.7,0.2C30.6,51.4,31,51.5,31.3,51.4z M31,52.2c0.3,0.2,0.4,0.5,0.5,1c-0.4,0-0.6-0.4-0.7,0
		C30.1,52.9,31.1,52.5,31,52.2z M30.6,57.5c0,0.3-0.4,0.2-0.7,0.2C29.9,57.4,30.3,57.5,30.6,57.5z M30.3,49.5
		C30.2,49.4,30.5,49.7,30.3,49.5L30.3,49.5z M30.1,53.4C30,53.3,30.2,53.5,30.1,53.4L30.1,53.4z M30.1,55.1
		C30.4,55,30.2,55.4,30.1,55.1C29.1,55.3,30,54.3,30.1,55.1z M29.6,54.3C29.9,53.4,29.9,55.3,29.6,54.3L29.6,54.3z M28.9,41.8
		c-0.1,0.3-0.3,0.5-0.7,0.5C28.1,41.9,28.4,41.7,28.9,41.8C28.9,41.1,29.9,42.1,28.9,41.8z M28.4,55.8c0.6,0.1,0,0.9-0.5,0.7
		C28,56.2,28.3,56.1,28.4,55.8z M27.9,53.1C28.1,53.3,27.8,53,27.9,53.1L27.9,53.1z M27.9,51.2C28.1,51.4,27.8,51.1,27.9,51.2
		L27.9,51.2z M27.7,73.6C27.4,75.4,27.9,72.7,27.7,73.6L27.7,73.6z M27.5,73.1C27.7,73.3,27.4,73,27.5,73.1L27.5,73.1z M27.4,50.2
		C27.7,49.3,27.7,51.2,27.4,50.2L27.4,50.2z M27.7,88c0-0.2,0.3-0.2,0.5-0.2C28.2,88,27.9,88,27.7,88z M28.6,88.3
		C29.8,88.2,26.7,88.4,28.6,88.3L28.6,88.3z M28.6,89.5C28.8,89.6,28.5,89.4,28.6,89.5L28.6,89.5z M28.6,91.6
		C28.8,91.8,28.5,91.5,28.6,91.6L28.6,91.6z M28.4,90.4c0-0.2,0.3-0.2,0.5-0.2C28.9,90.4,28.6,90.4,28.4,90.4z M28.6,92.8
		c0.6,0.5,0.9-0.5,1.9-0.2c0-1.1,0.9-0.1,0,0c0,0.2,0,0.3,0,0.5c-0.1,0-0.3,0-0.2,0.2c-0.2-0.1-0.3-0.2-0.2-0.5
		C29.9,93,28.6,93.9,28.6,92.8z M30.6,90.2c-0.6-0.1-1.1-0.2-1-1c0.6,0,1-0.1,1.2-0.5C31.7,89.3,30.2,89.4,30.6,90.2z M31,90.2
		C30.9,90.1,31.2,90.3,31,90.2L31,90.2z M30.1,90.7C30,90.6,30.2,90.8,30.1,90.7L30.1,90.7z M29.8,87.5c0-0.2,0.3-0.2,0.5-0.2
		C30.3,87.5,30,87.5,29.8,87.5z M30.8,87.3c-0.2,0-0.2-0.3-0.2-0.5c-0.2,0.1-0.4,0.2-0.7,0.2c0.2-0.5,0.6-0.6,1.2-0.7
		C30.9,86.6,30.8,86.9,30.8,87.3z M29.2,81.8c0.3-0.2,0.1-0.9,0.7-0.7C30,81.6,29.7,81.8,29.2,81.8z M29.4,84.9
		c-0.3-0.1-0.2-0.6-0.2-1C29.9,84.1,29.5,84.3,29.4,84.9z M29.1,89.9C29.4,89,29.4,90.9,29.1,89.9L29.1,89.9z M29.1,87.8
		C29,87.7,29.3,87.9,29.1,87.8L29.1,87.8z M29.1,87.1C29,87,29.3,87.2,29.1,87.1L29.1,87.1z M29.4,94.3c0.3,0.1,0.2,0.5,0.5,0.5
		C29.7,95.4,29.1,94.8,29.4,94.3z M30.6,95.2C29.8,95.2,30.8,94.2,30.6,95.2C31.4,95.6,29.8,96,30.6,95.2z M29.8,93.6
		c0.5,0.6,1.5,0.5,1-0.5c0.4-0.1,0.8,0.9,0.2,1c0,0.2,0.3,0.2,0.5,0.2C31.3,95.2,29.7,94.5,29.8,93.6z M31.5,93.1
		C31.8,92.1,31.8,94,31.5,93.1L31.5,93.1z M32.5,89.7c0,0.1,0,0.3-0.2,0.2c0,0.3-0.3,0.1,0,0C32.3,89.8,32.3,89.7,32.5,89.7
		C32.3,88.7,33.2,89.7,32.5,89.7z M31.8,89.2c0-0.1,0-0.3,0.2-0.2c0-0.2,0-0.5,0-0.7c-0.4-0.1-0.2-0.5,0-0.7c0.4,0.1,0.2,0.5,0,0.7
		c0.2,0,0.5,0,0.7,0c0,0.3-0.1,0.5-0.2,0.7c-0.2,0-0.3,0-0.5,0C32,89.1,32,89.3,31.8,89.2C31.8,89.5,31.4,89.4,31.8,89.2z
		 M31.8,91.1c-0.6,0.5-1.3,0.9-2.4,1c0,0.3-0.3,0.1,0,0c0.1-0.5,0.7-0.4,0.5-1.2C30.7,90.8,31.2,91,31.8,91.1z M29.2,75.8
		C28.9,75.8,29,75.4,29.2,75.8c1,0.2,1.4-0.2,2.2-0.2C31.1,76.1,29.7,77,29.2,75.8z M32.5,72.4c0-0.2,0.3-0.2,0.5-0.2
		C33,72.4,32.7,72.3,32.5,72.4z M33.9,84.4C33.8,84.3,34.1,84.6,33.9,84.4L33.9,84.4z M33.7,67.1c-0.1,0.3-0.4,0.6-0.7,0.7
		c0.6,0.4,0.9-0.2,0.5,1c0.4,0,0.1,0.7,0.5,0.7c0,0.3-0.4,0.2-0.5,0.5c-0.7-0.2,0.1-0.8,0-1.2c-1-0.4,0.1,1.3-1,1
		c0.1-0.3,0.3-0.5,0.2-1c-0.2,0-0.3,0-0.5,0c-0.7,0.2,0.3,0.6-0.2,1c-2.2-0.2-0.2-2.1-0.7-3.1c0.2-1.2,1.6,0.1,1-1.2
		c0.3,0,0.6,0,1,0C33,66.1,33.2,66.6,33.7,67.1C33.7,66.4,34.7,67.3,33.7,67.1z M34.2,67.6C34.3,67.7,34.1,67.5,34.2,67.6L34.2,67.6
		z M33.9,66.4c0-0.2,0-0.5,0-0.7C34.6,65.3,34.6,66.7,33.9,66.4z M34.9,49.8C35.2,48.8,35.2,50.7,34.9,49.8L34.9,49.8z M34.9,63.2
		C35.1,63.4,34.8,63.1,34.9,63.2L34.9,63.2z M34.2,48.6c-0.1-0.6,0.7-0.3,0.7-0.7C35.6,48.1,34.9,48.9,34.2,48.6z M34.7,54.1
		c0,0.2-0.3,0.2-0.5,0.2C34.2,54.1,34.5,54.1,34.7,54.1z M34.7,45.7C34.1,46.5,33.5,45,34.7,45.7L34.7,45.7z M34.4,53.4
		c0,0.2-0.3,0.2-0.5,0.2C33.9,53.4,34.2,53.4,34.4,53.4z M34.4,63.2C34.3,63.1,34.6,63.4,34.4,63.2L34.4,63.2z M35.4,66.8
		C34.9,67.6,33.8,66.6,35.4,66.8L35.4,66.8z M35.4,70.7C35.5,70.9,35.3,70.6,35.4,70.7L35.4,70.7z M35.6,69.5c-0.7,0-0.8-0.7-0.5-1
		C35.6,68.6,35.7,68.9,35.6,69.5z M35.6,68.1C35.8,68.2,35.5,67.9,35.6,68.1L35.6,68.1z M30.7,40.8c-1.8,0-3.5-0.4-5-1
		c0,0.2-0.1,0.4-0.5,0.4c0-0.2,0-0.3,0-0.5c0.1,0,0.1,0,0.2,0c-3.7-1.7-6.3-5.1-7-9.2c-0.3,0.1-0.6,0.2-0.4,0.8
		c-0.9-0.2-0.7-1.3-1.4-1.7c-0.7,0.6,0.6,1.3,0.7,1.9c-0.2,0.5-0.7,0.7-1.4,1.2c-0.2-1,0.9-0.7,0.7-1.7c-0.2,0.1-0.3,0.2-0.2,0.5
		c-0.5-0.4-0.6-0.7-0.5-1.2c-0.4,0-0.8,0-0.7,0.5c1.4-1.9,1.8-4-1.2-5.8c0.7-0.2,0.7,0.4,1.4,0.2c0-0.2,0-0.5,0-0.7
		c-0.6,0.2-1.5,0.5-1.9,0c0.3,1.7,0.1,2.7,0.5,4.1c-0.7-0.1-0.7-0.9-1.4-1c0.8,1.1,1.6,2.2,2.2,3.6c-0.7,0.2-0.5-0.5-1-0.5
		c-0.3,1.1,0.9,0.5,0.7,1.4c0.3,0,0.3-0.4,0.2-0.7c0.5,0.1,1.5-0.3,1.2,0.5c-0.1,0-0.2,0-0.2,0c0,0.3-0.3,0.1,0,0
		c-0.3-0.8-1.5,1.6-0.5,1.4c0,0.4-0.6,0.2-0.5,0.7c-0.4-1.4-2-2.8-2.4-4.1c-0.1-0.2,0.4-0.4,0.2-0.7c-0.4-0.6-1.6-0.9-2.2-1.7
		c-0.6-0.9-0.1-3-1.9-2.6c0.5-0.6,0.7-1.4-0.5-1.4c0.5,0.6-0.1,0.6-0.5,0.2c-0.1,0.7-1-0.2,0,0c0.1-0.2,0.2-0.3,0.5-0.2
		c0.9-0.9,1.3,0.7,1.9,1c0.7-0.2-0.2-0.5,0-1c1,0.1,1.7-0.1,1.7-1c0.5,0.1,1,0.1,1,0.7c0.6-0.4,1.3-0.6,2.2-0.7
		c-0.2,0.9-0.7,1.1,0,1.7c0.4-0.2,0.5-0.8,0.5-1.4c0.8,0.1,1.3-0.1,1.9-0.2c0.1,0.6,0,0.9-0.2,1.2c0.4-0.1,1-0.1,1.2-0.5
		c-0.2,0-0.5,0-0.7,0c0-0.2,0-0.5,0-0.7c0.8-0.2,1.2,0.2,0.7,0.7c0.5,0,0.1,0.9,0.2,1.2c-0.2,0.8-0.3-0.4-0.2-0.7
		c-0.6,1.3-0.4,2.2-0.7,3.6c1-0.1-0.3-0.8,0.7-0.7c-0.1,0.6,0.2,0.7,0.3,1.1c0-0.6,0.1-1.2,0.2-1.8c0-0.9-0.2-1.7,0.7-2.2
		c0.3-0.8,0.7-1.5,1.1-2.2c-0.1,0.1-0.3,0.1-0.4,0.1c0-0.2,0.3-0.2,0.5-0.2c2.2-3.3,6-5.4,10.3-5.4c0.9,0,1.7,0.1,2.5,0.3
		c0.1-0.1,0.3-0.1,0.4-0.1c0,0.1-0.1,0.2-0.2,0.2c1.3,0.3,2.6,0.8,3.7,1.5c-0.1-1.3-0.4-2.8-1.8-3.1c0.2-1,1.2-1,1.9-1.4
		c0,0.3,0.3,0.3,0.2,0.7c1.7-1.7,5,2,8,1.2c1-0.2,0.1,0.6-0.7,1.8c0.9-0.1,4.2-1.1,4.5-0.3c1-0.2,0,0.7,0,0c-1.1,0-3.1,0.7-4.1,1.4
		c0.6,0.7,1.2-0.7,2.2-0.5c0.1,0.9-1.1,0.5-1,1.4c-0.3,0-0.5-0.4-0.7,0c0.3,0,0.3,0.6-0.2,0.5c0,0.2,0,0.3,0,0.5c0.3,0,0.1,0.4,0,0
		c-0.4,0-0.8,0-0.7-0.5c-0.4,0-0.9-0.1-1,0.2c0.5,0.1,0.6,0.5,1,0.7c-0.1,0.4-0.8,0.2-0.5,1c-1.1-0.1-1.7,0.3-2.6,0.5
		c0-0.3-0.1-0.6-0.5-0.5c0.2-0.2,1-0.8,0-0.7c0.2-0.5,0.9-0.5,1.7-0.5c-0.1-0.3-0.5-0.3-0.7-0.5c0.3-0.8,1.9-0.3,1.9-1.4
		c-1.1-1.2-2.1-1.1-3.1,0.2c0.3,0,0.1,0.3,0,0c-1.1-0.5-2.3,0.6-2.6-0.7c-0.3-0.1-0.4,0.2-0.4,0.4c3.2,2.2,5.3,6,5.3,10.2
		C43.2,35.3,37.6,40.8,30.7,40.8z M35.6,15.4C35.9,14.4,35.9,16.3,35.6,15.4L35.6,15.4z M35.9,16.1C36.5,15.2,36.4,17.3,35.9,16.1
		L35.9,16.1z M49.6,27.9C49.5,27.8,49.7,28,49.6,27.9L49.6,27.9z M46.7,32.4c-0.1-0.7,0.9-0.2,1-0.7C48.3,32.1,47.2,32.6,46.7,32.4z
		 M47.4,39.2c-0.1,0.4-0.2,0-0.5,0C47,38.9,47.4,38.9,47.4,39.2z M45.2,32.9C46.3,33,45,34.3,45.2,32.9L45.2,32.9z M45.2,48.3
		C45.5,47.4,45.5,49.3,45.2,48.3L45.2,48.3z M45.2,49c0,0.5-0.2,0.8-0.7,0.7C44.8,49.5,44.6,48.9,45.2,49z M44.3,46.9
		c0-0.2,0.3-0.2,0.5-0.2C44.8,46.9,44.5,46.8,44.3,46.9z M45,47.6C45.2,47.8,44.9,47.5,45,47.6L45,47.6z M45.5,32.2
		c-0.6,0.6-0.7,0.7-0.5,1.7c-0.4-0.1-0.4,0.2-0.7,0.2c-0.8,0.1-1.2-0.9-0.7-1.4c0.5,0,0.2,0.8,0.7,0.7c0.1-0.6-0.4-0.5-0.2-1.2
		c0.3,0,0.6,0,1,0c-0.2-1.1,0-1,0.2-1.4c1.1,0-0.1,0.7,0.5,1c1.2,0.1,0.4-1.7,1.2-1.9C47.9,30.9,46,33.3,45.5,32.2z M43.3,35.8
		c-0.8-0.4-0.5-0.4-1.7-0.2c0.2-0.7,1.4-0.4,1.2-1.4c0.6-0.1,0.5,0.4,1.2,0.2C44.1,35.2,43,34.7,43.3,35.8z M41.4,34.8
		c0-0.2,0.3-0.2,0.5-0.2C41.9,34.8,41.6,34.8,41.4,34.8z M42.8,33.9C43,34,42.7,33.8,42.8,33.9L42.8,33.9z M43.3,27.4
		c0-0.2,0.3-0.2,0.5-0.2C43.8,27.4,43.5,27.3,43.3,27.4z M45.7,23.8C45.9,23.9,45.6,23.7,45.7,23.8L45.7,23.8z M45.7,30.3
		c0,0.2-0.3,0.2-0.5,0.2C45.3,30.3,45.5,30.3,45.7,30.3z M45.7,21.4c-0.2,0-0.3,0-0.5,0c0.1-0.2,0.3-0.4,0.2-0.7
		C46,20.8,46,21,45.7,21.4z M45.2,23.1C45.1,23,45.4,23.2,45.2,23.1L45.2,23.1z M45.5,23.5c-0.1,0.3-0.2,0-0.5,0
		C45.1,23.2,45.5,23.3,45.5,23.5z M46.2,19.7C46.4,19.8,46.1,19.6,46.2,19.7L46.2,19.7z M46.4,22.1c0.3-1.1,1,1.1,0,0.7
		C46.6,22.6,46.8,22.2,46.4,22.1z M47.7,18c0.2-0.4,0.4-0.8,1.2-0.7C48.7,17.8,48.2,17.9,47.7,18z M48.9,27.6
		C48.6,27.7,48.7,27.3,48.9,27.6C49.1,27.6,49,28,48.9,27.6z M47.7,18.5C47.8,18.6,47.5,18.4,47.7,18.5L47.7,18.5z M48.6,28.1
		c0.7-0.2,0.4,0.5,0.5,1c-0.9-0.3-0.7,0.6-1.4,0.5c0-0.2,0.2-0.2,0.2-0.5c0-0.2-0.3-0.2-0.5-0.2C47.4,28.1,49,29.1,48.6,28.1z
		 M48.9,36.5C48.6,36.6,48.7,36.2,48.9,36.5C49.1,36.5,49,36.9,48.9,36.5z M48.4,31C48.3,30.9,48.5,31.2,48.4,31L48.4,31z
		 M47.7,38.9C48.3,38,48,39.7,47.7,38.9L47.7,38.9z M47.7,48.6C47.5,48.5,47.8,48.7,47.7,48.6L47.7,48.6z M47.9,47.1
		C48.2,46.2,48.2,48.1,47.9,47.1L47.9,47.1z M47.4,21.4C47.3,21.3,47.6,21.5,47.4,21.4L47.4,21.4z M47.4,30.3
		C47.3,30.2,47.6,30.4,47.4,30.3L47.4,30.3z M47.7,50.5C47.8,50.6,47.5,50.4,47.7,50.5L47.7,50.5z M47.7,51.2
		C47.9,50.3,47.9,52.2,47.7,51.2L47.7,51.2z M48.4,48.6c0.5,0.1,0.4,1.7-0.5,1.2C47.7,49,48.3,49,48.4,48.6z M48.1,45.2
		C49.7,45.4,48.4,46.7,48.1,45.2L48.1,45.2z M48.6,38.5c0-0.3,0.4-0.2,0.7-0.2c0,0.2,0,0.5,0,0.7C49,38.9,49,38.5,48.6,38.5z
		 M48.9,42.1C49,42.2,48.8,42,48.9,42.1L48.9,42.1z M49.3,29.3C49.2,29.2,49.5,29.5,49.3,29.3L49.3,29.3z M49.3,26.9
		C49.3,26.6,49.7,26.8,49.3,26.9C49.4,27.2,49,27.1,49.3,26.9z M40.2,56.3c0-0.2,0.3-0.2,0.5-0.2C40.7,56.3,40.4,56.2,40.2,56.3z
		 M40.2,66.4C40.1,66.3,40.4,66.5,40.2,66.4L40.2,66.4z M40.4,55.3C40.3,55.2,40.6,55.5,40.4,55.3L40.4,55.3z M40.4,52.2
		C39.6,51.8,41.2,51.4,40.4,52.2C41.4,51.9,40.5,52.9,40.4,52.2z M40.2,37c-0.1-0.5,0.3-0.5,0.7-0.5C40.8,36.8,40.6,37,40.2,37z
		 M40.9,54.3C41.1,54.5,40.8,54.2,40.9,54.3L40.9,54.3z M40.9,51.9c0-0.3,0-0.6,0-1c0.2,0,0.3,0,0.5,0c0,0.3,0,0.6,0,1
		C41.2,51.9,41.1,51.9,40.9,51.9z M36.3,56C36.2,55.9,36.5,56.2,36.3,56L36.3,56z M36.1,80.8c0-0.2,0.2-0.2,0.2-0.5
		c0.2,0,0.3,0,0.5,0C36.9,80.8,36.5,80.8,36.1,80.8z M36.8,69.3c-0.2,0-0.3,0-0.5,0c-0.3-0.3-0.2-1,0.5-1
		C36.4,68.8,36.8,68.6,36.8,69.3z M36.8,54.1C36.7,54,37,54.3,36.8,54.1L36.8,54.1z M36.8,47.4c-0.7-0.7,0.5-1.6,1.2-1.7
		C37.6,46.2,37.2,46.7,36.8,47.4C37.1,47.3,37,47.7,36.8,47.4z M37.8,58.2C37.7,58.1,37.9,58.3,37.8,58.2L37.8,58.2z M37.8,59.6
		C37.7,59.5,37.9,59.8,37.8,59.6L37.8,59.6z M37.8,54.1C37.7,54,37.9,54.3,37.8,54.1L37.8,54.1z M37.5,48.3c-0.4-0.1-0.2-0.5,0-0.7
		C37.9,47.7,37.7,48.1,37.5,48.3C37.8,48.3,37.7,48.7,37.5,48.3z M37.1,58.2c0-0.2,0.3-0.2,0.5-0.2C37.5,58.2,37.3,58.1,37.1,58.2z
		 M37.5,60.6c0.1-0.3,0.3-0.5,0.7-0.5C38.2,60.4,38,60.6,37.5,60.6z M38.3,57.2C38.5,56.3,38.5,58.2,38.3,57.2L38.3,57.2z
		 M38.7,46.4C38.7,47.1,37.7,46.2,38.7,46.4C38.7,46.1,39.1,46.2,38.7,46.4z M39,52.7C39.1,52.8,38.9,52.6,39,52.7L39,52.7z
		 M39.2,54.3C39.5,53.4,39.5,55.3,39.2,54.3L39.2,54.3z M39.2,45.2c0.1-0.5,1.1-0.1,1,0.5C39.4,45.9,39.6,45.3,39.2,45.2z
		 M39.7,52.2C39.6,52.1,39.9,52.3,39.7,52.2L39.7,52.2z M39.7,73.1c0-0.3,0.4-0.2,0.7-0.2C40.4,73.1,40,73.1,39.7,73.1z M40.4,57.5
		c0-0.2,0.3-0.2,0.5-0.2C40.9,57.5,40.6,57.4,40.4,57.5z M40.9,61.1C40.8,61,41.1,61.2,40.9,61.1L40.9,61.1z M40.9,60.4
		C41.2,59.4,41.2,61.3,40.9,60.4L40.9,60.4z M40.9,56.5c0-0.2,0.3-0.2,0.5-0.2C41.4,56.5,41.1,56.4,40.9,56.5z M41.4,61.6
		C41.3,61.5,41.6,61.7,41.4,61.6L41.4,61.6z M41.4,68.5c0-0.2,0.3-0.2,0.5-0.2C41.9,68.5,41.6,68.5,41.4,68.5z M41.4,62.3
		c0-0.2,0.3-0.2,0.5-0.2C41.9,62.3,41.6,62.2,41.4,62.3z M42.1,62.5c0.1-0.3,0.5-0.2,0.5,0C42.5,62.9,42.4,62.5,42.1,62.5z
		 M42.1,54.8C42,54.7,42.3,55,42.1,54.8L42.1,54.8z M42.6,61.8C41.6,62,42.5,61.1,42.6,61.8C43.6,61.6,42.6,62.5,42.6,61.8z
		 M42.8,58.4C43.1,57.5,43.1,59.4,42.8,58.4L42.8,58.4z M43.1,52.4c0,0.1-0.2,0.3-0.2,0c-0.3,0.1-0.4,0.3-0.7,0
		c-0.1,0.5-0.4,0.5-0.7,0.2c0,1.1-0.9,0.1,0,0c-0.1-0.5,0.3-0.5,0.2-1c0.5,0.2,1.2,0.9,1.2-0.2c-0.2-0.3-0.5-0.4-1-0.5
		c0.3-1.1,0.6-1.9,2.2-2.6c-0.1-0.3-0.4-0.5,0.2-0.5c-0.6,2-0.3,2.9-1,4.6C43.2,52.4,43.2,52.4,43.1,52.4z M44,51.7
		C44.2,51.8,43.9,51.6,44,51.7L44,51.7z M44,52.2C43.9,52.1,44.2,52.3,44,52.2L44,52.2z M43.6,53.6c0-0.2,0.3-0.2,0.5-0.2
		C44,53.6,43.7,53.6,43.6,53.6z M44,52.9C44.3,51.9,44.3,53.8,44,52.9L44,52.9z M44.5,54.3C44.7,54.5,44.4,54.2,44.5,54.3L44.5,54.3
		z M44.5,51.9C44.4,51.8,44.7,52.1,44.5,51.9L44.5,51.9z M44.8,51.2c-0.5,0.1-0.3-0.5-0.7-0.5c0-0.3,0.4-0.2,0.7-0.2
		C44.8,50.7,44.8,51,44.8,51.2z M45,53.1c0.6-0.1,0.3,0.7,0.7,0.7C45.5,54.5,44.4,53.4,45,53.1z M45.7,63
		C46.6,63.6,44.5,63.6,45.7,63L45.7,63z M45.7,59.9C45,59.8,46,58.9,45.7,59.9C46.5,59.1,46.1,60.7,45.7,59.9z M46.2,32.9
		C46.1,32.8,46.4,33.1,46.2,32.9L46.2,32.9z M46.9,47.6c0.5,1.2,0.3,4,0.2,5.3c-0.2-0.2-0.5-0.3-1-0.2C46.5,50.6,46.8,50,46.9,47.6z
		 M46.4,63.7C46.2,63.7,46.3,63.4,46.4,63.7C46.7,63.7,46.6,64.1,46.4,63.7z M46.7,56.3C46.5,57.7,46.8,55.3,46.7,56.3L46.7,56.3z
		 M46.7,59.4C46.8,59.5,46.6,59.3,46.7,59.4L46.7,59.4z M46.9,60.6C47.1,60.7,46.8,60.5,46.9,60.6L46.9,60.6z M47.2,53.4
		C47.1,53.3,47.3,53.5,47.2,53.4L47.2,53.4z M47.2,62.3c0-0.2,0.3-0.2,0.5-0.2C47.6,62.3,47.4,62.2,47.2,62.3z M47.7,63.5
		C47.5,63.4,47.8,63.6,47.7,63.5L47.7,63.5z M48.4,59.1C48.5,59.3,48.3,59,48.4,59.1L48.4,59.1z M48.6,57.2
		C48.5,57.1,48.8,57.4,48.6,57.2L48.6,57.2z M47.2,55.5c0.4,0.1,0.5-0.2,0.5-0.5c0.2,0.8,1.6,0.5,1.4,1.7
		C48.5,56.3,47,56.7,47.2,55.5z M49.1,48.3c-0.6,0.1-0.6-0.5-0.7-1C48.7,47.6,49.3,47.5,49.1,48.3z M48.4,46.6
		c0-0.1,0.5-0.4,0.7-0.2C49.6,46.8,48,47.5,48.4,46.6z M48.9,44.7c0-0.2,0.3-0.2,0.5-0.2C49.3,44.7,49,44.7,48.9,44.7z M49.3,48.6
		C49.2,48.5,49.5,48.7,49.3,48.6L49.3,48.6z M49.3,46.4C49.2,46.3,49.5,46.6,49.3,46.4L49.3,46.4z M49.1,40.4
		C50.2,40.5,48.9,41.8,49.1,40.4L49.1,40.4z M49.3,28.3C49.9,27.4,49.7,29.1,49.3,28.3L49.3,28.3z M50.1,58.2c-0.2,0-0.3,0-0.5,0
		c0-0.2,0-0.3,0-0.5c0.2,0,0.3,0,0.5,0C50.1,57.9,50.1,58,50.1,58.2z M49.8,24C50.2,23.2,50.4,25,49.8,24L49.8,24z M50.3,11.5
		c0.4,0.2,0,0.4,0,0.7C49.9,12.1,50.3,11.8,50.3,11.5z M50.8,55.1C50.9,55.2,50.7,55,50.8,55.1L50.8,55.1z M51.5,54.1
		c-0.4,0-0.8,0-1.2,0c0.1-0.5,0.4-0.5,0.7-0.2c0-0.2,0-0.5,0-0.7C51.7,52.9,51.4,53.7,51.5,54.1z M51.5,48.3c-0.3-0.2-0.4-0.5-0.5-1
		C51.7,47.1,51.4,47.9,51.5,48.3z M52,51.4c0,0.3,0,0.6,0,1C51.6,52.2,51.3,51.5,52,51.4C52,51.2,52.3,51.3,52,51.4z M52,48.1
		C52,48.4,51.6,48.2,52,48.1C52,47.8,52.3,47.9,52,48.1z M52.2,53.9C52.5,52.9,52.5,54.8,52.2,53.9L52.2,53.9z M52.5,32.4
		C52.3,33.9,52.6,31.5,52.5,32.4L52.5,32.4z M52.5,37C52.6,37.2,52.4,36.9,52.5,37L52.5,37z M52.5,31C52.7,30,52.7,31.9,52.5,31
		L52.5,31z M52.7,48.6C52.6,48.5,52.9,48.7,52.7,48.6L52.7,48.6z M52.9,34.6C53.1,34.8,52.8,34.5,52.9,34.6L52.9,34.6z M53.2,51.9
		C53.3,52.1,53.1,51.8,53.2,51.9L53.2,51.9z M53.7,32.4c-0.1-0.2-0.2-0.3-0.5-0.2c0.1-0.5,1.3-0.2,1.4,0
		C54.6,32.6,54,32.4,53.7,32.4c0,0.4,0.2,0.6,0.7,0.5c0,0.9-0.9,0-1,0.5C53,33.5,53,32.1,53.7,32.4z M54.4,37.3
		C54.7,36.3,54.7,38.2,54.4,37.3L54.4,37.3z M54.4,33.6C54.5,33.8,54.3,33.5,54.4,33.6L54.4,33.6z M53.2,34.1c0.2-0.8,0.7-0.4,1,0
		C54,34.8,53.6,33.9,53.2,34.1z M53.4,45.4C53.7,44.5,53.7,46.4,53.4,45.4L53.4,45.4z M54.4,50.2C54.3,50.1,54.5,50.4,54.4,50.2
		L54.4,50.2z M54.1,49c-0.7-0.2,0.2-0.5,0-1C54.7,48.1,54.2,48.9,54.1,49c0.3,0,0.6,0,1,0C55.2,49.8,54,50,54.1,49z M55.1,47.8
		C55,47.7,55.3,48,55.1,47.8L55.1,47.8z M55.1,46.9C55.3,47,55,46.8,55.1,46.9L55.1,46.9z M55.1,45.7C55,45.6,55.3,45.8,55.1,45.7
		L55.1,45.7z M56.1,45.4c-0.5,0-0.5-0.2-0.2-0.5c-0.5-0.1-0.5,0.3-1,0.2c-0.1-0.6,0.5-0.6,1-0.7c0-0.1,0-0.3,0.2-0.2
		c-0.3-1.8,0.7-0.8,0,0c0,0.1,0,0.3-0.2,0.2C55.9,44.8,56.2,44.9,56.1,45.4z M56.3,42.1C56.1,43.5,56.5,41.1,56.3,42.1L56.3,42.1z
		 M56.3,32.4C56.2,32.3,56.5,32.6,56.3,32.4L56.3,32.4z M56.3,31.2C57.2,32,55.6,32,56.3,31.2L56.3,31.2z M56.6,44.5
		C56.1,45.6,57.1,43.3,56.6,44.5L56.6,44.5z M56.8,35.6C56.7,35.5,57,35.7,56.8,35.6L56.8,35.6z M57,43.5
		C56.9,43.4,57.2,43.7,57,43.5L57,43.5z M56.8,37c0-0.2,0.2-0.2,0.2-0.5c0.2,0,0.3,0,0.5,0C57.6,37,57.2,37,56.8,37z M57.3,32.4
		c0,0,0-0.2,0-0.2C58.4,32,56.1,33.7,57.3,32.4z M58.2,36C57.9,36.1,58.1,35.7,58.2,36C58.5,36,58.4,36.4,58.2,36z M58.5,37
		C58.6,37.2,58.4,36.9,58.5,37L58.5,37z"/>
</g>
</svg>
